<?xml version="1.0" standalone="no"?>
<!DOCTYPE svg PUBLIC "-//W3C//DTD SVG 20010904//EN"
 "http://www.w3.org/TR/2001/REC-SVG-20010904/DTD/svg10.dtd">
<svg version="1.0" xmlns="http://www.w3.org/2000/svg"
 width="512.000000pt" height="512.000000pt" viewBox="0 0 512.000000 512.000000"
 preserveAspectRatio="xMidYMid meet">

<g transform="translate(0.000000,512.000000) scale(0.100000,-0.100000)"
fill="#000000" stroke="none">
<path d="M265 3246 c-27 -7 -65 -20 -84 -30 -53 -28 -120 -102 -149 -164 l-27
-57 0 -435 0 -435 27 -57 c48 -102 137 -174 246 -197 75 -16 4489 -16 4564 0
109 23 198 95 246 197 l27 57 0 435 0 435 -27 57 c-48 102 -137 174 -246 197
-80 17 -4508 14 -4577 -3z"/>
</g>
</svg>
