<?xml version="1.0" standalone="no"?>
<!DOCTYPE svg PUBLIC "-//W3C//DTD SVG 20010904//EN"
 "http://www.w3.org/TR/2001/REC-SVG-20010904/DTD/svg10.dtd">
<svg version="1.0" xmlns="http://www.w3.org/2000/svg"
 width="512.000000pt" height="512.000000pt" viewBox="0 0 512.000000 512.000000"
 preserveAspectRatio="xMidYMid meet">

<g transform="translate(0.000000,512.000000) scale(0.100000,-0.100000)"
fill="#000000" stroke="none">
<path d="M2471 5109 c-176 -34 -326 -193 -351 -371 -5 -35 -10 -438 -10 -895
l0 -833 -832 0 c-526 0 -857 -4 -898 -11 -192 -30 -340 -179 -372 -373 -39
-236 135 -472 374 -506 35 -5 438 -10 896 -10 l832 0 0 -832 c0 -458 5 -861
10 -896 34 -239 270 -413 506 -374 194 32 343 180 373 372 7 41 11 372 11 898
l0 832 833 0 c457 0 860 5 895 10 239 34 413 270 374 506 -32 194 -180 343
-372 373 -41 7 -372 11 -897 11 l-833 0 0 833 c0 457 -5 860 -10 895 -35 249
-280 420 -529 371z"/>
</g>
</svg>
