<svg xmlns="http://www.w3.org/2000/svg" width="60" height="40" viewBox="0 0 60 40">
  <path id="Icon_ionic-ios-arrow-round-back" data-name="Icon ionic-ios-arrow-round-back" d="M29.619,12.018a2.721,2.721,0,0,1,.021,3.833L16.989,28.537h48.2a2.708,2.708,0,0,1,0,5.416h-48.2L29.66,46.64a2.741,2.741,0,0,1-.021,3.833,2.7,2.7,0,0,1-3.814-.021L8.653,33.162h0a3.041,3.041,0,0,1-.563-.854,2.584,2.584,0,0,1-.208-1.042,2.715,2.715,0,0,1,.771-1.9L25.826,12.08A2.656,2.656,0,0,1,29.619,12.018Z" transform="translate(67.882 51.252) rotate(180)" fill="#fff"/>
</svg>
