<svg id="그룹_123" data-name="그룹 123" xmlns="http://www.w3.org/2000/svg" xmlns:xlink="http://www.w3.org/1999/xlink" width="172.395" height="57.03" viewBox="0 0 172.395 57.03">
  <defs>
    <clipPath id="clip-path">
      <rect id="사각형_123" data-name="사각형 123" width="172.395" height="57.03" fill="none"/>
    </clipPath>
  </defs>
  <g id="그룹_122" data-name="그룹 122" transform="translate(0 0)" clip-path="url(#clip-path)">
    <path id="패스_200" data-name="패스 200" d="M168.449,65.884a4.775,4.775,0,0,1,1.034,3.183,4.963,4.963,0,0,1-1.034,3.265,3.921,3.921,0,0,1-3.213,1.378,3.848,3.848,0,0,1-3.173-1.378,5.014,5.014,0,0,1-1.02-3.265,4.823,4.823,0,0,1,1.02-3.183,3.894,3.894,0,0,1,3.173-1.344,3.992,3.992,0,0,1,3.213,1.344m-4.909.666a4.723,4.723,0,0,0-.594,2.517,5.005,5.005,0,0,0,.594,2.6,1.908,1.908,0,0,0,1.7,1.012,1.941,1.941,0,0,0,1.711-1.012,4.835,4.835,0,0,0,.62-2.6,4.564,4.564,0,0,0-.62-2.517,1.95,1.95,0,0,0-1.711-.987,1.915,1.915,0,0,0-1.7.987" transform="translate(-56.923 -22.812)" fill="#8e8e8f"/>
    <path id="패스_201" data-name="패스 201" d="M228.951,72.838a1.012,1.012,0,0,1,.538-.122h2.022a1.007,1.007,0,0,1,.55.122.358.358,0,0,1,.188.324.324.324,0,0,1-.188.3,1.147,1.147,0,0,1-.55.1h-2.022a1.159,1.159,0,0,1-.538-.1.324.324,0,0,1-.2-.3.356.356,0,0,1,.2-.324" transform="translate(-80.854 -25.702)" fill="#8e8e8f"/>
    <path id="패스_202" data-name="패스 202" d="M215.111,78.332h.029c-.034,0-.065,0-.1,0,.023,0,.045,0,.067,0" transform="translate(-76.01 -27.686)" fill="#8e8e8f"/>
    <path id="패스_203" data-name="패스 203" d="M215.305,78.333l.048,0-.16,0Z" transform="translate(-76.062 -27.687)" fill="#8e8e8f"/>
    <path id="패스_204" data-name="패스 204" d="M183.038,64.85l-.009,0c-.03-.005-.059-.011-.091-.014h-.012c-.053-.005-.111-.006-.17-.008h-.067c-.052,0-.1,0-.148.007h0a.48.48,0,0,0-.055.005l-.043.007a.785.785,0,0,0-.606.771v4.392a1.406,1.406,0,0,1-.027.322c-.028.092-.078.138-.153.138-.091,0-.2-.078-.316-.23a5.5,5.5,0,0,1-.387-.586q-.635-1.1-1.42-2.4-.661-1.08-1.173-1.918a1,1,0,0,0-.442-.4,2.987,2.987,0,0,0-.937-.1c-.055,0-.1,0-.155.006a1.74,1.74,0,0,0-.783.178.566.566,0,0,0-.061.041.784.784,0,0,0-.242.564V72.8a.785.785,0,0,0,.575.76l.021.008c.031,0,.06.01.092.014h.012c.052.005.111.006.169.008h.069l.04,0,.087,0h.02l.016,0,.043,0,.043-.007a.784.784,0,0,0,.606-.766v0l.009-5.081c0-.142.142-.2.239-.2a.371.371,0,0,1,.263.125,2.2,2.2,0,0,1,.262.379q.316.586.978,1.713.373.666,1.159,2.011l.773,1.321a1.28,1.28,0,0,0,.593.449,2.5,2.5,0,0,0,.717.07h.152l.034,0h.041c.053,0,.1,0,.151-.006a.452.452,0,0,0,.06-.006l.044-.006.054-.017a.788.788,0,0,0,.566-.753V65.614a.785.785,0,0,0-.588-.765" transform="translate(-62.116 -22.912)" fill="#8e8e8f"/>
    <path id="패스_205" data-name="패스 205" d="M210.337,65.526a3.629,3.629,0,0,0-2.289-.665H205.1a1.488,1.488,0,0,0-1.049.356,1.2,1.2,0,0,0-.345.884v6.807a.788.788,0,0,0,.575.755.358.358,0,0,0,.035.011c.03.005.061.011.093.015h.012c.05.005.1.006.156.007.009,0,.016,0,.027,0h.06c.052,0,.1,0,.153-.007a.433.433,0,0,0,.059-.006.419.419,0,0,0,.044-.007.209.209,0,0,0,.034-.01.789.789,0,0,0,.586-.759V70.951a1.037,1.037,0,0,1,.179-.666.812.812,0,0,1,.663-.253h1.805a3.3,3.3,0,0,0,2.289-.712,2.428,2.428,0,0,0,.758-1.907,2.249,2.249,0,0,0-.9-1.886m-1.517,3.138a2.858,2.858,0,0,1-1.752.414,2.911,2.911,0,0,1-1.239-.172.656.656,0,0,1-.29-.633V66.687a.776.776,0,0,1,.262-.678,2.435,2.435,0,0,1,1.186-.2,3.281,3.281,0,0,1,1.752.367,1.313,1.313,0,0,1,.579,1.2,1.537,1.537,0,0,1-.5,1.287" transform="translate(-72.001 -22.926)" fill="#8e8e8f"/>
    <path id="패스_206" data-name="패스 206" d="M257.552,64.885c-.03,0-.061-.012-.093-.014h-.011c-.056,0-.115-.007-.175-.008H257.2c-.053,0-.1,0-.151.007l-.061.006c-.016,0-.03.005-.044.007a.789.789,0,0,0-.621.771v4.8a2.823,2.823,0,0,1-.442,1.748,1.628,1.628,0,0,1-1.393.586,1.6,1.6,0,0,1-1.406-.586,3.217,3.217,0,0,1-.359-1.748v-4.8a.789.789,0,0,0-.745-.786c-.034,0-.065,0-.1,0h-.07a2.008,2.008,0,0,0-.323.028.787.787,0,0,0-.592.762v5.62a2.16,2.16,0,0,0,.992,1.85,3.456,3.456,0,0,0,.841.429,5.375,5.375,0,0,0,1.794.273,6.075,6.075,0,0,0,1.806-.239,3.061,3.061,0,0,0,.939-.463,2.158,2.158,0,0,0,.9-1.85v-5.62a.788.788,0,0,0-.61-.767" transform="translate(-88.682 -22.926)" fill="#8e8e8f"/>
    <path id="패스_207" data-name="패스 207" d="M244.818,69.758a.8.8,0,0,0-.209-.575,1,1,0,0,0-.745-.265H241.1a.426.426,0,0,0-.252.084.448.448,0,0,0-.171.252c0,.017,0,.033-.005.051v.008a.891.891,0,0,0,0,.1v.039a.686.686,0,0,0,0,.082.144.144,0,0,0,0,.034.1.1,0,0,0,0,.024.46.46,0,0,0,.085.176.429.429,0,0,0,.338.166h1.034a1.163,1.163,0,0,1,.5.128c.213.139.317.471.317,1a1.481,1.481,0,0,1-.593,1.218,2.4,2.4,0,0,1-1.543.472,1.9,1.9,0,0,1-1.642-.92,4.741,4.741,0,0,1-.676-2.713,4.881,4.881,0,0,1,.566-2.527,1.989,1.989,0,0,1,1.779-1.023,2.458,2.458,0,0,1,1.379.332,1.689,1.689,0,0,1,.5.581v0l.012.024c.012.023.026.043.038.066a1.618,1.618,0,0,0,.235.321.68.68,0,0,0,.469.237s.912.113,1.027-.539a.969.969,0,0,0-.184-.671,3.013,3.013,0,0,0-.486-.488c-.048-.038-.1-.075-.147-.114a3.866,3.866,0,0,0-1.132-.551,5.15,5.15,0,0,0-1.515-.219,4.351,4.351,0,0,0-3.212,1.24,4.46,4.46,0,0,0-1.23,3.265,4.8,4.8,0,0,0,1.243,3.551,3.819,3.819,0,0,0,2.827,1.093,6.108,6.108,0,0,0,1.227-.1,3.137,3.137,0,0,0,.321-.083v0l0,0c.078-.024.154-.052.234-.083a1.38,1.38,0,0,1,.806.037.793.793,0,0,0,.334.171c.031.005.061.011.094.015h.014c.053.005.112.008.173.008h.069c.052,0,.1,0,.151-.006h.006a.794.794,0,0,0,.566-.172.5.5,0,0,0,.143-.3v0h0a.77.77,0,0,0,.01-.107Z" transform="translate(-83.627 -22.812)" fill="#8e8e8f"/>
    <path id="패스_208" data-name="패스 208" d="M154.928,69.376a4.975,4.975,0,0,0-1.03-.483,11.317,11.317,0,0,0-1.383-.38,4.389,4.389,0,0,1-1.614-.586,1.315,1.315,0,0,1-.428-1.091,1.355,1.355,0,0,1,.173-.7,1.941,1.941,0,0,1,1.455-.6,2.656,2.656,0,0,1,1.239.25c.048.027.1.054.14.083s.069.056.1.083a1.859,1.859,0,0,1,.463.673.185.185,0,0,0,.01.028c0,.009.007.016.01.024h0a.85.85,0,1,0,1.483-.823.91.91,0,0,0-.155-.175,3.431,3.431,0,0,0-.307-.283c-.048-.038-.1-.075-.148-.114a3.879,3.879,0,0,0-1.13-.551l-.022-.006-.048-.017a5.478,5.478,0,0,0-1.64-.242,4.135,4.135,0,0,0-2.7.816,2.386,2.386,0,0,0-.7.934,1.846,1.846,0,0,0-.123.664,2.134,2.134,0,0,0,1.007,1.885,1.977,1.977,0,0,0,.186.107,7.26,7.26,0,0,0,1.662.593l.318.082.207.048.137.03c.366.1.668.19.908.275a2.706,2.706,0,0,1,.54.244,1.135,1.135,0,0,1,.524,1.034,1.449,1.449,0,0,1-.267.909,1.819,1.819,0,0,1-.615.423,3.3,3.3,0,0,1-1.075.15,2.76,2.76,0,0,1-.856-.128,1.969,1.969,0,0,1-.456-.2,1.673,1.673,0,0,1-.34-.27,1.631,1.631,0,0,1-.325-.495h0a.145.145,0,0,0-.01-.025l-.022-.055a1.2,1.2,0,0,0-.169-.306.958.958,0,0,0-.142-.118.854.854,0,0,0-.5-.162.837.837,0,0,0-.348.076.852.852,0,0,0-.437,1.1l.006.013.034.066a.222.222,0,0,1,.014.018c.017.03.039.061.059.09l.016.024a2.508,2.508,0,0,0,1.033.889,5.761,5.761,0,0,0,2.608.506,5.49,5.49,0,0,0,1.978-.322,3.3,3.3,0,0,0,.739-.391,2.171,2.171,0,0,0,.979-1.872,1.971,1.971,0,0,0-1.034-1.724" transform="translate(-52.465 -22.787)" fill="#8e8e8f"/>
    <path id="패스_209" data-name="패스 209" d="M197.628,69.758a.8.8,0,0,0-.206-.575,1,1,0,0,0-.745-.265h-2.761a.433.433,0,0,0-.253.084.391.391,0,0,0-.175.3.011.011,0,0,0,0,.008c0,.029,0,.062,0,.1v.039c0,.028,0,.056,0,.082s0,.023,0,.034a.1.1,0,0,0,0,.024.435.435,0,0,0,.423.341h1.034a1.173,1.173,0,0,1,.5.128c.211.139.317.471.317,1a1.486,1.486,0,0,1-.593,1.218,2.413,2.413,0,0,1-1.546.472,1.9,1.9,0,0,1-1.64-.92,4.741,4.741,0,0,1-.675-2.713,4.875,4.875,0,0,1,.565-2.527,1.985,1.985,0,0,1,1.778-1.023,2.9,2.9,0,0,1,1.07.173,1.794,1.794,0,0,1,.863.9l0,.014,0,.008h0a.853.853,0,0,0,.786.528.867.867,0,0,0,.37-.087.854.854,0,0,0,.482-.764.836.836,0,0,0-.139-.465.88.88,0,0,0-.157-.178,3.691,3.691,0,0,0-.293-.268l-.148-.114a3.9,3.9,0,0,0-1.131-.551,5.173,5.173,0,0,0-1.518-.219,4.357,4.357,0,0,0-3.214,1.24,4.47,4.47,0,0,0-1.225,3.265,4.807,4.807,0,0,0,1.24,3.551,3.821,3.821,0,0,0,2.826,1.093,6.134,6.134,0,0,0,1.229-.1,3.082,3.082,0,0,0,.321-.083v0l.005,0c.076-.024.154-.052.233-.083a1.382,1.382,0,0,1,.806.037.81.81,0,0,0,.333.171c.032.005.061.011.1.015h.01c.055.005.114.008.175.008h.07c.052,0,.1,0,.15-.006h.009a.8.8,0,0,0,.565-.172.525.525,0,0,0,.143-.3v0h0a.783.783,0,0,0,.007-.107Z" transform="translate(-66.949 -22.812)" fill="#8e8e8f"/>
    <path id="패스_210" data-name="패스 210" d="M222.425,72.782l-1.26-3.3-.888-2.326a.232.232,0,0,1-.016-.034l-.534-1.392a1.5,1.5,0,0,0-.413-.643,1.583,1.583,0,0,0-.937-.23l-.059,0-.056,0a1.586,1.586,0,0,0-.939.23,1.508,1.508,0,0,0-.414.643l-.533,1.392c0,.012-.01.023-.014.034l-.89,2.326-1.261,3.3a.526.526,0,0,0,.317.766c.029.005.056.011.088.015h.011c.032,0,.069,0,.1,0s.062,0,.1,0l.16,0c.035,0,.07,0,.1,0l.063-.006.046-.007a1.314,1.314,0,0,0,.914-.769l.526-1.568a.827.827,0,0,1,.145-.206.979.979,0,0,1,.69-.219h1.686a.977.977,0,0,1,.689.219.845.845,0,0,1,.145.206l.524,1.568a1.32,1.32,0,0,0,.916.769l.047.007.063.006c.032,0,.069,0,.1,0l.16,0c.036,0,.065,0,.1,0s.074,0,.105,0h.011c.031,0,.059-.01.088-.015a.525.525,0,0,0,.316-.766m-3.03-3.228c0,.017-.008.034-.013.05a.3.3,0,0,1-.039.092l-.008.01a.2.2,0,0,1-.034.043.368.368,0,0,1-.062.051,1.938,1.938,0,0,1-.914.139h0a1.943,1.943,0,0,1-.914-.139.428.428,0,0,1-.062-.051.181.181,0,0,1-.034-.043l-.007-.01a.266.266,0,0,1-.04-.093.465.465,0,0,1-.01-.048.131.131,0,0,1,0-.028.8.8,0,0,1,.042-.312L217.8,67.7a1.83,1.83,0,0,1,.22-.459.38.38,0,0,1,.285-.137c.005,0,.01,0,.018,0h0c.007,0,.013,0,.018,0a.377.377,0,0,1,.284.137,1.728,1.728,0,0,1,.219.459l.509,1.517a.821.821,0,0,1,.042.314c0,.008,0,.017,0,.025" transform="translate(-75.695 -22.925)" fill="#8e8e8f"/>
    <path id="패스_211" data-name="패스 211" d="M48.574,58.842a4.131,4.131,0,0,0,3.18,2.933l.027.007c2.11.573,3.4,1.339,3.4,2.181,0,1.42-3.673,2.624-8.772,3.053a38.482,38.482,0,0,1-8.057,0c-5.1-.429-8.773-1.633-8.773-3.053,0-.842,1.289-1.607,3.4-2.181L33,61.775a4.136,4.136,0,0,0,3.182-2.933C15.995,59.521,0,63.378,0,68.077c0,4.981,19.2,9.716,42.273,9.752h.21c23.069-.036,42.273-4.771,42.273-9.752,0-4.7-15.992-8.556-36.182-9.235" transform="translate(0 -20.798)" fill="#004295"/>
    <path id="패스_212" data-name="패스 212" d="M61.067,3.994c4.537,0,8.215-.892,8.215-2S65.6,0,61.067,0s-8.21.894-8.21,2,3.675,2,8.21,2" transform="translate(-18.683 0)" fill="#008945" fill-rule="evenodd"/>
    <path id="패스_213" data-name="패스 213" d="M58.672,34.254c-1.774,0-3.506.036-5.177.1,2.349-.641,3.728-1.415,3.728-2.253,0-2.2-9.525-3.985-21.276-3.985S14.68,29.9,14.68,32.1s9.524,3.984,21.267,3.984c.961,0,1.907-.012,2.831-.036-3.549.83-5.676,1.881-5.676,3.031,0,2.665,11.446,4.826,25.569,4.826S84.24,41.744,84.24,39.079s-11.445-4.826-25.568-4.826" transform="translate(-5.189 -9.938)" fill="#008945" fill-rule="evenodd"/>
    <path id="패스_214" data-name="패스 214" d="M64.78,14.007c-1.708,0-3.354.045-4.91.129,2.149-.507,3.468-1.173,3.468-1.907,0-1.574-5.973-2.85-13.34-2.85s-13.342,1.276-13.342,2.85S42.627,15.074,50,15.074c.684,0,1.354-.014,2.007-.036-2.7.546-4.353,1.263-4.353,2.051,0,1.7,7.669,3.084,17.128,3.084S81.9,18.795,81.9,17.09s-7.667-3.083-17.123-3.083" transform="translate(-12.956 -3.315)" fill="#008945" fill-rule="evenodd"/>
    <path id="패스_215" data-name="패스 215" d="M144.907,29.535a4.542,4.542,0,0,0,1.693-.253,3.074,3.074,0,0,0,1.36-1.078l.668-.894a33.4,33.4,0,0,1,3.359-3.939,4.208,4.208,0,0,1,2.749-.864,5.2,5.2,0,0,1,1.582.2,3.964,3.964,0,0,1,1.361.776,14.268,14.268,0,0,1,1.526,1.636c.391.48,1.112,1.419,2.167,2.8l.193.253a2.979,2.979,0,0,0,1.307,1.055,4.665,4.665,0,0,0,1.748.25,1.105,1.105,0,0,0,.89-.306.984.984,0,0,0,.25-.723c0-.33-.7-1.359-2.11-3.078q-1.834-2.254-3.693-4.247a2.491,2.491,0,0,0-1.471-.744,23.9,23.9,0,0,0-3.749-.2,25.719,25.719,0,0,0-3.665.166,2.6,2.6,0,0,0-1.554.774A54.3,54.3,0,0,0,145.8,25.4c-1.353,1.722-2.028,2.755-2.028,3.109a1.056,1.056,0,0,0,.222.722,1.189,1.189,0,0,0,.916.307" transform="translate(-50.816 -7.135)" fill="#1a1311"/>
    <path id="패스_216" data-name="패스 216" d="M162.879,44.272a15.389,15.389,0,0,0-7.6-1.581,15.6,15.6,0,0,0-7.678,1.581c-1.626.967-2.44,2.167-2.44,3.614q0,2.116,2.44,3.532a15.26,15.26,0,0,0,7.678,1.611,15.059,15.059,0,0,0,7.6-1.611q2.469-1.421,2.467-3.532c0-1.446-.821-2.647-2.467-3.614M159.5,50.081a8.153,8.153,0,0,1-4.215.975,8.269,8.269,0,0,1-4.267-.975,2.6,2.6,0,0,1-1.526-2.195,2.635,2.635,0,0,1,1.526-2.248,9.717,9.717,0,0,1,8.482,0,2.635,2.635,0,0,1,1.523,2.248,2.6,2.6,0,0,1-1.523,2.195" transform="translate(-51.31 -15.09)" fill="#1a1311"/>
    <path id="패스_217" data-name="패스 217" d="M166.046,35.47a.74.74,0,0,0-.741-.738h-7.751a1.479,1.479,0,0,1-1.477-1.48v-.806c-.008-.094-.011-.195-.011-.295a1.389,1.389,0,0,0-.057-.4,1.48,1.48,0,0,0-1.469-1.307h-.834a1.476,1.476,0,0,0-1.44,1.15v1.657a1.415,1.415,0,0,1-.04.332,1.48,1.48,0,0,1-1.44,1.148h-8.046a.738.738,0,0,0-.74.738v.7a.74.74,0,0,0,.74.739h22.564a.742.742,0,0,0,.741-.739V36.1a.967.967,0,0,0,.045-.281.945.945,0,0,0-.045-.275Z" transform="translate(-50.192 -10.761)" fill="#1a1311"/>
    <path id="패스_218" data-name="패스 218" d="M252.7,32.169h-.257a1.482,1.482,0,0,1-1.315-1.474V23.78a2.353,2.353,0,0,0-.779-1.839,3.169,3.169,0,0,0-2.2-.722H231.636a.739.739,0,0,0-.741.74v.7a.74.74,0,0,0,.741.742h14.086a1.48,1.48,0,0,1,1.479,1.479V25.7c0,.019,0,.039,0,.063s0,.049,0,.07V30.7a1.479,1.479,0,0,1-1.479,1.481H229.926a.737.737,0,0,0-.643.729v.7a.736.736,0,0,0,.74.735h6.813c.047,0,.089.008.135.008.029,0,.059-.008.092-.008h.9a1.481,1.481,0,0,1,1.479,1.481V43.25a1.48,1.48,0,0,0,1.482,1.479h.31c.016,0,.027,0,.041,0s.017,0,.023,0h.469a1.478,1.478,0,0,0,1.481-1.479V35.825a1.481,1.481,0,0,1,1.48-1.481h.907a.221.221,0,0,1,.054.008.481.481,0,0,1,.08-.008H252.7a.74.74,0,0,0,.742-.735v-.7a.74.74,0,0,0-.742-.736" transform="translate(-81.043 -7.5)" fill="#1a1311"/>
    <path id="패스_219" data-name="패스 219" d="M211.173,26.6h-1.929a1.479,1.479,0,0,1-1.48-1.482V21.487a1.48,1.48,0,0,0-1.481-1.478h-.371a.352.352,0,0,0-.066,0,.433.433,0,0,0-.069,0h-.337a1.479,1.479,0,0,0-1.48,1.478V35.182a2.034,2.034,0,0,1-.032.35V35.6a1.48,1.48,0,0,1-1.479,1.483h-1.085a1.478,1.478,0,0,1-1.464-1.27V24.888a1.482,1.482,0,0,1,1.482-1.481h.141s.005,0,.01,0a.74.74,0,0,0,.671-.734v-.7a.743.743,0,0,0-.742-.741H186.144a.739.739,0,0,0-.738.741v.7a.737.737,0,0,0,.669.734.016.016,0,0,1,.01,0h.141a1.482,1.482,0,0,1,1.481,1.481V35.911a1.479,1.479,0,0,1-1.481,1.477h-.344a.755.755,0,0,0-.74.741v.7a.741.741,0,0,0,.74.74h16.6a1.479,1.479,0,0,1,1.481,1.477v1.706a1.48,1.48,0,0,0,1.305,1.466,2.866,2.866,0,0,0,.581.054,2.972,2.972,0,0,0,.528-.047,1.48,1.48,0,0,0,1.39-1.473V30.262a1.481,1.481,0,0,1,1.48-1.48h1.929a.739.739,0,0,0,.737-.74v-.7a.739.739,0,0,0-.737-.74m-14.855-.817V35.911a1.446,1.446,0,0,1-.019.235c0,.007,0,.022-.005.032-.016.074-.036.143-.054.214,0,.009-.01.021-.016.036a1.678,1.678,0,0,1-.091.2s-.006,0-.006.008a2.084,2.084,0,0,1-.13.191l-.005,0a1.435,1.435,0,0,1-.162.169l-.01.013a1.541,1.541,0,0,1-.648.334,1.607,1.607,0,0,1-.352.04h-2.052a1.578,1.578,0,0,1-.269-.03.484.484,0,0,1-.049-.01c-.032-.007-.065-.014-.1-.025a1.517,1.517,0,0,1-.5-.253v0a1.512,1.512,0,0,1-.182-.17c-.005,0-.008-.011-.014-.015a1.45,1.45,0,0,1-.145-.192.086.086,0,0,1-.015-.026,1.122,1.122,0,0,1-.1-.208c0-.01-.008-.021-.011-.033a1.374,1.374,0,0,1-.066-.23.058.058,0,0,0-.005-.022,1.612,1.612,0,0,1-.025-.261V24.888a1.491,1.491,0,0,1,1.5-1.481h2.037a1.49,1.49,0,0,1,1.5,1.481Z" transform="translate(-65.44 -7.071)" fill="#1a1311"/>
  </g>
</svg>
