<svg xmlns="http://www.w3.org/2000/svg" xmlns:xlink="http://www.w3.org/1999/xlink" width="177.45" height="30.496" viewBox="0 0 177.45 30.496">
  <defs>
    <clipPath id="clip-path">
      <rect id="사각형_169" data-name="사각형 169" width="177.45" height="30.496" fill="none"/>
    </clipPath>
  </defs>
  <g id="그룹_165" data-name="그룹 165" transform="translate(0 0)">
    <g id="그룹_164" data-name="그룹 164" transform="translate(0 0.001)" clip-path="url(#clip-path)">
      <path id="사각형_165" data-name="사각형 165" d="M4.382,0H30.031a4.382,4.382,0,0,1,4.382,4.382V26.037a4.381,4.381,0,0,1-4.381,4.381H4.381A4.381,4.381,0,0,1,0,26.037V4.382A4.382,4.382,0,0,1,4.382,0Z" transform="translate(0.039 0.039)" fill="#fff"/>
      <path id="사각형_166" data-name="사각형 166" d="M4.382,0H30.031a4.382,4.382,0,0,1,4.382,4.382V26.037a4.381,4.381,0,0,1-4.381,4.381H4.381A4.381,4.381,0,0,1,0,26.037V4.382A4.382,4.382,0,0,1,4.382,0Z" transform="translate(0.039 0.039)" fill="none" stroke="#1a1311" stroke-width="0.148"/>
      <path id="패스_522" data-name="패스 522" d="M20.3,12.693c-5.411,1.773-8.776,5.151-7.975,8.061.413,1.5,1.929,2.547,4.062,3.035a10.927,10.927,0,0,0,1.585.312l2.375-5.976.5,5.914a11.943,11.943,0,0,0,3.351-.653L22.175,8.439Zm-3.251,7.636v0c-1.253-.486-1.88-1.138-2.019-1.906C14.7,16.57,17.515,14.508,20,13.484Z" transform="translate(-5.737 -3.966)" fill="#00531d"/>
      <path id="패스_523" data-name="패스 523" d="M43.721,14.58c-.628-2.281-3.476-3.364-7.424-3.3L35.755,7.97l-2.619,6.635.43,3.257.772-1.944L35.4,22.867c5.451-1.765,9.124-5.364,8.319-8.288m-5.943,3.406-.119.059-1.192-6.132c2.385-.041,3.926.555,4.258,2,.311,1.358-.885,2.949-2.946,4.071" transform="translate(-15.571 -3.746)" fill="#0091bf"/>
      <rect id="사각형_167" data-name="사각형 167" width="0.73" height="3.882" transform="translate(23.393 22.272)" fill="#1a1311"/>
      <path id="패스_524" data-name="패스 524" d="M24.33,42.013l0,1.335h-.917v.386h.917V45.9h.729V42.013Z" transform="translate(-11.003 -19.743)" fill="#1a1311"/>
      <path id="패스_525" data-name="패스 525" d="M35.631,43.349h-.523V42.017h-.73V45.9h.73V43.737h.523Z" transform="translate(-16.155 -19.745)" fill="#1a1311"/>
      <path id="패스_526" data-name="패스 526" d="M39.808,43.318v-.789h.959v-.374h-.959v-.311h-.774v.311h-.981v.374h.981v.958c0,.763-.382,1.658-1.123,1.77l.242.536a1.642,1.642,0,0,0,1.259-1.055s.6,1.044,1.35,1.055l.222-.485s-1.187-.262-1.176-1.991" transform="translate(-17.815 -19.664)" fill="#1a1311"/>
      <path id="패스_527" data-name="패스 527" d="M50.734,43.951a.532.532,0,0,0,.225-.505v-.851a.449.449,0,0,0-.507-.446h-3.1v.373h2.823v1.093c0,.237-.062.327-.219.338l-.113,0h-2.8v.472h1.681v1.536h.78V44.426h1.714v-.472Z" transform="translate(-22.108 -19.807)" fill="#1a1311"/>
      <path id="패스_528" data-name="패스 528" d="M12.994,42.178H10.42v1.468s.008.322.419.322H13v-.423l-1.913,0v-.983h1.909Z" transform="translate(-4.897 -19.821)" fill="#1a1311"/>
      <path id="패스_529" data-name="패스 529" d="M17.278,42.711h-.6v-.686h-.734v1.968h.734v-.9h.6Z" transform="translate(-7.494 -19.749)" fill="#1a1311"/>
      <path id="패스_530" data-name="패스 530" d="M10.693,47.35a.451.451,0,0,0,.509.447h3.007V47.37H11.478v-.289h2.73V45.953H10.695v.428h2.857v.273H10.693Z" transform="translate(-5.025 -21.595)" fill="#1a1311"/>
      <path id="패스_531" data-name="패스 531" d="M29.394,42.725v.959c0,.763-.382,1.658-1.123,1.77l.242.536a1.645,1.645,0,0,0,1.26-1.055s.6,1.044,1.349,1.055l.222-.485s-1.187-.262-1.176-1.991v-.871h.957v-.381H28.476v.381h.917Z" transform="translate(-13.285 -19.86)" fill="#1a1311"/>
      <path id="패스_532" data-name="패스 532" d="M19.759,42.092v1.477c0,.764-.274,1.694-1.015,1.806l.242.535a1.676,1.676,0,0,0,1.188-1.085,1.772,1.772,0,0,0,1.421,1.085l.222-.485A1.793,1.793,0,0,1,20.532,43.4V42.092Z" transform="translate(-8.808 -19.78)" fill="#1a1311"/>
      <path id="패스_533" data-name="패스 533" d="M290.93,14.223l.008,5.062H287.46v1.462h3.478v8.209H293.7l0-14.733Z" transform="translate(-135.084 -6.684)" fill="#1a1311"/>
      <path id="패스_534" data-name="패스 534" d="M318.881,21.57a2.02,2.02,0,0,0,.854-1.914V16.427c.024-1.034-.779-1.689-1.924-1.692v0H306.053v1.415l10.705,0V20.29c.016.9-.236,1.24-.832,1.28l-.429.011h-10.6v1.793h6.377v5.833h2.955V23.374h6.5V21.581Z" transform="translate(-143.277 -6.924)" fill="#1a1311"/>
      <path id="패스_535" data-name="패스 535" d="M249.9,14.848l-9.76,0v5.568s.032,1.219,1.589,1.219l8.187,0v-1.6l-7.254.005V16.316l7.239-.005Z" transform="translate(-112.847 -6.978)" fill="#1a1311"/>
      <path id="패스_536" data-name="패스 536" d="M266.144,16.873h-2.261v-2.6H261.1v7.463h2.784v-3.4h2.261Z" transform="translate(-122.696 -6.706)" fill="#1a1311"/>
      <path id="패스_537" data-name="패스 537" d="M241.178,34.459a1.71,1.71,0,0,0,1.929,1.7h11.4V34.536H244.155v-1.1h10.352V29.164H241.185v1.619h10.833v1.038h-10.84Z" transform="translate(-113.335 -13.705)" fill="#1a1311"/>
      <path id="패스_538" data-name="패스 538" d="M273.595,14.525v5.6c0,2.894-1.035,6.423-3.846,6.847L270.666,29s2.862-.366,4.5-4.113A6.715,6.715,0,0,0,280.559,29l.84-1.838s-5.177-1.04-4.87-7.684V14.525Z" transform="translate(-126.761 -6.826)" fill="#1a1311"/>
      <path id="패스_539" data-name="패스 539" d="M190.384,14.234v2.588h-1.86v1.426h1.86v.81h-1.865l0,1.394,1.87.012v2.2H193.1V14.234Z" transform="translate(-88.587 -6.689)" fill="#1a1311"/>
      <path id="패스_540" data-name="패스 540" d="M185.445,37.178V31.561H172.231V33.33h10.312v3.848Z" transform="translate(-80.935 -14.831)" fill="#1a1311"/>
      <path id="패스_541" data-name="패스 541" d="M174.805,14.634a4.418,4.418,0,0,0-4.611,4.194,4.633,4.633,0,0,0,9.224,0,4.419,4.419,0,0,0-4.613-4.194m-.012,6.889c-1.106,0-2-1.2-2-2.675s.9-2.675,2-2.675,2,1.2,2,2.675-.9,2.675-2,2.675" transform="translate(-79.978 -6.877)" fill="#1a1311"/>
      <path id="패스_542" data-name="패스 542" d="M222.315,14.177V29.164H225l0-14.987Z" transform="translate(-104.471 -6.663)" fill="#1a1311"/>
      <path id="패스_543" data-name="패스 543" d="M202.8,14.549v6.068c0,2.815-1.006,6.244-3.739,6.658l.892,1.975s2.784-.356,4.378-4a6.53,6.53,0,0,0,5.24,4l.817-1.788s-5.033-1.009-4.735-7.471V14.549Z" transform="translate(-93.542 -6.837)" fill="#1a1311"/>
      <path id="패스_544" data-name="패스 544" d="M151.26,17.207V13.989H148.4v5.892h-2.593a1.938,1.938,0,0,0,.735-1.766V15.879c.024-.988-.745-1.613-1.838-1.616v0h-7.943v1.462l6.935,0v2.49l-.05.5c.013.688,0,.891-.446,1.17h-1.493V17.81h-2.825v2.071h-2.945v1.714H148.4v.88h2.855V18.618h1.9V17.207Z" transform="translate(-63.882 -6.574)" fill="#1a1311"/>
      <path id="패스_545" data-name="패스 545" d="M144.888,29.177c-4.483,0-7.107,1.6-7.107,3.569s3.064,3.57,6.843,3.57,6.844-1.6,6.844-3.57-2.8-3.569-6.58-3.569m-.255,5.319c-2.174,0-3.937-.784-3.937-1.75S142.458,31,144.633,31s3.936.783,3.936,1.75-1.763,1.75-3.936,1.75" transform="translate(-64.747 -13.711)" fill="#1a1311"/>
      <path id="패스_546" data-name="패스 546" d="M118.625,21.036a1.935,1.935,0,0,0,.82-1.836V16.309c.024-.99-.746-1.618-1.843-1.621v0l-11.429,0v1.356H116.59V19.81c.015.861-.226,1.188-.8,1.227l-.413.011H105.063v1.72h6.266v6.371h2.834V22.767h6.355l-.022-1.742Z" transform="translate(-49.372 -6.901)" fill="#1a1311"/>
      <path id="패스_547" data-name="패스 547" d="M94.907,14.165v5.92H93.88v-5.92H91.423V28.975H93.88V21.5h1.027v7.48h2.458V14.165Z" transform="translate(-42.962 -6.657)" fill="#1a1311"/>
      <path id="패스_548" data-name="패스 548" d="M74.644,15.647v11.61a1.63,1.63,0,0,0,1.839,1.617H82.26v-1.75H77.418l.03-11.477Z" transform="translate(-35.076 -7.353)" fill="#1a1311"/>
      <rect id="사각형_168" data-name="사각형 168" width="6.955" height="1.753" transform="translate(40.238 8.283)" fill="#1a1311"/>
    </g>
  </g>
</svg>
