<svg xmlns="http://www.w3.org/2000/svg" xmlns:xlink="http://www.w3.org/1999/xlink" width="135.296" height="65.728" viewBox="0 0 135.296 65.728">
  <defs>
    <clipPath id="clip-path">
      <rect id="사각형_145" data-name="사각형 145" width="135.296" height="45.382" fill="none"/>
    </clipPath>
    <clipPath id="clip-path-2">
      <rect id="사각형_146" data-name="사각형 146" width="135.296" height="14.661" fill="none"/>
    </clipPath>
  </defs>
  <g id="그룹_146" data-name="그룹 146" transform="translate(-1007 -4200.536)">
    <g id="그룹_143" data-name="그룹 143" transform="translate(1007 4200.536)">
      <g id="그룹_142" data-name="그룹 142" clip-path="url(#clip-path)">
        <path id="패스_366" data-name="패스 366" d="M19.229,15.264h11.28L26.534,41.173c0,.04-1.049,11.6-13.9,11.179,0,0-9.625.646-12.107-6.74,0,0-1.191-3.491.02-9.4H10.592a41.346,41.346,0,0,0-.484,4.237s-.525,3.35,2.643,3.229c0,.02,2.28.161,2.6-2.986Z" transform="translate(0 -10.986)" fill="#0080cd"/>
        <path id="패스_367" data-name="패스 367" d="M137.745,26.368H148.38c-.222.081.363-11.179-11.4-13.943-11.361-2.664-21.369,4.217-23.084,15.356a28.585,28.585,0,0,0,.04,7.87,17.343,17.343,0,0,0,3.511,8.818c5.852,7.284,18.665,6.437,24.719,1.877,0,0,5.206-4.419,5.771-11.058H136.858c-.827,4.2-3.39,5.589-5.852,5.569a5.669,5.669,0,0,1-5.166-3.289c.161.222-2.381-4.137.04-11.441a9.367,9.367,0,0,1,3.027-3.955c2.7-1.856,7.627-1.534,8.6,2.3a10.679,10.679,0,0,1,.242,1.9" transform="translate(-81.792 -8.531)" fill="#0080cd"/>
        <path id="패스_368" data-name="패스 368" d="M250.946,15.264h11.239L256.6,52.352H245.155Z" transform="translate(-176.448 -10.986)" fill="#0080cd"/>
        <path id="패스_369" data-name="패스 369" d="M333.85,8.112c-.081-.121,7.466.383,7.849-8.112h18.806c-.282.282-.141,7.809,7.688,8.011,0,0,3.693,17.878-17.172,37.371,0-.02-20.057-17.212-17.172-37.27m11.2-4c-.545,5.589-6.921,7.2-6.921,7.143-.04,16.264,13.1,27.806,12.894,27.645,14.246-14.791,12.632-28.109,12.571-27.725-6.518-1.977-6.74-6.9-6.74-7.062Z" transform="translate(-240.081)" fill="#0080cd"/>
        <path id="패스_370" data-name="패스 370" d="M370.314,25.344a9.857,9.857,0,1,1-9.887,9.847,9.9,9.9,0,0,1,9.887-9.847M375.8,39.489a.84.84,0,0,1-.061-.626A3.7,3.7,0,0,1,376,38.42l.283-.02h.222a6.785,6.785,0,0,0,.767-2.845h-1.049A5.94,5.94,0,0,1,375.2,38.5l.262.565a3.221,3.221,0,0,0,.1.424.709.709,0,0,1,.161.1.439.439,0,0,1,.081-.1m1.513-.908.1.061c.182.121.323.383.182.484a2.426,2.426,0,0,1-.807.363,7.693,7.693,0,0,1-.807,1.009l.868.868a8.915,8.915,0,0,0,2.462-5.811h-1.231a7.623,7.623,0,0,1-.767,3.027m-5.791-1.513-.262-.262-.242.121c-.081.02-.141-.141-.161-.222a.866.866,0,0,1,0-.323l-.282-.262v1.594l.1-.02c.222-.061.4-.161.323-.383l.242-.121a.707.707,0,0,1,.282-.121m-.948,2.664v.545a5.283,5.283,0,0,0,1.13-.182,3.064,3.064,0,0,1-1.13-.363m2.744.545a5.874,5.874,0,0,1-2.744.807v1.049a6.811,6.811,0,0,0,4.016-1.453v-.04c.04-.04-.262-.383-.4-.343a4.294,4.294,0,0,1-.868-.02m1.251-2.26a5,5,0,0,0,.848-2.462h-.706a1.582,1.582,0,0,1-.383.424,3.635,3.635,0,0,1-.343,1.029l.081.424a.908.908,0,0,0,.424.525Zm-8.233-1.877a5.045,5.045,0,0,1-.1-.585h-1.009a5.184,5.184,0,0,0,.121.807l.222-.04a.757.757,0,0,1,.222-.02c.04,0-.04-.121-.061-.161l-.02-.2c-.04-.141.262.1.4.141.081.02.141.04.222.061m-1.453,1.412a6.022,6.022,0,0,1-.464-2h-1.069a6.9,6.9,0,0,0,1.8,4.318l.666-.646h-.343a2.375,2.375,0,0,1-.989-.807.581.581,0,0,1-.061-.323c0-.1.323-.3.464-.5Zm2.24,1.614a5.018,5.018,0,0,0,2.724,1.09V39.247a4.021,4.021,0,0,1-1.594-.525,3.02,3.02,0,0,0-.969.061l-.182.161Zm1.816-4.318a1.054,1.054,0,0,1-.283-.646l-.242-.242c-.04.525.02.686-.484.222a2.007,2.007,0,0,1-.061-.3.814.814,0,0,1,.141-.323l-.383-.383a3.31,3.31,0,0,0-.666,1.675Zm2.139-.888a1.484,1.484,0,0,1,.182-1.17,2.9,2.9,0,0,0,.2-.747,3.309,3.309,0,0,0-.888-.182v2.6Zm1.191-2.341c.161-.02.323-.1.484-.04.161.04.262.2.383.323l.545-.525a5.2,5.2,0,0,0-3.107-1.251v1.009a4.024,4.024,0,0,1,1.7.484m1.251.948.081.141.02.081a4.7,4.7,0,0,1,.4.686h.02c.262.323.989.868.989,1.372h.383a4.922,4.922,0,0,0-1.231-2.946Zm-3.672.726a2.06,2.06,0,0,0-.585-.222c-.121,0-.323.04-.3.161,0,.141.182.242.323.262l.565.02Zm5.65-.928a6.02,6.02,0,0,1,.726,2.482h1.049a6.89,6.89,0,0,0-1.594-4.076h-.363l-.464.464,1.029,1.049c.02.04.02.121-.02.121a2.223,2.223,0,0,1-.363-.04m-1.049-1.776.04-.04-.081-.969a6.847,6.847,0,0,0-3.834-1.312v1.049a6.054,6.054,0,0,1,2.6.726l.888.141c.081.02.04.182.1.242.061.081.2.061.242.121Zm-.121-2.058a1.419,1.419,0,0,1,.02-.585.158.158,0,0,1,.222,0,2.551,2.551,0,0,1,.605,1.211c.121.1.262.222.383.323l.868-.847a8.96,8.96,0,0,0-5.852-2.4v1.231a7.7,7.7,0,0,1,3.753,1.11Zm2.1,1.877a5.045,5.045,0,0,1,1.069.464c.081.04.061.182.061.262a.213.213,0,0,1-.121.141,2.7,2.7,0,0,1-.4.02,7.6,7.6,0,0,1,1.049,3.551h1.231a8.908,8.908,0,0,0-2.361-5.711l-.868.868c.121.141.222.262.343.4m-10.19,4.439a4.119,4.119,0,0,1,.888-2.179l-.726-.726a5.109,5.109,0,0,0-1.17,2.906Zm1.372-2.7a4.123,4.123,0,0,1,2.24-.989V30.126a5.244,5.244,0,0,0-2.946,1.291Zm2.24,6.376v-2.3l-1.614,1.614a3.312,3.312,0,0,0,1.614.686m-2.139-1.191,1.756-1.776h-2.5a3.5,3.5,0,0,0,.747,1.776m2.139,3.733a5.966,5.966,0,0,1-3.43-1.433l-.747.747a6.919,6.919,0,0,0,4.177,1.756Zm-5.428-6.215a5.754,5.754,0,0,1,1.412-3.471l-.747-.747a6.843,6.843,0,0,0-1.735,4.217Zm1.917-4a5.868,5.868,0,0,1,3.511-1.513V28.27a7.007,7.007,0,0,0-4.258,1.836ZM375.46,41a7.76,7.76,0,0,1-4.883,1.937v1.231a9,9,0,0,0,5.751-2.3Zm-5.61,1.937a7.825,7.825,0,0,1-4.742-2l-.868.868a8.881,8.881,0,0,0,5.61,2.341Zm-5.267-2.5a7.747,7.747,0,0,1-2.038-4.883h-1.231a9.054,9.054,0,0,0,2.4,5.751Zm-2.038-5.589a7.617,7.617,0,0,1,1.957-4.782l-.868-.868a8.816,8.816,0,0,0-2.321,5.65Zm2.462-5.307a7.9,7.9,0,0,1,4.843-2.078V26.252a8.968,8.968,0,0,0-5.711,2.421Z" transform="translate(-259.415 -18.241)" fill="#0080cd"/>
        <path id="패스_371" data-name="패스 371" d="M399.362,30.024a.276.276,0,1,1,0,.545c-.182,0-.343-.121-.343-.262a.318.318,0,0,1,.343-.283" transform="translate(-287.191 -21.61)" fill="#d4d5d5"/>
        <path id="패스_372" data-name="패스 372" d="M459.058,130.608v.444h-1.291v3.35h-.525v-3.35h-1.271v-.444Zm.767,0h.726l1.11,3.208,1.069-3.208h.747V134.4h-.5v-2.26a2.9,2.9,0,0,1,.02-.363v-.565L461.9,134.4h-.5l-1.11-3.188v.1a4.112,4.112,0,0,0,.02.444V134.4h-.484Z" transform="translate(-328.182 -94.004)" fill="#0080cd"/>
      </g>
    </g>
    <g id="그룹_145" data-name="그룹 145" transform="translate(1007 4251.603)">
      <g id="그룹_144" data-name="그룹 144" clip-path="url(#clip-path-2)">
        <path id="패스_373" data-name="패스 373" d="M687.028,8.278a12.425,12.425,0,0,0,4.831-5.639c.1-.256.179-.551.449-.551H693.9c.243,0,.308.243.4.474A9.578,9.578,0,0,0,699.28,8.3c.218.115.4.269.4.487V9.944c0,.192-.295.179-.461.115-2.909-1.077-4.575-3.242-5.972-5.665a.309.309,0,0,0-.525.051,10.9,10.9,0,0,1-5.613,5.5c-.205.077-.487.064-.487-.231l-.026-1.038c0-.205.231-.308.436-.4" transform="translate(-564.381 -1.716)" fill="#1a1311"/>
        <path id="패스_374" data-name="패스 374" d="M690.956,39.877c0-.1.038-.205.167-.205h1.628c.115,0,.179.064.179.205v3.934a.4.4,0,0,0,.448.449h5.011c.141,0,.231.051.218.167v1.025c0,.141-.051.231-.141.231H685.56c-.128,0-.192-.038-.192-.128v-1c0-.167.077-.243.218-.243l4.947-.013c.282,0,.41-.141.41-.423Z" transform="translate(-563.375 -32.611)" fill="#1a1311"/>
        <path id="패스_375" data-name="패스 375" d="M600.263,4.536a4.3,4.3,0,1,1-4.319,4.306,4.318,4.318,0,0,1,4.319-4.306m-.026,1.9a2.381,2.381,0,0,0-2.243,2.486,2.253,2.253,0,1,0,4.485,0,2.372,2.372,0,0,0-2.243-2.486" transform="translate(-489.868 -3.729)" fill="#1a1311"/>
        <path id="패스_376" data-name="패스 376" d="M605.3,2.37c0-.179.064-.282.167-.282h1.551c.192,0,.269.1.269.282V14.609c0,.167-.1.231-.269.231H605.7a.215.215,0,0,1-.231-.231v-.654c0-.423-.32-.538-.718-.154a1.305,1.305,0,0,1-.692.461h-9.368c-.231,0-.333-.115-.333-.308v-.833c.013-.244.115-.384.333-.372h9.843c.474-.013.769-.218.769-.7Z" transform="translate(-488.566 -1.716)" fill="#1a1311"/>
        <path id="패스_377" data-name="패스 377" d="M510.8,2.693c0-.167.064-.269.167-.269h1.551a.238.238,0,0,1,.269.269V14.945c0,.167-.1.231-.269.231H511.2c-.141,0-.244-.077-.231-.231l.013-.282a.432.432,0,0,0-.756-.295c-.243.205-.359.179-.666.231h-9.689a.294.294,0,0,1-.333-.32v-.82c.013-.243.115-.384.333-.384h3c.282,0,.513-.128.513-.41v-1a.358.358,0,0,0-.256-.359,4.067,4.067,0,0,1-3.332-3.729,3.423,3.423,0,0,1,.628-1.948l.026-.051c.269-.384.282-.782-.077-.782h-.449a.31.31,0,0,1-.333-.308V3.629c0-.179.077-.32.282-.32h3.063c.269,0,.4-.115.4-.372V2.475a.213.213,0,0,1,.243-.231l1.679-.013c.128,0,.179.115.179.295l-.013.359a.335.335,0,0,0,.384.384l3.255-.013c.205,0,.269.1.269.269v.961c0,.141-.218.179-.577.179h-.423c-.372,0-.436.231-.256.513a3.488,3.488,0,0,1,1,2.4,4.113,4.113,0,0,1-3.576,3.781.42.42,0,0,0-.167.333l.013.974a.389.389,0,0,0,.449.41h4.242c.474,0,.769-.205.769-.692Zm-6.369,2.243a2.424,2.424,0,0,0-2.268,2.538,2.281,2.281,0,1,0,4.537,0,2.424,2.424,0,0,0-2.268-2.538" transform="translate(-410.62 -1.835)" fill="#1a1311"/>
        <path id="패스_378" data-name="패스 378" d="M408.528,8.7c0-.282.115-.423.256-.423h1.32c.32,0,.487.077.487.359v4.575c0,.308.141.449.346.449l7.6.077c.525,0,.82-.154.82-.474v-.295a.294.294,0,0,0-.32-.333l-4.114-.013c-.192,0-.32-.09-.32-.269v-.7c.013-.154.064-.231.231-.231l4.127.013c.295,0,.423-.1.423-.256l.013-.32c0-.218-.154-.295-.346-.295h-4.075c-.243,0-.384-.064-.384-.243V9.6c0-.269.128-.4.359-.4h4.127c.205,0,.346-.077.346-.269V8.639a.263.263,0,0,1,.295-.269h1.512c.179,0,.269.115.269.308l-.077,11.368c0,.115-.051.179-.141.179h-11a1.242,1.242,0,0,1-1-1.077l.013-2.307c0-.218.09-.32.308-.32h1.423c.167-.013.231.064.231.179v1.7a.391.391,0,0,0,.449.436l7.177.013c.32,0,.5-.128.5-.436l-.026-3.127c-.064-.333-.256-.436-.564-.269a1.188,1.188,0,0,1-.436.167l-8.587-.026c-.756,0-1.217-1.141-1.217-1.294Z" transform="translate(-335.811 -6.806)" fill="#1a1311"/>
        <path id="패스_379" data-name="패스 379" d="M327.731,11.356a2.7,2.7,0,0,1,.026.32c0,2.23-2.256,4.05-5,4.05s-5-1.82-5-4.05c0-1.9,1.628-3.486,3.806-3.922.615-.167.871-.384.461-.7A7.9,7.9,0,0,1,320,4.679c-.218-.4-.5-.4-.692.013A7.668,7.668,0,0,1,315.5,8.537c-.218.1-.5.115-.5-.167V7.025l.077-.154a5.273,5.273,0,0,0,2.23-2.23c.295-.564.154-.73-.256-.73H315.3c-.141,0-.372-.051-.372-.308l.013-1a.232.232,0,0,1,.243-.256l2.948.013a.361.361,0,0,0,.41-.41V1.693c0-.231.141-.4.308-.4h1.576c.192,0,.231.256.231.487.013.308.167.513.4.525l2.794.051c.269,0,.372.115.372.346l-.013,1.012c0,.064-.1.154-.218.154l-1.871.026c-.141,0-.218.1-.218.256v.205c0,.346.295.525.692.564l2.922.038c.359-.064.423-.231.436-.513l.026-1.807c0-.141.1-.243.308-.243l1.32-.013c.192,0,.218.167.218.372ZM324.014,6.23c-.295,0-.346.32-.09.4l.192.064c.5.167.474.5.6,1.038.051.205.4.128.538.269.167.167.384.167.487-.038A1.314,1.314,0,0,0,325.9,7.4v-.73c0-.308-.128-.423-.4-.423Zm-1.32,2.832a2.674,2.674,0,1,0,2.768,2.678,2.73,2.73,0,0,0-2.768-2.678" transform="translate(-258.872 -1.065)" fill="#1a1311"/>
        <path id="패스_380" data-name="패스 380" d="M228.235,11.233a.929.929,0,0,0,1-.833l-.013-1.576c0-.359-.205-.436-.487-.436l-9.907-.051c-.192,0-.32-.1-.32-.282V7A.279.279,0,0,1,218.8,6.7l11.111.038a1.44,1.44,0,0,1,1.269,1.371l.038,2.256c0,.256-.551.5.051.833.154.09.333.064.333.243v.974a.234.234,0,0,1-.256.269l-5.139-.013c-.295,0-.436.167-.449.513l-.013.461a.432.432,0,0,0,.487.461l3.717.026a1.178,1.178,0,0,1,1.282,1.166l-.051,3.422a.225.225,0,0,1-.231.205h-1.435c-.205,0-.308-.1-.308-.282l.038-2.55c0-.372-.128-.538-.5-.538l-10.137-.013c-.256,0-.474-.038-.474-.295l.013-.936c0-.192.1-.32.282-.32l4.87.026c.308,0,.474-.128.474-.423v-.525a.306.306,0,0,0-.32-.333l-5.024-.051c-.231,0-.487-.026-.487-.308l.013-.91a.274.274,0,0,1,.308-.295Z" transform="translate(-179.151 -5.504)" fill="#1a1311"/>
        <path id="패스_381" data-name="패스 381" d="M119.359,8.663c-2.358,0-4.28-1.615-4.28-3.6a3.574,3.574,0,0,1,.09-.743c.013,0,.013-.013.013-.026a3.357,3.357,0,0,1,.41-.936.763.763,0,0,0,.077-.346c.013-.141-.1-.231-.359-.243s-.4-.09-.4-.333l.026-.936c0-.243.1-.346.256-.346l2.858-.013c.256,0,.384-.115.384-.333V.346a.31.31,0,0,1,.32-.346l1.474.013a.2.2,0,0,1,.218.218V.718c.013.295.141.474.4.474h2.96c.269,0,.4.064.4.282l-.013.961c0,.179-.064.256-.218.256l-.641.013a.3.3,0,0,0-.32.205.826.826,0,0,0-.038.256,2.991,2.991,0,0,1,.538,1.089c.026.077.051.141.064.192l-.013.013a3.1,3.1,0,0,1,.064.6c0,1.986-1.922,3.6-4.268,3.6m.064-5.677A2.019,2.019,0,1,0,121.474,5a2.04,2.04,0,0,0-2.051-2.012" transform="translate(-94.458)" fill="#1a1311"/>
        <path id="패스_382" data-name="패스 382" d="M128.755,6.849c-.013-.282.1-.423.308-.474l1.32-.038c.256.026.423.128.436.359v.243a.317.317,0,0,0,.333.359l.359.026a.719.719,0,0,1,.679.666l-.013.615c0,.154-.09.231-.218.218h-.769c-.295-.013-.41.256-.41.564l-.013,8.881c0,.167-.09.218-.282.218l-10.3.026c-.833,0-1.525-.474-1.525-1.153L118.669,15a.336.336,0,0,1,.295-.372l1.371-.013c.231-.013.346.141.359.372l.013,1.384c.013.333.077.564.436.551h7.215c.32,0,.423-.192.41-.461Z" transform="translate(-97.536 -5.208)" fill="#1a1311"/>
        <path id="패스_383" data-name="패스 383" d="M50.23,42.192c1.346,0,2.435.795,2.435,1.769s-1.089,1.781-2.435,1.781-2.422-.795-2.422-1.781,1.089-1.769,2.422-1.769m-.026.846a.93.93,0,1,0,1.089.923,1.014,1.014,0,0,0-1.089-.923" transform="translate(-39.298 -34.682)" fill="#1a1311"/>
        <path id="패스_384" data-name="패스 384" d="M56.21,43.1a.233.233,0,0,1,.205-.256l.718.013a.244.244,0,0,1,.205.295l.051,5.985a.285.285,0,0,1-.269.295l-5.652-.013c-.384,0-.551-.513-.564-.756l.013-1.461c0-.179.013-.308.243-.333l.743-.013c.167,0,.167.1.167.231v1.051a.423.423,0,0,0,.4.5l3.422.013c.269-.051.4-.192.359-.423Z" transform="translate(-41.843 -35.215)" fill="#1a1311"/>
        <path id="패스_385" data-name="패스 385" d="M47.461,1.8a.328.328,0,0,1,.295-.346L51.78,1.44c.115,0,.346.013.346.192l.026.449c0,.1-.128.128-.205.128l-2.935.013a.4.4,0,0,0-.41.41V3.824a.463.463,0,0,0,.449.4l3.05-.013c.154,0,.282.09.282.205V4.7a.241.241,0,0,1-.231.243H48.166c-.436-.013-.679-.295-.718-.846Z" transform="translate(-39.002 -1.184)" fill="#1a1311"/>
        <path id="패스_386" data-name="패스 386" d="M52.066,7.14a.419.419,0,0,1-.474-.449v-.6A.257.257,0,0,0,51.3,5.82h-.461c-.256-.013-.436.077-.436.282V7.217c0,.436.231.73.654.718l5.319-.013c.32,0,.436-.1.436-.333V3.3c0-.295.115-.41.282-.41h.474a.145.145,0,0,0,.167-.154V2.424c0-.128-.064-.205-.179-.205H57.09a.367.367,0,0,1-.372-.384l.013-.333c0-.128-.077-.205-.231-.205l-.449.013c-.218,0-.346.1-.346.32L55.693,6.7a.4.4,0,0,1-.449.436Z" transform="translate(-41.429 -1.065)" fill="#1a1311"/>
        <path id="패스_387" data-name="패스 387" d="M2.481,1.408a.26.26,0,0,1,.231-.243l.73-.013c.167,0,.269.1.32.295A5.52,5.52,0,0,0,5.7,6.189a.271.271,0,0,1,.013.346l-.282.256a.252.252,0,0,1-.295-.026A5.516,5.516,0,0,1,3.467,4.612a.327.327,0,0,0-.577,0A10.087,10.087,0,0,1,1.34,6.74a.211.211,0,0,1-.333.013L.7,6.432A.2.2,0,0,1,.674,6.2,6.794,6.794,0,0,0,2.481,1.408" transform="translate(-0.533 -0.947)" fill="#1a1311"/>
        <path id="패스_388" data-name="패스 388" d="M33.146,7.75,33.12,1.676c.013-.243.077-.282.243-.308H33.9c.128,0,.205.077.256.218v.256c.013.167.064.32.218.346.359.038.615.115.628.41l.013.218c0,.051-.038.141-.09.141h-.436a.322.322,0,0,0-.308.346V7.75c0,.128-.141.218-.295.218h-.461c-.141,0-.282-.09-.282-.218" transform="translate(-27.225 -1.125)" fill="#1a1311"/>
        <path id="패스_389" data-name="패스 389" d="M5.985,46.848c.038.372-.1.577-.41.577l-3.268.026a.411.411,0,0,1-.474-.423c-.013-.141-.064-.32-.218-.308H.82c-.179,0-.269.077-.269.243v1.781a.537.537,0,0,0,.577.577l5.69-.013c.192,0,.218-.09.218-.244.013-2,0-4,0-6a.212.212,0,0,0-.218-.269h-.6a.272.272,0,0,0-.231.282c0,.243-.1.384-.295.423h-.7c-.179.013-.308-.1-.359-.346A.354.354,0,0,0,4.46,42.8L3.9,42.786c-.192.038-.256.141-.282.346-.026.154-.179.244-.359.295L1.628,43.4a.351.351,0,0,1-.384-.295c.026-.256-.077-.4-.308-.41H.282a.3.3,0,0,0-.269.218L0,45.016a.8.8,0,0,0,.91.769l3.512-.026c.179,0,.269-.077.256-.244l-.026-.91c.026-.256.141-.461.372-.461h.513a.406.406,0,0,1,.449.372Zm-3.7,1.2H5.536c.243,0,.243.064.243.179l.013.154c0,.1-.141.141-.295.141h-3.2c-.167,0-.256-.051-.256-.167v-.154c0-.077.013-.154.243-.154M1.628,44.17H3.153c.205,0,.372.077.372.256v.282c0,.1-.141.167-.256.167l-1.538.013c-.231,0-.384-.09-.384-.218v-.32c0-.128.128-.167.282-.179" transform="translate(0 -35.096)" fill="#1a1311"/>
      </g>
    </g>
  </g>
</svg>
