<svg xmlns="http://www.w3.org/2000/svg" xmlns:xlink="http://www.w3.org/1999/xlink" width="143.708" height="52.718" viewBox="0 0 143.708 52.718">
  <defs>
    <clipPath id="clip-path">
      <rect id="사각형_171" data-name="사각형 171" width="143.709" height="52.718" fill="none"/>
    </clipPath>
  </defs>
  <g id="그룹_167" data-name="그룹 167" transform="translate(0 0)">
    <g id="그룹_166" data-name="그룹 166" transform="translate(0 0)" clip-path="url(#clip-path)">
      <path id="패스_549" data-name="패스 549" d="M111.511,35.533a1.74,1.74,0,1,0-3.48,0v4.733h-4.076V35.533a1.741,1.741,0,1,0-3.481,0v16.6a6.885,6.885,0,1,0,11.038,0Zm-3.48,8.215v5.91a6.892,6.892,0,0,0-4.076,0v-5.91Zm-2.039,15.89a3.4,3.4,0,1,1,3.4-3.4,3.407,3.407,0,0,1-3.4,3.4" transform="translate(-33.405 -11.39)" fill="#2f2c2c"/>
      <path id="패스_550" data-name="패스 550" d="M136.322,54.61H136.3l-5.2.061-.023-1.437a1.741,1.741,0,1,0-3.481.055l.023,1.423-5.188.062a1.741,1.741,0,0,0,.02,3.481h.021l13.87-.164a1.74,1.74,0,0,0-.02-3.48" transform="translate(-40.686 -17.366)" fill="#2f2c2c"/>
      <path id="패스_551" data-name="패스 551" d="M133.36,64.056h-.054l-10.077.119a1.74,1.74,0,1,0,.04,3.48l10.077-.119h.013a1.12,1.12,0,0,1,1.118,1.105l.046,3.947a1.741,1.741,0,0,0,1.74,1.72h.021a1.741,1.741,0,0,0,1.721-1.761l-.046-3.947a4.6,4.6,0,0,0-4.6-4.545" transform="translate(-40.955 -21.591)" fill="#2f2c2c"/>
      <path id="패스_552" data-name="패스 552" d="M82.631,42.35H73.146a1.741,1.741,0,1,0,0,3.481h9.485a3.057,3.057,0,1,1-3.057,3.056,1.741,1.741,0,0,0-3.481,0,6.538,6.538,0,1,0,6.538-6.537" transform="translate(-24.067 -14.274)" fill="#2f2c2c"/>
      <path id="패스_553" data-name="패스 553" d="M80.439,37.529a1.869,1.869,0,1,0-1.868-1.868,1.869,1.869,0,0,0,1.868,1.868" transform="translate(-26.483 -11.39)" fill="#2f2c2c"/>
      <path id="패스_554" data-name="패스 554" d="M132.618,40.035a1.873,1.873,0,1,0-1.895-1.851,1.873,1.873,0,0,0,1.895,1.851" transform="translate(-44.06 -12.232)" fill="#2f2c2c"/>
      <path id="패스_555" data-name="패스 555" d="M130,43.483h.083a6.942,6.942,0,0,0,6.861-7.024l-.062-5.236a1.741,1.741,0,0,0-3.481.041l.062,5.237a3.461,3.461,0,1,1-6.923.08l-.062-5.236a1.741,1.741,0,0,0-3.481.042l.062,5.236A6.95,6.95,0,0,0,130,43.483" transform="translate(-41.455 -9.944)" fill="#2f2c2c"/>
      <path id="패스_556" data-name="패스 556" d="M208.828,38.259a1.917,1.917,0,0,0-1.917-1.917h-4.622a1.917,1.917,0,0,0,0,3.834h2.706v8.7a7.6,7.6,0,0,0-3.746-.982l-.19,0a7.583,7.583,0,0,0,.185,15.164l.19,0a7.588,7.588,0,0,0,7.307-6.483,1.889,1.889,0,0,0,.088-.543Zm-7.49,20.963h-.1a3.749,3.749,0,0,1-.089-7.5h.095a3.749,3.749,0,0,1,.09,7.5" transform="translate(-65.274 -12.249)" fill="#2f2c2c"/>
      <path id="패스_557" data-name="패스 557" d="M165.837,55.853H150.993a1.917,1.917,0,1,0,0,3.834h5.5v6.083a1.917,1.917,0,0,0,3.834,0V59.687h5.505a1.917,1.917,0,1,0,0-3.834" transform="translate(-50.246 -18.826)" fill="#2f2c2c"/>
      <path id="패스_558" data-name="패스 558" d="M150.744,44.986a1.916,1.916,0,0,0,2.67-.466l4.471-6.36a1,1,0,0,1,1.634,0l4.47,6.362a1.917,1.917,0,0,0,3.138-2.2l-4.471-6.362a4.833,4.833,0,0,0-7.908,0l-4.47,6.362a1.916,1.916,0,0,0,.466,2.671" transform="translate(-50.534 -11.426)" fill="#2f2c2c"/>
      <path id="패스_559" data-name="패스 559" d="M194.342,45.335a1.918,1.918,0,0,0,1.567-3.02l-4.471-6.361a4.833,4.833,0,0,0-7.908,0l-4.472,6.361A1.918,1.918,0,0,0,182.2,44.52l4.472-6.361a1,1,0,0,1,1.633,0l4.471,6.361a1.916,1.916,0,0,0,1.571.815" transform="translate(-60.235 -11.426)" fill="#2f2c2c"/>
      <path id="패스_560" data-name="패스 560" d="M14.527,50.336h-.168c-3.837,0-8.319-2.047-8.319-7.816a2.279,2.279,0,0,1,4.558,0c0,.876,0,3.176,3.568,3.256a3.706,3.706,0,0,0,3.1-3.75,3.765,3.765,0,0,0-3.4-3.675H2.279a2.279,2.279,0,0,1,0-4.558l12.055.018c2.591.324,7.494,2.458,7.494,8.215a8.275,8.275,0,0,1-7.135,8.286Z" transform="translate(0 -11.39)" fill="#128dc8"/>
      <path id="패스_561" data-name="패스 561" d="M13.638,26.9a2.276,2.276,0,1,1-2.276-2.276A2.276,2.276,0,0,1,13.638,26.9" transform="translate(-3.062 -8.301)" fill="#128dc8"/>
      <path id="패스_562" data-name="패스 562" d="M51.749,43.159a2.276,2.276,0,1,1-2.276-2.276,2.275,2.275,0,0,1,2.276,2.276" transform="translate(-15.908 -13.78)" fill="#1d8a80"/>
      <path id="패스_563" data-name="패스 563" d="M46.046,50.247a9.028,9.028,0,0,1-9.017-9.017V34.884a2.279,2.279,0,1,1,4.558,0v6.345a4.459,4.459,0,1,0,8.917,0V34.884a2.279,2.279,0,1,1,4.558,0v6.345a9.026,9.026,0,0,1-9.016,9.017" transform="translate(-12.481 -10.99)" fill="#1d8a80"/>
      <path id="패스_564" data-name="패스 564" d="M21.2,73.615a2.3,2.3,0,0,1-1.8-.872l-4.21-5.317a1.451,1.451,0,0,0-2.32,0l-4.21,5.317a2.3,2.3,0,1,1-3.6-2.853l4.21-5.318a6.017,6.017,0,0,1,9.527,0L23,69.89a2.3,2.3,0,0,1-1.8,3.725" transform="translate(-1.534 -20.976)" fill="#85ac16"/>
      <path id="패스_565" data-name="패스 565" d="M53.331,73.615a2.3,2.3,0,0,1-1.808-.872l-4.218-5.317a1.456,1.456,0,0,0-2.325,0l-4.22,5.317a2.3,2.3,0,0,1-3.61-2.853l4.22-5.318a6.036,6.036,0,0,1,9.546,0l4.218,5.318a2.3,2.3,0,0,1-1.8,3.725" transform="translate(-12.354 -20.976)" fill="#d3cd06"/>
      <path id="패스_566" data-name="패스 566" d="M53.946,8.53H46.328a.708.708,0,0,0-.561.207.8.8,0,0,0-.181.552.856.856,0,0,0,.173.528.626.626,0,0,0,.536.231h3.033v.676a.516.516,0,0,0,.265.511,1.232,1.232,0,0,0,.561.133,1.144,1.144,0,0,0,.577-.141.6.6,0,0,0,.247-.569v-.61h3a.627.627,0,0,0,.536-.231.856.856,0,0,0,.173-.528.805.805,0,0,0-.182-.552.707.707,0,0,0-.56-.207" transform="translate(-15.365 -2.875)" fill="#128dc8"/>
      <path id="패스_567" data-name="패스 567" d="M53,13.53H49.205a.917.917,0,0,0-.593.213.841.841,0,0,0-.264.693V17.5a.851.851,0,0,0,.272.709.927.927,0,0,0,.585.213H53a.9.9,0,0,0,.594-.222.868.868,0,0,0,.265-.7V14.437a.843.843,0,0,0-.265-.693A.918.918,0,0,0,53,13.53m-.725,3.132a.212.212,0,0,1-.115.207.626.626,0,0,1-.28.057h-1.55a.62.62,0,0,1-.28-.057.211.211,0,0,1-.116-.207V15.409q0-.247.116-.322a.515.515,0,0,1,.28-.074h1.55a.52.52,0,0,1,.28.074.363.363,0,0,1,.115.322Z" transform="translate(-16.296 -4.561)" fill="#128dc8"/>
      <path id="패스_568" data-name="패스 568" d="M48.674,3.445h-.231q-.643,0-.642.726a.832.832,0,0,0,.156.518.571.571,0,0,0,.487.206h4.881a.658.658,0,0,0,.535-.206.8.8,0,0,0,.174-.535q0-.709-.677-.709H53.01a.16.16,0,0,1-.182-.182v-1.6a.285.285,0,0,1,.025-.132c.017-.033.063-.05.14-.05h.33a.689.689,0,0,0,.535-.19.742.742,0,0,0,.174-.52.874.874,0,0,0-.174-.552.6.6,0,0,0-.5-.222H48.442a.552.552,0,0,0-.487.222A.938.938,0,0,0,47.8.774a.793.793,0,0,0,.156.52.6.6,0,0,0,.487.19h.247c.077,0,.123.017.141.05a.3.3,0,0,1,.025.132v1.6a.16.16,0,0,1-.181.182m1.781-1.814a.131.131,0,0,1,.148-.149h.528c.088,0,.132.05.132.149V3.264c0,.121-.044.182-.132.182H50.6c-.1,0-.148-.06-.148-.182Z" transform="translate(-16.111 0)" fill="#128dc8"/>
      <path id="패스_569" data-name="패스 569" d="M69.783,3.58a.79.79,0,0,0-.808.808.67.67,0,0,0,.124.381,1.237,1.237,0,0,0,.3.312v.66l-.619.066a2.42,2.42,0,0,0-.437.083.53.53,0,0,0-.288.3,1.089,1.089,0,0,0-.091.43.95.95,0,0,0,.1.428.485.485,0,0,0,.379.247,2.805,2.805,0,0,0,.957,0v.89c-.22.021-.426.044-.619.066a2.308,2.308,0,0,0-.437.083.529.529,0,0,0-.288.3,1.1,1.1,0,0,0-.091.43.949.949,0,0,0,.1.429.481.481,0,0,0,.379.247,2.772,2.772,0,0,0,.957,0v.857a.522.522,0,0,0,.239.48,1.155,1.155,0,0,0,.553.163.838.838,0,0,0,.569-.163A.628.628,0,0,0,71,10.538V4.653a1.776,1.776,0,0,0-.412-.751,1.046,1.046,0,0,0-.807-.322" transform="translate(-22.909 -1.207)" fill="#128dc8"/>
      <path id="패스_570" data-name="패스 570" d="M63.829,10.065A4.119,4.119,0,0,0,64.6,8.63a5.813,5.813,0,0,0,.247-1.714,1.574,1.574,0,0,0-.181-.85.8.8,0,0,0-.709-.271h-3.5a.634.634,0,0,0-.494.2.774.774,0,0,0-.182.544.874.874,0,0,0,.182.569.6.6,0,0,0,.494.222h2.49c.132,0,.215.023.248.066a.275.275,0,0,1,.032.2,2.972,2.972,0,0,1-.857,1.755,3.252,3.252,0,0,1-2.011.883.567.567,0,0,0-.487.3.83.83,0,0,0-.091.536q.115.611.859.544a5.032,5.032,0,0,0,1.879-.511,4.207,4.207,0,0,0,1.311-1.039" transform="translate(-20.145 -1.954)" fill="#128dc8"/>
      <path id="패스_571" data-name="패스 571" d="M67.547,16.141H63.722a.794.794,0,0,0-.561.2.748.748,0,0,0-.215.577.854.854,0,0,0,.074.379.6.6,0,0,0,.446.338,1.523,1.523,0,0,0,.255.025h3c.186,0,.28.109.28.329V20a.845.845,0,0,0,.182.6.816.816,0,0,0,.61.19q.824,0,.825-.792V17.328a1.2,1.2,0,0,0-.3-.907,1.085,1.085,0,0,0-.775-.28" transform="translate(-21.216 -5.441)" fill="#128dc8"/>
      <path id="패스_572" data-name="패스 572" d="M84.092,3.526V9.033a.52.52,0,0,0,.239.479,1.139,1.139,0,0,0,.552.165.839.839,0,0,0,.569-.165.623.623,0,0,0,.239-.528V3.1a1.756,1.756,0,0,0-.412-.75,1.043,1.043,0,0,0-.807-.322.787.787,0,0,0-.807.808.67.67,0,0,0,.123.379,1.257,1.257,0,0,0,.306.313" transform="translate(-28.199 -0.683)" fill="#128dc8"/>
      <path id="패스_573" data-name="패스 573" d="M76.742,9.48a3.937,3.937,0,0,0,.924-.116,2.616,2.616,0,0,0,.874-.386,2.355,2.355,0,0,0,.668-.717A2.194,2.194,0,0,0,79.5,7.156a2.688,2.688,0,0,0-.527-1.781,2.463,2.463,0,0,0-1.582-.906,1.054,1.054,0,0,0-.248-.577.535.535,0,0,0-.363-.149.472.472,0,0,0-.363.166,1.125,1.125,0,0,0-.213.56,2.616,2.616,0,0,0-1.089.388,2.385,2.385,0,0,0-.676.667,2.51,2.51,0,0,0-.345.792,3.277,3.277,0,0,0-.1.758,2.86,2.86,0,0,0,.131.841,2.009,2.009,0,0,0,.454.775,2.422,2.422,0,0,0,.849.569,3.389,3.389,0,0,0,1.318.223m-1.1-3.133a1.1,1.1,0,0,1,.355-.354,1.156,1.156,0,0,1,.429-.157,2.646,2.646,0,0,1,.354-.032,1.282,1.282,0,0,1,.866.3A1.023,1.023,0,0,1,78,6.925a1.055,1.055,0,0,1-.354.857,1.382,1.382,0,0,1-.916.3,1.534,1.534,0,0,1-.857-.247.963.963,0,0,1-.38-.874,1.115,1.115,0,0,1,.149-.61" transform="translate(-24.938 -1.262)" fill="#128dc8"/>
      <path id="패스_574" data-name="패스 574" d="M81.186,14.916a.935.935,0,0,0-.355-.338.819.819,0,0,0-.354-.091.807.807,0,0,0-.71.412l-.676,1.055-.56-.89c-.089-.12-.19-.247-.306-.379a.612.612,0,0,0-.487-.2.842.842,0,0,0-.387.107.833.833,0,0,0-.339.337l-1.78,2.754a.747.747,0,0,0-.123.6.677.677,0,0,0,.338.438.6.6,0,0,0,.593.041,1.218,1.218,0,0,0,.461-.4l1.122-1.683c.042-.076.093-.115.148-.115s.1.038.148.115l.38.544a.188.188,0,0,1,.024.107.145.145,0,0,1-.04.074l-.182.28a1.519,1.519,0,0,0-.141.3,1.442,1.442,0,0,0-.074.337.7.7,0,0,0,.041.322.434.434,0,0,0,.222.231.78.78,0,0,0,.619.066,1,1,0,0,0,.5-.429l1.055-1.715c.077-.12.135-.172.173-.156a.52.52,0,0,1,.157.156l1.055,1.551a1.289,1.289,0,0,0,.536.462.585.585,0,0,0,.569-.033.618.618,0,0,0,.346-.553,1.11,1.11,0,0,0-.2-.585Z" transform="translate(-25.309 -4.883)" fill="#128dc8"/>
      <path id="패스_575" data-name="패스 575" d="M90.242,8.877h2.63a.736.736,0,0,0,.517-.188.7.7,0,0,0,.209-.539.761.761,0,0,0-.071-.346.594.594,0,0,0-.192-.231.63.63,0,0,0-.255-.108,1.292,1.292,0,0,0-.208-.019l-2.056.018a.142.142,0,0,1-.006-.05V5.691a.758.758,0,0,0-.179-.547.741.741,0,0,0-.56-.192.682.682,0,0,0-.761.739V7.868a1.009,1.009,0,0,0,.265.764.937.937,0,0,0,.667.246" transform="translate(-30.102 -1.669)" fill="#128dc8"/>
      <path id="패스_576" data-name="패스 576" d="M93.61,16.126a.623.623,0,0,0-.253-.107A1.25,1.25,0,0,0,93.146,16l-2.055.017a.135.135,0,0,1-.006-.049V14.925a.771.771,0,0,0-.178-.548.743.743,0,0,0-.56-.19.683.683,0,0,0-.762.739v1.5a1.009,1.009,0,0,0,.265.765.932.932,0,0,0,.666.245h2.63a.738.738,0,0,0,.518-.187.7.7,0,0,0,.209-.539.78.78,0,0,0-.071-.349.605.605,0,0,0-.192-.229" transform="translate(-30.195 -4.782)" fill="#128dc8"/>
      <path id="패스_577" data-name="패스 577" d="M93.457,11.689H88.221a.672.672,0,0,0-.532.208.74.74,0,0,0-.173.508.782.782,0,0,0,.158.479.619.619,0,0,0,.524.236H93.48A.617.617,0,0,0,94,12.884a.778.778,0,0,0,.158-.479.739.739,0,0,0-.173-.508.672.672,0,0,0-.532-.208" transform="translate(-29.497 -3.94)" fill="#128dc8"/>
      <path id="패스_578" data-name="패스 578" d="M103.334,4.7a.612.612,0,0,0-.28-.322.807.807,0,0,0-.363-.091.619.619,0,0,0-.462.141,1.007,1.007,0,0,0-.2.288L100.1,8.956a.927.927,0,0,0-.1.66.685.685,0,0,0,.428.428.821.821,0,0,0,.594.042.714.714,0,0,0,.461-.438l1.006-2.308c.044-.1.1-.148.165-.148s.11.05.165.148l1.006,2.292a.839.839,0,0,0,.387.444.8.8,0,0,0,.652-.016.644.644,0,0,0,.412-.453.972.972,0,0,0-.05-.635Z" transform="translate(-33.698 -1.446)" fill="#128dc8"/>
      <path id="패스_579" data-name="패스 579" d="M113.012,5.452a.5.5,0,0,0-.371-.247,3.6,3.6,0,0,0-.619-.016,6.6,6.6,0,0,0-.7.065v-2.8a1.766,1.766,0,0,0-.412-.75,1.046,1.046,0,0,0-.808-.322.787.787,0,0,0-.807.809.661.661,0,0,0,.123.379,1.283,1.283,0,0,0,.3.314v7.733a.52.52,0,0,0,.239.478,1.158,1.158,0,0,0,.553.165.845.845,0,0,0,.569-.165.624.624,0,0,0,.239-.528V6.771c.286-.021.564-.044.833-.065a1.932,1.932,0,0,0,.585-.116.5.5,0,0,0,.28-.288,1.054,1.054,0,0,0,.1-.421.883.883,0,0,0-.107-.428" transform="translate(-36.838 -0.465)" fill="#128dc8"/>
      <path id="패스_580" data-name="패스 580" d="M127.934,7.159a.5.5,0,0,0-.371-.247,3.643,3.643,0,0,0-.618-.017,6.584,6.584,0,0,0-.7.067V4.653a1.777,1.777,0,0,0-.412-.75,1.047,1.047,0,0,0-.808-.322.789.789,0,0,0-.807.808.667.667,0,0,0,.123.38,1.3,1.3,0,0,0,.3.312v5.508a.52.52,0,0,0,.239.478,1.146,1.146,0,0,0,.553.165.837.837,0,0,0,.569-.165.624.624,0,0,0,.239-.528V8.478q.428-.033.833-.066a1.851,1.851,0,0,0,.585-.115.5.5,0,0,0,.281-.288,1.063,1.063,0,0,0,.1-.421.894.894,0,0,0-.107-.428" transform="translate(-41.867 -1.207)" fill="#128dc8"/>
      <path id="패스_581" data-name="패스 581" d="M123.045,15.891h-3.793a.921.921,0,0,0-.593.215.842.842,0,0,0-.264.693v3.067a.848.848,0,0,0,.272.708.927.927,0,0,0,.585.215h3.793a.9.9,0,0,0,.593-.223.866.866,0,0,0,.265-.7V16.8a.844.844,0,0,0-.265-.693.92.92,0,0,0-.593-.215m-.725,3.134a.208.208,0,0,1-.115.206.615.615,0,0,1-.28.058h-1.549a.609.609,0,0,1-.28-.058.207.207,0,0,1-.115-.206V17.772c0-.165.038-.272.115-.322a.5.5,0,0,1,.28-.074h1.549a.507.507,0,0,1,.28.074q.115.074.115.322Z" transform="translate(-39.906 -5.356)" fill="#128dc8"/>
      <path id="패스_582" data-name="패스 582" d="M118.665,11.293c.17-.011.353-.027.552-.049a1.645,1.645,0,0,0,.626-.182.6.6,0,0,0,.28-.593.651.651,0,0,0-.206-.552.838.838,0,0,0-.52-.156q-.61,0-1.22.008c-.407.006-.759,0-1.055-.024a2.208,2.208,0,0,1-.387-.076.265.265,0,0,1-.206-.288.3.3,0,0,1,.165-.314,1.466,1.466,0,0,1,.445-.082q.231-.017.47-.017c.158,0,.316-.005.469-.017a3.353,3.353,0,0,0,.923-.14,1.508,1.508,0,0,0,.611-.355,1.369,1.369,0,0,0,.337-.567,2.951,2.951,0,0,0,.124-.8,2.192,2.192,0,0,0-.329-1.418,1.574,1.574,0,0,0-1.155-.561,10.217,10.217,0,0,0-1.36-.074q-.685.009-1.311.058a.84.84,0,0,0-.461.206.7.7,0,0,0-.214.52.752.752,0,0,0,.181.528.638.638,0,0,0,.495.2c.363,0,.717,0,1.064.009s.678.014,1,.024a.792.792,0,0,1,.4.1.4.4,0,0,1,.173.379.365.365,0,0,1-.132.322,1.172,1.172,0,0,1-.51.123c-.133.011-.237.017-.314.017h-.3a6.148,6.148,0,0,0-1.047.107,1.842,1.842,0,0,0-.726.306,1.273,1.273,0,0,0-.428.586,2.638,2.638,0,0,0-.141.931,1.549,1.549,0,0,0,.33,1.063,1.87,1.87,0,0,0,.824.536,4.066,4.066,0,0,0,1.039.2c.363.023.687.038.972.049a4.029,4.029,0,0,0,.537,0" transform="translate(-38.749 -1.697)" fill="#128dc8"/>
      <path id="패스_583" data-name="패스 583" d="M137.869,5.291a.841.841,0,0,0-.552.2.707.707,0,0,0-.239.577v.957a.4.4,0,0,1-.05.239.235.235,0,0,1-.182.057h-1.253a.212.212,0,0,1-.141-.049.289.289,0,0,1-.058-.215V6.379a.91.91,0,0,0-.1-.413,1.085,1.085,0,0,0-.272-.345,1.483,1.483,0,0,0-.386-.24,1.112,1.112,0,0,0-.43-.089.783.783,0,0,0-.577.213.761.761,0,0,0-.214.561.726.726,0,0,0,.107.388,1.077,1.077,0,0,0,.29.3v3.874a.675.675,0,0,0,.18.487.652.652,0,0,0,.495.19h3.5a.722.722,0,0,0,.478-.164.586.586,0,0,0,.2-.479V6.049a.741.741,0,0,0-.214-.544.786.786,0,0,0-.577-.213m-.776,4.369a.159.159,0,0,1-.18.181h-1.32a.159.159,0,0,1-.181-.181V8.984a.258.258,0,0,1,.049-.19.293.293,0,0,1,.181-.041h1.22a.3.3,0,0,1,.182.041c.033.028.048.091.048.19Z" transform="translate(-44.968 -1.784)" fill="#399228"/>
      <path id="패스_584" data-name="패스 584" d="M144.461,2.231a.7.7,0,0,0-.552.231.831.831,0,0,0-.206.577.662.662,0,0,0,.123.379,1.248,1.248,0,0,0,.306.314V6.353c-.089,0-.176,0-.264.009s-.176.014-.265.025V4.045a1.769,1.769,0,0,0-.412-.75,1.048,1.048,0,0,0-.809-.322.705.705,0,0,0-.552.231.832.832,0,0,0-.206.577.661.661,0,0,0,.123.381,1.272,1.272,0,0,0,.3.312v6.645a.527.527,0,0,0,.231.479,1.1,1.1,0,0,0,.544.164.777.777,0,0,0,.552-.164.643.643,0,0,0,.222-.528V7.8c.088-.011.176-.019.265-.025s.175-.013.264-.025v3.628a.525.525,0,0,0,.231.478,1.083,1.083,0,0,0,.544.164.777.777,0,0,0,.553-.164.643.643,0,0,0,.222-.528V3.3a1.759,1.759,0,0,0-.412-.75,1.046,1.046,0,0,0-.808-.322" transform="translate(-47.735 -0.752)" fill="#399228"/>
      <path id="패스_585" data-name="패스 585" d="M159.1,4.488a.791.791,0,0,0-.807.809.67.67,0,0,0,.123.379,1.273,1.273,0,0,0,.306.314v1.2h-.792a.715.715,0,0,0-.611.264.924.924,0,0,0-.2.561.885.885,0,0,0,.19.56.728.728,0,0,0,.618.248h.792v.66h-.792a.713.713,0,0,0-.611.264.92.92,0,0,0-.2.56.889.889,0,0,0,.19.561.727.727,0,0,0,.618.247h.792v2.605a.519.519,0,0,0,.238.478,1.151,1.151,0,0,0,.553.165.846.846,0,0,0,.569-.165.623.623,0,0,0,.239-.528V5.561a1.77,1.77,0,0,0-.413-.751,1.045,1.045,0,0,0-.808-.322" transform="translate(-52.957 -1.513)" fill="#399228"/>
      <path id="패스_586" data-name="패스 586" d="M151.279,11.042c.154-.011.307-.016.461-.016s.308-.006.463-.017a1.782,1.782,0,0,0,1.368-.585,2.339,2.339,0,0,0,.461-1.41,2.766,2.766,0,0,0-.288-1.493,1.468,1.468,0,0,0-1.146-.667,12.334,12.334,0,0,0-1.327-.091c-.435-.005-.86.009-1.278.041a.938.938,0,0,0-.479.206.672.672,0,0,0-.231.52.779.779,0,0,0,.182.536.674.674,0,0,0,.495.223h1.047q.5,0,.98.032c.308.022.463.214.463.577a.848.848,0,0,1-.108.388c-.072.137-.256.217-.552.239-.265.023-.511.038-.742.049a3.536,3.536,0,0,0-.807.148,1.6,1.6,0,0,0-.619.355,1.583,1.583,0,0,0-.4.619,2.749,2.749,0,0,0-.14.939,1.723,1.723,0,0,0,1.7,1.946,8.333,8.333,0,0,0,1.146.083c.368,0,.729-.011,1.08-.033a1.4,1.4,0,0,0,.627-.174.627.627,0,0,0,.28-.6.674.674,0,0,0-.206-.577.871.871,0,0,0-.52-.148q-.611,0-1.112-.009c-.336,0-.652-.018-.949-.04a.6.6,0,0,1-.329-.14.458.458,0,0,1-.148-.371.44.44,0,0,1,.173-.4.9.9,0,0,1,.453-.132" transform="translate(-50.249 -2.28)" fill="#399228"/>
      <path id="패스_587" data-name="패스 587" d="M175.942,7.658a1.035,1.035,0,0,0,.1-.42.885.885,0,0,0-.107-.429.5.5,0,0,0-.371-.247,3.731,3.731,0,0,0-.619-.017,6.928,6.928,0,0,0-.7.066v-2.8a1.769,1.769,0,0,0-.412-.75,1.045,1.045,0,0,0-.807-.322.79.79,0,0,0-.808.809.67.67,0,0,0,.123.379,1.291,1.291,0,0,0,.306.313V11.97a.52.52,0,0,0,.239.478,1.149,1.149,0,0,0,.552.166.844.844,0,0,0,.569-.166.622.622,0,0,0,.239-.528V8.128q.429-.033.832-.066a1.886,1.886,0,0,0,.585-.115.5.5,0,0,0,.281-.29" transform="translate(-58.046 -0.923)" fill="#399228"/>
      <path id="패스_588" data-name="패스 588" d="M168.117,5.722h-1.039a1.315,1.315,0,0,1-.231-.017c-.066-.011-.143-.088-.231-.23l-.5-.859a.782.782,0,0,0-.486-.4.833.833,0,0,0-.619.133.8.8,0,0,0-.354.4.484.484,0,0,0,.025.4l.215.379c.054.088.071.141.049.157a.331.331,0,0,1-.164.025h-1.138a.637.637,0,0,0-.469.19.846.846,0,0,0-.19.618.622.622,0,0,0,.181.47.663.663,0,0,0,.479.174h.907a.35.35,0,0,1,.14.025c.039.017-.008.064-.14.14a1.935,1.935,0,0,0-.742.776,2.233,2.233,0,0,0-.264,1.071,1.929,1.929,0,0,0,.634,1.509,2.512,2.512,0,0,0,1.74.568,3.1,3.1,0,0,0,.923-.132,2.189,2.189,0,0,0,.75-.394,1.847,1.847,0,0,0,.5-.66,2.221,2.221,0,0,0,.181-.923,2.058,2.058,0,0,0-.3-1.106,2.432,2.432,0,0,0-.758-.774c-.088-.054-.115-.085-.083-.091a.885.885,0,0,1,.133-.008h.857a.819.819,0,0,0,.462-.157.6.6,0,0,0,.23-.536.757.757,0,0,0-.19-.593.757.757,0,0,0-.518-.166m-1.624,3.941a.826.826,0,0,1-.569.213,1.088,1.088,0,0,1-.585-.156.593.593,0,0,1-.257-.552.842.842,0,0,1,.231-.626.825.825,0,0,1,.611-.231.815.815,0,0,1,.807.808.7.7,0,0,1-.239.544" transform="translate(-54.936 -1.418)" fill="#399228"/>
      <path id="패스_589" data-name="패스 589" d="M183.41,16.041a.69.69,0,0,0-.281-.118,1.237,1.237,0,0,0-.221-.021h-2v-1.01a.83.83,0,0,0-.2-.593.805.805,0,0,0-.607-.211.749.749,0,0,0-.827.8v1.5a1.076,1.076,0,0,0,.286.812,1,1,0,0,0,.711.263h2.63a.8.8,0,0,0,.562-.2.765.765,0,0,0,.23-.587.847.847,0,0,0-.078-.377.666.666,0,0,0-.211-.253" transform="translate(-60.427 -4.749)" fill="#399228"/>
      <path id="패스_590" data-name="패스 590" d="M183.221,11.592h-5.237a.735.735,0,0,0-.58.229.808.808,0,0,0-.19.552.845.845,0,0,0,.171.518.68.68,0,0,0,.575.262h5.283a.679.679,0,0,0,.575-.262.845.845,0,0,0,.171-.518.811.811,0,0,0-.189-.552.736.736,0,0,0-.58-.229" transform="translate(-59.73 -3.907)" fill="#399228"/>
      <path id="패스_591" data-name="패스 591" d="M180.005,8.909h2.63a.791.791,0,0,0,.56-.206.757.757,0,0,0,.231-.587.833.833,0,0,0-.078-.374.669.669,0,0,0-.493-.374,1.194,1.194,0,0,0-.221-.021h-2V5.657a.828.828,0,0,0-.2-.593.805.805,0,0,0-.607-.211.749.749,0,0,0-.826.8V7.834a1.068,1.068,0,0,0,.286.812,1,1,0,0,0,.711.263" transform="translate(-60.335 -1.636)" fill="#399228"/>
      <path id="패스_592" data-name="패스 592" d="M193.8,9.015h3.627a.574.574,0,0,0,.495-.223.9.9,0,0,0,.165-.552.766.766,0,0,0-.181-.561.631.631,0,0,0-.462-.181h-3.15q-.379,0-.379-.479V5.833q0-.462.379-.462h3.051a.747.747,0,0,0,.552-.19.878.878,0,0,0,.19-.634.7.7,0,0,0-.181-.5.748.748,0,0,0-.561-.189H193.9a2.16,2.16,0,0,0-.8.123,1.262,1.262,0,0,0-.485.329,1.084,1.084,0,0,0-.247.471,2.2,2.2,0,0,0-.067.544V7.713a1.417,1.417,0,0,0,.314.906,1.446,1.446,0,0,0,1.187.4" transform="translate(-64.814 -1.3)" fill="#399228"/>
      <path id="패스_593" data-name="패스 593" d="M198.171,13.885H195.2v-.907a.517.517,0,0,0-.263-.511,1.245,1.245,0,0,0-.56-.132,1.141,1.141,0,0,0-.577.141.6.6,0,0,0-.248.569v.841h-3a.71.71,0,0,0-.561.206.8.8,0,0,0-.18.552.855.855,0,0,0,.172.528.628.628,0,0,0,.536.231H198.2a.626.626,0,0,0,.535-.231.852.852,0,0,0,.174-.528.806.806,0,0,0-.182-.552.709.709,0,0,0-.56-.206" transform="translate(-63.977 -4.158)" fill="#399228"/>
      <path id="패스_594" data-name="패스 594" d="M207.256,6.256a.6.6,0,0,0-.281-.321.8.8,0,0,0-.362-.091.617.617,0,0,0-.462.141,1.021,1.021,0,0,0-.2.288l-1.929,4.238a.926.926,0,0,0-.1.66.687.687,0,0,0,.428.428.816.816,0,0,0,.595.041.71.71,0,0,0,.461-.437l1.006-2.308c.044-.1.1-.148.165-.148s.109.049.164.148l1.006,2.292a.843.843,0,0,0,.387.445.8.8,0,0,0,.652-.017.645.645,0,0,0,.412-.453.965.965,0,0,0-.05-.634Z" transform="translate(-68.725 -1.97)" fill="#399228"/>
      <path id="패스_595" data-name="패스 595" d="M215.328,3.256a1.044,1.044,0,0,0-.807-.322.791.791,0,0,0-.808.808.665.665,0,0,0,.124.379,1.27,1.27,0,0,0,.306.314v7.733a.521.521,0,0,0,.238.479,1.158,1.158,0,0,0,.553.164.842.842,0,0,0,.569-.164.623.623,0,0,0,.239-.528V4.006a1.76,1.76,0,0,0-.413-.75" transform="translate(-72.032 -0.989)" fill="#399228"/>
    </g>
  </g>
</svg>
