<svg id="그룹_107" data-name="그룹 107" xmlns="http://www.w3.org/2000/svg" xmlns:xlink="http://www.w3.org/1999/xlink" width="120" height="63.153" viewBox="0 0 120 63.153">
  <defs>
    <clipPath id="clip-path">
      <rect id="사각형_88" data-name="사각형 88" width="120" height="63.153" fill="none"/>
    </clipPath>
  </defs>
  <g id="그룹_106" data-name="그룹 106" clip-path="url(#clip-path)">
    <path id="패스_61" data-name="패스 61" d="M9.16,46.2c-4.045,0-6.869-3.228-6.869-7.3a7.063,7.063,0,0,1,6.869-7.3,5.592,5.592,0,0,1,4.5,2.136l1.859-1.314A7.884,7.884,0,0,0,9.16,29.657,8.984,8.984,0,0,0,0,38.9a8.99,8.99,0,0,0,9.16,9.242,8.077,8.077,0,0,0,6.819-3.081l-1.6-1.316A6.407,6.407,0,0,1,9.16,46.2" transform="translate(0 -11.131)" fill="#171213"/>
    <rect id="사각형_86" data-name="사각형 86" width="1.99" height="18.927" transform="translate(33.154 17.384)" fill="#171213"/>
    <path id="패스_62" data-name="패스 62" d="M73.313,44.686a6,6,0,0,0-6.365-6.109,6.112,6.112,0,1,0,0,12.213,6,6,0,0,0,6.365-6.1M66.949,49a4.322,4.322,0,1,1,4.222-4.318A4.1,4.1,0,0,1,66.949,49" transform="translate(-22.741 -14.479)" fill="#171213"/>
    <path id="패스_63" data-name="패스 63" d="M85.875,50.968h1.983v-5.66c0-2.658,1.071-4.321,3.486-4.321a3.754,3.754,0,0,1,1.071.154l.128-1.968a2.519,2.519,0,0,0-.817-.122,4.351,4.351,0,0,0-3.968,2.207h-.052c0-.642-.053-1.291-.053-1.908H85.771c0,.772.1,1.689.1,2.755Z" transform="translate(-32.193 -14.657)" fill="#171213"/>
    <path id="패스_64" data-name="패스 64" d="M102.072,46.743h1.985V36.762h2.9V35.125h-2.9V33.058c0-2.01.077-3.476,2.141-3.476a4.2,4.2,0,0,1,1.345.247l.282-1.735a3.708,3.708,0,0,0-1.524-.3c-3.211,0-4.228,2.01-4.228,4.842v2.489h-2.6v1.637h2.6Z" transform="translate(-37.337 -10.433)" fill="#171213"/>
    <path id="패스_65" data-name="패스 65" d="M123.641,49.239h.052c0,.641.049,1.292.049,1.91h1.889c0-.77-.1-1.686-.1-2.755V39.531h-1.985V45.19c0,2.657-1.121,4.472-3.691,4.472-1.858,0-2.724-1.216-2.724-3.153V39.531h-1.985v7.177c0,2.8,1.4,4.739,4.531,4.739a4.346,4.346,0,0,0,3.968-2.208" transform="translate(-43.217 -14.837)" fill="#171213"/>
    <rect id="사각형_87" data-name="사각형 87" width="1.986" height="18.948" transform="translate(84.853 17.362)" fill="#171213"/>
    <path id="패스_66" data-name="패스 66" d="M79.467,68.234h-6.3c.087,3.343.061,6.672.061,9.924,0,0,.022,4.11.022,4.29a.03.03,0,0,1,.008.011c.213,0,5.426-.06,5.426-.06,1.49,0,4.98,0,6.967-2.545a8.654,8.654,0,0,0,1.455-4.933c0-6.627-5.157-6.666-7.64-6.687m1.511,10.76a3.622,3.622,0,0,1-2.273.654l-.435-.013-.514-.014V70.976l.314-.019.869-.035a3.845,3.845,0,0,1,2.068.447c1.387.863,1.387,3.058,1.387,3.782,0,1.843-.481,3.134-1.416,3.844" transform="translate(-27.463 -25.611)" fill="#171213"/>
    <path id="패스_67" data-name="패스 67" d="M128.278,79.677V76.33H134.6a.023.023,0,0,1,.012-.013c.018-.194.157-2.279.169-2.487-.206.006-6.551.085-6.551.085V70.789h6.846c.013-.222.125-2.268.144-2.564H123.752c.107,2,.057,2.842.057,7.72,0,0,0,6.3,0,6.5l1.144-.019,4.734-.058h.71l4.787.021c.018-.012.022-.015.045-.029.017-.226.189-2.552.212-2.8-2.481.085-5.279.117-6.932.117Z" transform="translate(-46.449 -25.607)" fill="#171213"/>
    <path id="패스_68" data-name="패스 68" d="M154.261,75.314a23.909,23.909,0,0,1,.091,2.846c0,.3,0,.638,0,1.045l-.006.191-.236.074a3.25,3.25,0,0,1-.949.1,3.413,3.413,0,0,1-2.642-1,4.526,4.526,0,0,1-1.088-3.268c0-1.778.5-3.021,1.668-3.7a5.877,5.877,0,0,1,3-.653,6.633,6.633,0,0,1,3.679,1.005c.027-.352.229-3.214.239-3.346a12.474,12.474,0,0,0-4.692-.864c-7.944,0-8.558,5.786-8.558,7.557a6.777,6.777,0,0,0,2.722,5.792,9.909,9.909,0,0,0,5.814,1.434,17.067,17.067,0,0,0,5.2-.82l.007-.019c0-.135.021-3.215.021-3.215s.019-2.927.024-3.213c-1.917.077-2.351.077-4.285.056" transform="translate(-54.335 -25.426)" fill="#171213"/>
    <path id="패스_69" data-name="패스 69" d="M180.05,76.214c0,1.547,0,2.665-.8,3.381a2.27,2.27,0,0,1-1.655.6,2.183,2.183,0,0,1-2.238-1.438,7.023,7.023,0,0,1-.27-2.419c0-2.748.076-5.579.139-8.1-.24,0-4.437.054-4.708.06l.094,8.871a5.693,5.693,0,0,0,1.116,3.879c1.334,1.5,4.042,1.723,5.541,1.723a9.176,9.176,0,0,0,4.628-1.023c1.773-1.105,1.875-2.807,1.968-4.338L184,68.242c-.191,0-3.879.054-4.107.06.089,2.247.156,4.308.156,7.912" transform="translate(-64.001 -25.614)" fill="#171213"/>
    <path id="패스_70" data-name="패스 70" d="M106.759,68.212c-.13,0-5.589.059-5.734.064-.006,0-.006.01-.021.014-.046.133-4.835,13.8-4.957,14.15h4.29l.98-3.572H105.9s.89,3.44.935,3.619c.01.006-.023.006-.012.012l4.592-.059c-.1-.3-4.57-14.046-4.625-14.2a.09.09,0,0,0-.03-.024m-4.781,8.157,1.672-5.6,1.587,5.6Z" transform="translate(-36.05 -25.603)" fill="#171213"/>
    <path id="패스_71" data-name="패스 71" d="M38.539,82.036a6.686,6.686,0,0,0-8.34,0,6.343,6.343,0,0,0-2.4,4.953,6.569,6.569,0,0,0,13.134,0,6.343,6.343,0,0,0-2.4-4.953" transform="translate(-10.435 -30.243)" fill="#efa900"/>
    <path id="패스_72" data-name="패스 72" d="M34.368,59.209c-.194,0-.385-.009-.575-.025a6.791,6.791,0,0,1-1.63-.35q-.2-.073-.392-.156a6.456,6.456,0,0,0-1.573.93,6.332,6.332,0,0,0-2.4,4.949,6.568,6.568,0,0,0,13.133,0,6.331,6.331,0,0,0-2.4-4.949,6.709,6.709,0,0,0-1.57-.933c-.066.028-.13.06-.2.086a6.693,6.693,0,0,1-2.4.448" transform="translate(-10.435 -22.023)" fill="#ce6ca4"/>
    <path id="패스_73" data-name="패스 73" d="M39.068,42.587a6.617,6.617,0,0,1-3.356,1.8,6.7,6.7,0,0,1-1.344.135,6.628,6.628,0,0,1-4.7-1.936c-.057-.06-.109-.121-.165-.181A6.277,6.277,0,0,0,27.8,46.7a6.4,6.4,0,0,0,3.968,5.872c.021-.007.04-.016.059-.024.047-.021.094-.041.143-.06a6.707,6.707,0,0,1,.8-.247,6.568,6.568,0,0,1,1.59-.2,6.661,6.661,0,0,1,1.1.092,6.765,6.765,0,0,1,1.113.282c.131.048.26.1.387.155a6.392,6.392,0,0,0,3.967-5.87,6.278,6.278,0,0,0-1.7-4.293c-.028.029-.056.06-.084.089s-.054.061-.083.091" transform="translate(-10.435 -15.917)" fill="#171213"/>
    <path id="패스_74" data-name="패스 74" d="M35.162,58.029a6.862,6.862,0,0,0-.8.247c-.047.018-.095.039-.143.059-.019.008-.039.017-.059.024q.193.083.392.156a6.821,6.821,0,0,0,1.63.35c.19.016.381.025.575.025a6.694,6.694,0,0,0,2.4-.448c.069-.026.132-.058.2-.086-.127-.053-.255-.107-.387-.154a6.758,6.758,0,0,0-1.112-.283,6.669,6.669,0,0,0-1.1-.092,6.571,6.571,0,0,0-1.59.2" transform="translate(-12.82 -21.705)" fill="#990f76"/>
    <path id="패스_75" data-name="패스 75" d="M36.178,59.186a6.79,6.79,0,0,1-1.63-.35q-.2-.073-.392-.156.193.083.392.156a6.79,6.79,0,0,0,1.63.35" transform="translate(-12.82 -22.024)" fill="#990f76"/>
    <path id="패스_76" data-name="패스 76" d="M34.214,58.641l-.059.024.059-.024" transform="translate(-12.82 -22.01)" fill="#990f76"/>
    <path id="패스_77" data-name="패스 77" d="M35.767,58.029a6.571,6.571,0,0,1,1.59-.2,6.668,6.668,0,0,1,1.1.092,6.668,6.668,0,0,0-1.1-.092,6.571,6.571,0,0,0-1.59.2" transform="translate(-13.425 -21.705)" fill="#990f76"/>
    <path id="패스_78" data-name="패스 78" d="M38.539,26.73a6.682,6.682,0,0,0-8.342,0,6.292,6.292,0,0,0-.691,9.244c.056-.062.107-.127.165-.185.169-.17.344-.326.526-.478a6.685,6.685,0,0,1,7.639-.486,6.426,6.426,0,0,1,.7.486,6.538,6.538,0,0,1,.529.478c.029.028.056.061.083.092l.083.092a6.291,6.291,0,0,0-.7-9.244" transform="translate(-10.435 -9.484)" fill="#5da71e"/>
    <path id="패스_79" data-name="패스 79" d="M35.391,43.247a6.644,6.644,0,0,0,4.7-1.936c.029-.03.056-.059.083-.091s.056-.061.083-.09c-.027-.032-.055-.062-.083-.092s-.054-.064-.083-.092a6.409,6.409,0,0,0-.528-.478,6.74,6.74,0,0,0-.7-.487,6.678,6.678,0,0,0-7.639.487c-.183.152-.357.308-.526.478-.057.057-.109.123-.165.185.056.059.107.121.165.181a6.626,6.626,0,0,0,4.7,1.936" transform="translate(-11.458 -14.642)" fill="#006f32"/>
    <path id="패스_80" data-name="패스 80" d="M40.465,44.44a6.618,6.618,0,0,0,3.356-1.8c.029-.03.057-.06.083-.091-.027.031-.054.061-.083.091a6.618,6.618,0,0,1-3.356,1.8" transform="translate(-15.188 -15.97)" fill="#006f32"/>
    <path id="패스_81" data-name="패스 81" d="M32.75,39.946a6.642,6.642,0,0,0-1.432.873c-.182.152-.357.309-.526.478.169-.17.344-.326.527-.478a6.688,6.688,0,0,1,1.432-.873" transform="translate(-11.557 -14.993)" fill="#006f32"/>
    <path id="패스_82" data-name="패스 82" d="M45.1,41.53c.029.028.056.061.083.092a1.167,1.167,0,0,0-.083-.092,6.538,6.538,0,0,0-.529-.478,6.425,6.425,0,0,0-.7-.486,6.513,6.513,0,0,1,.7.486,6.645,6.645,0,0,1,.529.478" transform="translate(-16.463 -15.226)" fill="#006f32"/>
    <path id="패스_83" data-name="패스 83" d="M34.368,12.82a6.49,6.49,0,0,0,6.567-6.413,6.345,6.345,0,0,0-2.4-4.95,6.707,6.707,0,0,0-8.344,0A6.352,6.352,0,0,0,27.8,6.407a6.491,6.491,0,0,0,6.566,6.413" transform="translate(-10.435 0)" fill="#2c6eb6"/>
  </g>
</svg>
