<svg xmlns="http://www.w3.org/2000/svg" xmlns:xlink="http://www.w3.org/1999/xlink" width="160" height="37.656" viewBox="0 0 160 37.656">
  <defs>
    <clipPath id="clip-path">
      <rect id="사각형_127" data-name="사각형 127" width="160" height="37.656" fill="none"/>
    </clipPath>
  </defs>
  <g id="그룹_126" data-name="그룹 126" transform="translate(0 0)">
    <path id="패스_220" data-name="패스 220" d="M280.491,67.039l.278,5.766,18.026-.75-.23-5.525Z" transform="translate(-173.903 -41.249)" fill="#1a1210"/>
    <g id="그룹_125" data-name="그룹 125" transform="translate(0 0)">
      <g id="그룹_124" data-name="그룹 124" clip-path="url(#clip-path)">
        <path id="패스_221" data-name="패스 221" d="M289.924,22.25a2.654,2.654,0,0,1,2.858,2.856,2.858,2.858,0,0,1-5.716,0,2.669,2.669,0,0,1,2.858-2.856m0,11.327c5.538,0,8.477-3.863,8.477-8.471s-2.678-8.47-8.477-8.47c-5.714,0-8.476,3.862-8.476,8.47s2.887,8.471,8.476,8.471" transform="translate(-174.496 -10.314)" fill="#1a1210"/>
        <path id="패스_222" data-name="패스 222" d="M216.593,63.741h-6.018v9.54h23.781V67.938l-17.763.141Z" transform="translate(-130.555 -39.519)" fill="#1a1210"/>
        <path id="패스_223" data-name="패스 223" d="M212.107,28.931V23.776h4.727v4.642a24.01,24.01,0,0,1-4.727.513m4.727,4.962H222.4V18.433H206.509V33.949a84.362,84.362,0,0,0,10.325-.825Z" transform="translate(-128.034 -11.428)" fill="#1a1210"/>
        <rect id="사각형_124" data-name="사각형 124" width="6.017" height="20.276" transform="translate(96.998 5.927)" fill="#1a1210"/>
        <rect id="사각형_125" data-name="사각형 125" width="6.017" height="27.835" transform="translate(125.753 5.928)" fill="#1a1210"/>
        <path id="패스_224" data-name="패스 224" d="M374.051,20.642v-4.25h-5.784V14.426H362.25v1.966h-5.784v4.25s4.892-.3,8.59-.3,9,.3,9,.3" transform="translate(-221.007 -8.944)" fill="#1a1210"/>
        <path id="패스_225" data-name="패스 225" d="M377.514,68.193H366.555v-1.2h10.958Zm-16.976-5.558V73h6.017v-.4h10.958V73h6.017V62.635Z" transform="translate(-223.531 -38.833)" fill="#1a1210"/>
        <path id="패스_226" data-name="패스 226" d="M366.006,35.122c1.6,0,2.686.606,2.686,1.449s-1.085,1.45-2.685,1.45-2.684-.606-2.684-1.45,1.084-1.449,2.683-1.449m.066,6.867c5.632,0,8.294-2.471,8.294-5.419s-2.4-5.418-8.294-5.418c-5.812,0-8.294,2.471-8.294,5.418s2.609,5.419,8.294,5.419" transform="translate(-221.82 -19.315)" fill="#1a1210"/>
        <rect id="사각형_126" data-name="사각형 126" width="6.018" height="16.979" transform="translate(153.982 5.927)" fill="#1a1210"/>
        <path id="패스_227" data-name="패스 227" d="M129.631,50.217h9.941v1.922h-7.786v5.369l15.839-.3v4.485h6.018V52.139h-8.053V50.217h10.259V45.028H129.631Z" transform="translate(-80.37 -27.917)" fill="#1a1210"/>
        <path id="패스_228" data-name="패스 228" d="M150.651,27.165l5.763-.023a47.2,47.2,0,0,0,1.385-9.635H135.577v5.323l16.117-.181a18.674,18.674,0,0,1-1.043,4.515" transform="translate(-84.057 -10.855)" fill="#1a1210"/>
        <path id="패스_229" data-name="패스 229" d="M12.538,0,0,12.552v25.1H25.119L37.657,25.1V0Z" transform="translate(0 0)" fill="#dc0019"/>
      </g>
    </g>
  </g>
</svg>
