<svg xmlns="http://www.w3.org/2000/svg" xmlns:xlink="http://www.w3.org/1999/xlink" width="176.579" height="34.4" viewBox="0 0 176.579 34.4">
  <defs>
    <clipPath id="clip-path">
      <rect id="사각형_114" data-name="사각형 114" width="176.579" height="34.4" fill="none"/>
    </clipPath>
  </defs>
  <g id="그룹_109" data-name="그룹 109" transform="translate(0 0)">
    <g id="그룹_108" data-name="그룹 108" transform="translate(0 0)" clip-path="url(#clip-path)">
      <path id="패스_84" data-name="패스 84" d="M86.96,20.525a5.109,5.109,0,0,1,.229.671c.042.154-.028.3-.214.443a1.431,1.431,0,0,0-.311.278,2.339,2.339,0,0,0-1.114.983q-.492.754-.525.819a1.625,1.625,0,0,1-.9.934c-.492.251-.759.388-.8.409a2.245,2.245,0,0,1-1.474.28,3.893,3.893,0,0,1-.623-.181,10.486,10.486,0,0,1-1.376-.884c-.263-.218-.4-.339-.426-.363a2.1,2.1,0,0,0-1.393-.522,2.5,2.5,0,0,0-.507.13.729.729,0,0,0-.688.673c-.045.383-.066.594-.066.638.045.373.071.684.083.935s.016.388.016.409a1.5,1.5,0,0,0,.262.673c.152.227.24.354.263.375a1.215,1.215,0,0,1-.067,1.425,5.355,5.355,0,0,1-.557.64c-.546.915-.939,1.578-1.179,1.982s-.371.618-.393.64a3.648,3.648,0,0,1-1.852.673l-.9.015a12.069,12.069,0,0,0-1.835-.1c-.415.02-.635.031-.656.031a27.432,27.432,0,0,1-2.9.084c-.6-.035-.923-.051-.968-.051a23.061,23.061,0,0,0-3.571-.1c-.918.065-1.4.1-1.441.1a2.274,2.274,0,0,1-1.557-.081c-.447-.208-.693-.322-.738-.344A2.386,2.386,0,0,1,57.716,30.8c-.1-.459-.146-.7-.146-.722a9.736,9.736,0,0,1-.165-1.033c-.022-.25-.033-.388-.033-.409a1.109,1.109,0,0,0-.262-.654,2.041,2.041,0,0,0,.262-1.13v-.77a1.148,1.148,0,0,0-.525-.754,3.119,3.119,0,0,0-.425-.23c-.525-.085-.9-.135-1.115-.146s-.339-.016-.359-.016a4.161,4.161,0,0,0-1.377.2,2.808,2.808,0,0,1-.392.163q-.853.625-1.246.869a2.878,2.878,0,0,1-.425.245q-.622.361-.983.115c-.24-.163-.371-.256-.392-.278a4.6,4.6,0,0,1-.837-.853c-.185-.263-.287-.4-.31-.425a1.52,1.52,0,0,1-.247-1.688c.274-.535.42-.813.443-.835a4.161,4.161,0,0,1,.983-.868,3.04,3.04,0,0,1,.426-.215,1.744,1.744,0,0,1,1-.032,4.517,4.517,0,0,0,.442.131,1.591,1.591,0,0,0,1.049.049,3.826,3.826,0,0,0,.622-.18,7.414,7.414,0,0,1,1.737-.49c.414-.046.633-.067.656-.067l2.031-.067a.341.341,0,0,0,.214-.212,1.092,1.092,0,0,0,.081-.214c.108-.633.191-1.152.245-1.555s.082-.618.082-.64a4.132,4.132,0,0,1,.457-2.622,6.175,6.175,0,0,1,.591-.622,9.247,9.247,0,0,0,.918-.852,10.374,10.374,0,0,1,4.734-2.638q2.507-.573,2.671-.607a4.5,4.5,0,0,1,2.523.362,7.435,7.435,0,0,1,1.113.589,1.649,1.649,0,0,0,.689.164h.36a1.442,1.442,0,0,1,.951.049,3.493,3.493,0,0,1,.393.212,7.34,7.34,0,0,1,1.574,1.263c.546.558.83.857.852.9a.848.848,0,0,1,.311.606c.01.229.016.355.016.377l-.229,1.015a.4.4,0,0,1-.214.346.937.937,0,0,1-.213.082q-.326.065-.359.522c-.023.307-.033.47-.033.492a7.4,7.4,0,0,0,.082,1.7c.075.308.114.469.114.492q.1.329.7.361c.4.022.617.033.64.033l2.424-.034,3.407.034a14.443,14.443,0,0,0,2.458-.132c.414-.088.634-.131.656-.131.263-.087.469.071.622.475M79.653,5.78a1.8,1.8,0,0,1,.164.311q.228.361-.2.852a6.318,6.318,0,0,0-.459.559Q78.5,9.008,77.883,9.2c-.414.131-.633.2-.655.2-.655-.216-1.136-.381-1.442-.489s-.469-.164-.491-.164a5.1,5.1,0,0,0-1.523.082c-.406.1-.619.147-.639.147a7.641,7.641,0,0,1-2.818.181q-1.77-.147-1.934-.181a13.017,13.017,0,0,1-2.981.376c-1.181.035-1.814.049-1.9.049A3.706,3.706,0,0,1,62.2,9.188a4.423,4.423,0,0,1-.608-.247,1.647,1.647,0,0,0-1.588.084c-.448.3-.693.453-.738.474a2.579,2.579,0,0,1-1.523.819h-.64c-.481-.241-.752-.5-.819-.768s-.1-.421-.1-.444a2.318,2.318,0,0,1,.557-2c.547-.763.841-1.168.885-1.211a1.77,1.77,0,0,1,1.245-.639c.392.012.6.016.622.016q.427.23.7.409a1.616,1.616,0,0,0,.312.181,1.99,1.99,0,0,0,.754.065c.306-.023.471-.032.492-.032a11.536,11.536,0,0,1,2.114-.115c.579.034.878.05.9.05a1.418,1.418,0,0,0,.868-.279,1.346,1.346,0,0,0,.279-.28,1.608,1.608,0,0,0,.409-1.735q-.344-.886-.377-.918Q64.876,1.276,65.3.749t.459-.556A1.832,1.832,0,0,1,68.1.816q1,1.214,1.064,1.344a2.793,2.793,0,0,1,.492,1.459q.034.769.034.834-.134.754.245.9a3.5,3.5,0,0,0,.409.147,9.373,9.373,0,0,0,2.015.049c.733-.055,1.131-.083,1.2-.083A3.177,3.177,0,0,0,74.77,5.3a2.911,2.911,0,0,1,.393-.164q.395-.622,1.851-.278t1.59.377a1.931,1.931,0,0,1,1.048.54m-14.5,21.512c.077-.327.115-.5.115-.527a1.253,1.253,0,0,0-.294-.719c-.218-.327-.339-.5-.36-.525a.983.983,0,0,1-.083-.836,2.558,2.558,0,0,1,.181-.442.908.908,0,0,0-.164-.754.816.816,0,0,0-.361-.294,4.866,4.866,0,0,0-2.44.508q-.739.476-.771.508a2.679,2.679,0,0,0-1.1,1.884q-.049,1-.05,1.065a1.338,1.338,0,0,0,.9,1.425,9.929,9.929,0,0,0,.968.312,6,6,0,0,0,2.1-.2,5.608,5.608,0,0,0,.59-.262,2.662,2.662,0,0,0,.769-1.146m.05-7.537a1.479,1.479,0,0,0,.36-.787c0-.02-.016-.164-.049-.425a3.187,3.187,0,0,0-.377-1.015q-.033-.066-.294-.722a1.485,1.485,0,0,1-.1-1.083c.107-.195.107-.337,0-.425q-.034-.033-.426-.278c-.262-.164-.449-.214-.557-.148q-.361.133-.853.327a1.726,1.726,0,0,0-.311.164.71.71,0,0,0-.344.492c0,.023-.016.147-.049.377s-.1.563-.213,1c0,.023-.027.215-.082.575a1.126,1.126,0,0,0,.247.933c.021.022.178.218.474.59a1.232,1.232,0,0,0,1.066.524c.042,0,.18.005.408.016a5.517,5.517,0,0,0,1.1-.115m7.782-1.212A2.515,2.515,0,0,0,73.33,17.1c0-.042-.044-.3-.131-.769a4.957,4.957,0,0,0-.951-1.818q-.033-.034-.771-.509a2.209,2.209,0,0,0-1.751-.245c-.023,0-.144.011-.363.032a7.133,7.133,0,0,1-.982,0c-.023,0-.231.022-.623.067s-.579.3-.556.753c0,.021.021.136.064.344a.519.519,0,0,0,.395.408q.1.067,1.211.935a2.454,2.454,0,0,1,1.147,1.687c0,.022.012.124.034.311a5.107,5.107,0,0,1,.033.575,1.564,1.564,0,0,0,.081.261c.054.153.266.273.638.362.022,0,.138.011.344.032a2.134,2.134,0,0,0,.64-.032,1.453,1.453,0,0,0,.263-.1,3.271,3.271,0,0,0,.557-.328c.022-.022.147-.2.377-.524m.524,8.158a12.372,12.372,0,0,0,.377-2.064,5.177,5.177,0,0,0-.247-.687q-.243-.622-1.03-.393c-.023,0-.236.017-.64.05a1.686,1.686,0,0,1-1-.182,3.581,3.581,0,0,0-.394-.211A2.12,2.12,0,0,0,69.79,23a1.076,1.076,0,0,0-.687.394c-.022.021-.111.115-.262.279a.323.323,0,0,0,.033.507c.02.023.125.17.312.443a4.461,4.461,0,0,1,.508,1.392c0,.023.005.242.015.655a1.79,1.79,0,0,1-.638,1.279,3.319,3.319,0,0,0-.214.524c-.121.327.1.482.673.459.021,0,.141,0,.359.016s.655-.006,1.311-.05q.066,0,.835-.229a2.059,2.059,0,0,0,1.228-1.246,5.562,5.562,0,0,0,.246-.722" transform="translate(-10.544 0)" fill="#1a1311"/>
      <path id="패스_85" data-name="패스 85" d="M124.021,12.512a2.142,2.142,0,0,1-.13.49,3.013,3.013,0,0,0-.442,1.7c-.078.94-.114,1.452-.114,1.541l.064,5.175q.066,2.065.116,2.917t.048.916a5.3,5.3,0,0,1-.164,1.771,3.994,3.994,0,0,1-.229.589,5.958,5.958,0,0,1-1.606,2.082c-.59.447-.905.683-.948.7a2.607,2.607,0,0,1-1.59.491c-.47-.045-.727-.067-.77-.067q-1.541-.294-2.145-.375c-.406-.055-.618-.084-.639-.084h-2.689l-3.113-.1a9.752,9.752,0,0,0-2.588.214q-.917.245-.982.277a16.759,16.759,0,0,1-1.623.64c-.274.074-.42.114-.442.114-.328.2-.559.034-.689-.492s-.2-.8-.2-.819a4.751,4.751,0,0,0-.59-1.751c-.262-.4-.4-.616-.427-.64q-.294-.063.2-.885c.327-.546.5-.829.525-.851.263-.59.453-1.055.574-1.391s.18-.52.18-.542q.195-1.409.359-2.065c.11-.435.164-.666.164-.689a14.041,14.041,0,0,0,.328-2.669c-.023-.492-.033-.749-.033-.77q-.263-1.736-.377-2.474c-.077-.491-.115-.747-.115-.77-.021-.612-.044-1.044-.066-1.294s-.032-.388-.032-.41a7.5,7.5,0,0,1-.262-1.343,1.5,1.5,0,0,1,.443-1.163c.3-.274.452-.421.474-.443.262-.13.475-.229.64-.294a1.633,1.633,0,0,1,.279-.1,16.124,16.124,0,0,1,3.964-1.179c.9-.085,1.364-.13,1.41-.13a22.1,22.1,0,0,1,2.833-.016q1.393.081,1.458.08l3.081.067a7.68,7.68,0,0,1,2.294,0,5.1,5.1,0,0,1,.688.2,6.475,6.475,0,0,1,1.653,1.672c.6.808.913,1.235.934,1.278a.961.961,0,0,1,.294.886m-5.027,13.6a2.515,2.515,0,0,0,.541-.655,8.4,8.4,0,0,0,.179-.836,4.413,4.413,0,0,0-.279-2.081,5.616,5.616,0,0,0-.491-.884c-.023-.022-.159-.124-.409-.31a2.126,2.126,0,0,0-1.524-.05c-.044,0-.329.005-.853.017a11.631,11.631,0,0,1-1.769-.116l-2.621-.065-2.162.065c-.021,0-.136-.01-.344-.033a4.154,4.154,0,0,0-.868.033c-.021,0-.2.032-.539.1s-.5.294-.476.687c0,.022-.006.175-.016.46s.015.872.082,1.768c0,.022,0,.153.017.394a2.951,2.951,0,0,1-.083.787,1.949,1.949,0,0,0,.1.3q.1.262.688.491a5.573,5.573,0,0,0,.558.278,2.913,2.913,0,0,0,1.343.214l2.457-.034q.065,0,1.1.1a9.152,9.152,0,0,0,2.05-.034c.042,0,.33-.021.865-.066a3.44,3.44,0,0,1,1.229.066c.023,0,.132-.016.329-.049a1.274,1.274,0,0,0,.557-.247c.022-.023.136-.12.344-.3m.7-10.321a8.151,8.151,0,0,0-.034-2.163,3.015,3.015,0,0,0-.146-.492,1.873,1.873,0,0,0-.8-.853c-.023-.02-.18-.107-.475-.261a2.009,2.009,0,0,0-1.394.033c-.021,0-.365.042-1.03.13a29.234,29.234,0,0,1-3.032.165h-3.5c-.021,0-.159.027-.409.081s-.4.136-.442.245a4.846,4.846,0,0,0-.263.541,3.155,3.155,0,0,0-.229,1.293.9.9,0,0,1,0,.59c0,.022.006.263.017.72a5.223,5.223,0,0,0,.344,1.607,1.409,1.409,0,0,0,.262.3,2.124,2.124,0,0,0,1.246.328c.021,0,.153.015.393.049a6.912,6.912,0,0,0,1.114.017c.02,0,.164-.016.425-.049s.786-.06,1.572-.083h2.426c.042,0,.355-.009.934-.031a18.952,18.952,0,0,0,2.375-.3c.023,0,.092-.055.213-.164a1.277,1.277,0,0,0,.28-.689c.021-.043.075-.381.164-1.015" transform="translate(-22.144 -1.801)" fill="#1a1311"/>
      <path id="패스_86" data-name="패스 86" d="M158.327,4.633a5.485,5.485,0,0,1-.147.607,5.759,5.759,0,0,1-.59,1.294,2.816,2.816,0,0,1-.395.541.8.8,0,0,1-.655.326c-.308.023-.471.034-.491.034a6.843,6.843,0,0,0-.788-.067h-.294c-.286-.044-.47.018-.557.182a1.367,1.367,0,0,0-.132.278,6.8,6.8,0,0,0-.067.836,4.551,4.551,0,0,1-.391,1.556c-.154.348-.18.579-.082.688s.159.163.179.163a1.709,1.709,0,0,0,.853.2c.24-.022.37-.033.393-.033.436-.174.676-.121.722.164s.066.438.066.458a4.848,4.848,0,0,1-.492,1.507c-.2.327-.306.5-.327.525a1.289,1.289,0,0,1-.8.459,6.465,6.465,0,0,1-.638.132c-.547.044-.868.154-.968.329a1.419,1.419,0,0,0-.147.294c-.023.435.088.7.329.786a3.207,3.207,0,0,0,.391.13,6.911,6.911,0,0,0,1.23.082l.573-.015c.546-.132.807-.011.788.359a3.2,3.2,0,0,1-.067.622,2.177,2.177,0,0,0-.132.427,8.457,8.457,0,0,1-.279.916,3.86,3.86,0,0,0-.146.427,1.956,1.956,0,0,1-.59.753q-1.147.13-1.555.148l-.442.016a.78.78,0,0,0-.639.1c-.121.109-.181.175-.181.2a2.859,2.859,0,0,0-.573,1.131c-.1.4-.147.617-.147.641a11.631,11.631,0,0,0,.147,2.276c.119.709.191,1.1.214,1.163a17.43,17.43,0,0,1,.048,3.1c-.077.97-.115,1.478-.115,1.521l.067,2.785c.02.744-.11,1.17-.395,1.28a4.561,4.561,0,0,1-.458.164,1.758,1.758,0,0,1-1.492-1.327c-.273-.8-.42-1.219-.442-1.263a6.642,6.642,0,0,1-.215-2.523c.077-1,.117-1.549.117-1.639a18.88,18.88,0,0,1,.13-3.244c.13-.938.207-1.441.229-1.506a2.531,2.531,0,0,0-.115-1.229,3.667,3.667,0,0,0-.212-.378c-.349-.435-.661-.644-.935-.622s-.42.033-.443.033q-.489.262-.26.984c.153.48.24.742.26.785a1.587,1.587,0,0,1,.3,1.082c-.021.436-.032.677-.032.721a21.011,21.011,0,0,1-.754,3.555,4.085,4.085,0,0,1-.393.868,2.428,2.428,0,0,1-.936,1.049,4.856,4.856,0,0,1-.54.261,7.34,7.34,0,0,1-3.194.411c-.709-.144-1.087-.225-1.13-.247q-1.605-.554-1.72-1.555a9.891,9.891,0,0,0-.147-1.066c-.023-.413.263-.627.852-.639l.918-.016a4.911,4.911,0,0,0,2.835-.656,11.062,11.062,0,0,0,1.194-.786,3.063,3.063,0,0,0,.982-1.391c.2-.557.308-.847.329-.87q.363-1.607-.081-1.9a3.876,3.876,0,0,0-.476-.3,9.731,9.731,0,0,0-2.737-.049c-1.365.1-2.1.159-2.211.181q-1.5.392-1.736-.312c-.151-.468-.24-.724-.263-.77q.264-1.637.442-2.31a2.587,2.587,0,0,0,.148-.706,1.058,1.058,0,0,1,1.147-.8,5.459,5.459,0,0,1,.886.081,15.468,15.468,0,0,0,1.638.395c.305.044.469.064.491.064a11.9,11.9,0,0,1,1.408.363c.393.131.6.2.624.2a5.745,5.745,0,0,0,1.606.229c.37-.022.568-.033.589-.033a3.9,3.9,0,0,0,1.263-.639,1.567,1.567,0,0,0,.279-.312c.37-.631.381-1.019.031-1.161a3.78,3.78,0,0,0-.589-.215l-1.965.1a6.569,6.569,0,0,0-.9-.114c-.276-.009-.433-.016-.476-.016-.656.088-1.04-.088-1.149-.524s-.162-.676-.162-.722c-.087-1.286.1-2.025.572-2.211s.716-.278.738-.278c.479.087.861.151,1.145.2.569.154.93.175,1.083.066s.229-.175.229-.2a3.134,3.134,0,0,0,.212-1.476c-.053-.459-.081-.709-.081-.754a.568.568,0,0,0-.59-.457h-.491c-.789.021-1.367.043-1.739.063-.151-.042-.262-.2-.326-.473s-.1-.42-.1-.443q-.328-2.59.279-3.047a6.5,6.5,0,0,1,.637-.458,2.429,2.429,0,0,1,1.2.327c.578.262.879.4.9.424a3.152,3.152,0,0,0,1.1.363q.539.065.572.064a.712.712,0,0,0,.754-.36,3.565,3.565,0,0,0,.2-.427,2.47,2.47,0,0,0,.2-.851c.023-.328.032-.5.032-.524a2.585,2.585,0,0,0-.3-1.262c-.175-.273-.271-.421-.294-.444-.285-.5-.312-.8-.081-.884a3.034,3.034,0,0,1,.375-.131,2.368,2.368,0,0,1,1.885.754q.736.786.769.851a4.772,4.772,0,0,1,.608,1.295c.117.425.179.662.179.7-.02.351.051.564.216.639a1.372,1.372,0,0,0,.276.117l2.164-.1a6.819,6.819,0,0,0,1.375-.2c.283-.087.435-.132.459-.132.437-.2.616-.115.541.245M151.3,10.2q.491-.182.658-1a4.835,4.835,0,0,0,.128-.608q.1-.538-.655-.474c-.023,0-.132-.006-.327-.016s-.546-.038-1.047-.081q-.067,0-.8.146T148.842,9.3c0,.023.037.182.113.476a.931.931,0,0,0,.641.637,3.025,3.025,0,0,0,1.178-.033q.034,0,.524-.178m4.686,15.055a4.7,4.7,0,0,0,.263.557,1.225,1.225,0,0,1-.311,1.131c-.3.316-.454.486-.475.506q-.854.559-1.279-.179c-.284-.492-.436-.749-.459-.77q-.328-.853-.539-1.574t-.213-.753a3.907,3.907,0,0,1-.327-1.833,2.506,2.506,0,0,1,.162-.46,6.673,6.673,0,0,0,.885-.853q.555-.884.966-.179c.272.471.42.737.442.8.066.351.113.711.146,1.083s.049.568.049.588a.658.658,0,0,0,.28.459,1.012,1.012,0,0,0,.245.132,2.826,2.826,0,0,0,.164,1.344m16.875-10.271c.437.054.666.082.687.082.438.152.546.448.329.883s-.337.677-.362.72a3.265,3.265,0,0,0-.261,1.049v.392a1.322,1.322,0,0,1-.049,1.066,4.8,4.8,0,0,1-.28.475,1.559,1.559,0,0,1-.967.46c-.337.022-.518.033-.539.033a2.764,2.764,0,0,1-1.294-.443q-.575-.376-.607-.409a3.167,3.167,0,0,0-1.378-.524c-.434-.045-.676-.067-.719-.067q-1.247-.065-1.361.655c-.078.48-.115.743-.115.787a14.782,14.782,0,0,0,.017,2.523c.077.81.116,1.234.116,1.276a13.364,13.364,0,0,0,.016,3.064q.179,2.051.212,2.214a9.453,9.453,0,0,1,.28,2.718,4.468,4.468,0,0,1-.149.753,5.706,5.706,0,0,1-.607,1,2.187,2.187,0,0,1-.342.377,1.707,1.707,0,0,1-.738.393c-.186.022-.3.032-.345.032a.88.88,0,0,1-.312-.179,2.513,2.513,0,0,1-.539-1.1c-.086-.852-.136-1.5-.147-1.934s-.015-.666-.015-.689c0-.152-.133-.856-.395-2.112a9.547,9.547,0,0,1-.133-3.49,19.805,19.805,0,0,1,.492-2.046c.241-.842.373-1.295.4-1.362a4.866,4.866,0,0,0,.145-1.474c-.034-.438-.047-.667-.047-.687q.063-.657-.363-.737c-.284-.057-.436-.082-.459-.082l-1.9.065q-.951.033-1.2.49a3.945,3.945,0,0,0-.245.492,10.791,10.791,0,0,0,.063,2.654q.2,1.378.231,1.441a15.91,15.91,0,0,1,.1,2.048c-.021.406-.034.618-.034.639a5.781,5.781,0,0,1-.491,1.95c-.218.4-.337.616-.361.639a4.215,4.215,0,0,1-1.128,1.228,3.049,3.049,0,0,0-.573.409,1.438,1.438,0,0,1-1.083.2,2.555,2.555,0,0,1-.523-.165q-.789-.752.179-1.6t1.034-.884c.326.021.593-.256.8-.838a9.45,9.45,0,0,1,.345-.9,4.058,4.058,0,0,0-.017-.785c-.034-.35-.048-.536-.048-.557a13.216,13.216,0,0,0-.132-1.475l-.59-1.9a4.845,4.845,0,0,1-.523-1.886v-.8a3.449,3.449,0,0,1,1.523-2.539c.8-.469,1.219-.715,1.261-.739a17.514,17.514,0,0,1,3.473-.474q2.13-.114,2.262-.114l4.915-.034a11.453,11.453,0,0,1,2.49-.178M165.9,7.058c.1.4.148.629.148.672a1.318,1.318,0,0,1-.049.983,4.371,4.371,0,0,1-.246.459,11.008,11.008,0,0,0-.9,1.522,6.771,6.771,0,0,1-.31.64q-.329.853-.492,1.294a4.733,4.733,0,0,0-.162.476c0,.218-.352.4-1.049.539s-1.07.215-1.115.215a5.164,5.164,0,0,0-1.178.247c-.46.142-.711.223-.754.244q-.592.23-.968-.426t-.41-.687a1.13,1.13,0,0,1,.329-1.131,3.934,3.934,0,0,1,1.113-.966q.753-.361,1.081-.507a2.656,2.656,0,0,1,.361-.148,2.422,2.422,0,0,0,1.015-.836,4.236,4.236,0,0,0,.3-.507,2.852,2.852,0,0,0,.211-.77c.056-.34.081-.518.081-.541a7.779,7.779,0,0,0,.132-1.212c.023-.482.034-.732.034-.754a5.175,5.175,0,0,1,.605-2.6,3.771,3.771,0,0,1,.476-.476.545.545,0,0,1,.77.051l.377.377a3.87,3.87,0,0,1,.3,1.524c.042.754.066,1.152.066,1.2.064.349.146.726.244,1.13" transform="translate(-30.023 -0.099)" fill="#1a1311"/>
      <path id="패스_87" data-name="패스 87" d="M202.669,6.936a6.865,6.865,0,0,1-.329.735,3.622,3.622,0,0,0-.409,2c.032.806.049,1.233.049,1.278A5.187,5.187,0,0,1,202,12.309c-.055.425-.082.662-.082.7a2.343,2.343,0,0,1-.884,1.492,3.574,3.574,0,0,1-.622.31,10.38,10.38,0,0,1-2.211.33c-.842.044-1.286.065-1.329.065a2.284,2.284,0,0,0-2.292.737,11.141,11.141,0,0,0-.722,1.033,6.774,6.774,0,0,0-.278,1.228c-.1.6-.147.922-.147.967a17.778,17.778,0,0,0-.165,2.572c.024.622.034.954.034,1q-.1,1.7-.212,2.44c-.078.492-.115.748-.115.771-.066.459-.138.94-.212,1.442s-.117.775-.117.819a4.564,4.564,0,0,1-.655,1.492c-.284.4-.437.616-.459.638a4.873,4.873,0,0,1-1.114.737q-.688.345-.752.376a10.378,10.378,0,0,1-2.149.559c-.817.13-1.249.2-1.293.2-.217.13-.355-.05-.408-.542s-.081-.759-.081-.8q.032-1.507.409-1.524a1.076,1.076,0,0,1,.409.017,1.063,1.063,0,0,0,1.145-.017c.395-.229.6-.355.624-.377q1.05-.753,1.115-1.375c.044-.414.066-.634.066-.657a1.377,1.377,0,0,0,.572-.818c.077-.327.117-.5.117-.525a20.628,20.628,0,0,0,.26-3.145q.066-2.195.067-2.359l.065-3.735q.032-1.409.1-2.523c.044-.741.067-1.125.067-1.146a2.764,2.764,0,0,0-.573-1.983,8.058,8.058,0,0,0-.7-.8q-1.015-.853-.181-1.7t.9-.884q.752-.558,1.686-1.163c.621-.4.945-.618.966-.64a3.3,3.3,0,0,1,1.54-.539q.851-.083.886-.084a8.933,8.933,0,0,1,2.129.032c.393.089.6.132.622.132a4.135,4.135,0,0,0,1.754-.114,8.485,8.485,0,0,0,.934-.277,1.192,1.192,0,0,1,1.179.064c.263.218.4.339.427.36a2.159,2.159,0,0,1,.359,1.852m-3.964,5.126c.152-.152.186-.447.1-.883a1.082,1.082,0,0,0-.2-.263q-.2-.228-1.178,0c-.022,0-.138.017-.346.051a6.019,6.019,0,0,1-1.03.016c-.023,0-.143-.012-.361-.032a8.259,8.259,0,0,0-1.081,0,3.082,3.082,0,0,0-.377.114c-.23.078-.355.345-.377.8,0,.02.016.2.051.523s.244.437.637.327c.045,0,.268-.042.671-.131a3.751,3.751,0,0,1,1.2-.067h.886a2.1,2.1,0,0,0,1.146-.228,1.2,1.2,0,0,0,.263-.231m12.237,13.78c.013.338.017.528.017.573a2.017,2.017,0,0,1-.213,1.245c-.206.415-.323.633-.342.655a.394.394,0,0,1-.348.28c-.183.033-.287.048-.31.048a10.5,10.5,0,0,1-1.2,0c-.383-.022-.585-.034-.606-.034-.348,0-.573.215-.673.64s-.147.662-.147.7l-.1,2.654a2.023,2.023,0,0,1-.918,1.229c-.35.141-.535.212-.557.212q-.983-.066-1.146-1.276c-.11-.81-.164-1.236-.164-1.279a4.531,4.531,0,0,1,.148-.951c.075-.284.114-.437.114-.459.066-.5-.089-.781-.46-.835s-.579-.082-.621-.082a5.444,5.444,0,0,0-1.754.181c-.644.165-.988.256-1.031.278a14.845,14.845,0,0,1-2.833.754c-.951.152-1.447.229-1.492.229a4.728,4.728,0,0,1-2.26-.164q-.133-.164.032-1.048a7.738,7.738,0,0,1,.2-.918,6.613,6.613,0,0,1,.509-1.424c.164-.3.258-.455.279-.477a.282.282,0,0,1,.377.034c.141.11.223.175.245.2a3.466,3.466,0,0,0,.852.229c.305.044.469.066.492.066q.554.132.688-.279c.087-.273.13-.421.13-.442.045-.655.1-1.224.182-1.7s.114-.732.114-.754a8.871,8.871,0,0,0,.1-1.917c-.042-.492-.066-.746-.066-.77.025-1.134-.087-1.791-.326-1.965a2.361,2.361,0,0,0-.393-.263c-.832.11-1.29.117-1.376.017s-.132-.158-.132-.18a7.094,7.094,0,0,1,.64-1.672,5,5,0,0,1,.312-.459,1.3,1.3,0,0,1,.916-.377l.59-.016,4.817.066h2.457a4.458,4.458,0,0,0,1.522-.212,5.282,5.282,0,0,0,.607-.245q.95-.46,1.229-.246c.184.142.279.222.279.246a1.2,1.2,0,0,1-.083,1.113c-.206.306-.323.471-.342.492a7.515,7.515,0,0,1-.706.639,1.6,1.6,0,0,1-.309.214.489.489,0,0,0-.148.312c-.013.121-.016.191-.016.212.173.152.234.7.179,1.654s-.083,1.459-.083,1.524q-.164,1.542-.18,2.212c-.011.448-.017.683-.017.7-.02.546.061.857.247.935a2.034,2.034,0,0,0,.312.114,4.091,4.091,0,0,0,.918-.245,3.348,3.348,0,0,0,.492-.214,2.837,2.837,0,0,1,.852-.2h.327c.108-.043.168.1.179.443M198.376,8.458a.476.476,0,0,0,.2-.491c0-.023-.05-.186-.146-.492s-.369-.437-.8-.393l-.672-.015a4.993,4.993,0,0,0-1.391.179c-.024.022-.248.133-.673.329s-.626.447-.607.753a1.608,1.608,0,0,0,.691.425c.041,0,.26.044.653.131a4.822,4.822,0,0,0,1.049.132c.021,0,.157-.011.408-.032a4.1,4.1,0,0,0,1-.262c.023-.023.123-.11.3-.263m5.668,18.447c.175-.087.186-.371.035-.852a2.324,2.324,0,0,0-.165-.359c-.11-.22-.349-.307-.72-.264-.022,0-.251.022-.69.067s-.709.011-.817-.1c-.023,0-.122,0-.3-.016a1.75,1.75,0,0,0-.525.049,2.938,2.938,0,0,0-.411.23.632.632,0,0,0-.309.688c0,.021.048.192.146.507s.618.4,1.558.247l1.9-.067a1.493,1.493,0,0,0,.294-.13m.46-7.093q.261-.148,0-.8a.835.835,0,0,0-.165-.228,1.959,1.959,0,0,0-.752-.426q-.033,0-.425-.033a2.166,2.166,0,0,0-.756.065L202,18.4c-.251.013-.684.007-1.293-.015a2.54,2.54,0,0,0-.3.067c-.174.042-.238.184-.2.425,0,.022.011.2.034.539a.638.638,0,0,0,.459.64c.306,0,.633-.01.983-.033.043,0,.283,0,.719-.016a8,8,0,0,0,1.049-.081,2.862,2.862,0,0,1,.754.032,1.448,1.448,0,0,0,.3-.146m-.032,3.9c.108-.119.13-.518.066-1.194a1.437,1.437,0,0,0-.247-.3,1.22,1.22,0,0,0-.9-.262c-.023,0-.223-.033-.608-.1a3.386,3.386,0,0,0-1.359.1c-.021,0-.153.028-.393.084s-.35.234-.327.539c0,.023,0,.153.016.394s.027.5.049.787a1.123,1.123,0,0,1,.312.114,1.674,1.674,0,0,0,.77.083h.489a5.578,5.578,0,0,0,.853-.065c.023,0,.14-.011.361-.033a2.692,2.692,0,0,1,.72.033c.021,0,.085-.06.2-.182m12.09-18.218a1.745,1.745,0,0,1,.164.312,4.457,4.457,0,0,1,.066,2.13c-.153.546-.242.841-.26.885a3.386,3.386,0,0,0-.607,1.082c-.057.24-.083.371-.083.392l-.034,3.046-.032,4.786a14.131,14.131,0,0,0-.081,1.7c.01.458.015.7.015.72q.328,2.426.377,3.376c.034.633.05.972.05,1.015l.066,3.669a6.248,6.248,0,0,1-.114,2.983c-.251.546-.389.831-.41.853a3.694,3.694,0,0,1-1.295,1.31c-.359.152-.55.23-.574.23-.284.02-.523-.242-.719-.789s-.307-.842-.329-.882a4.081,4.081,0,0,1-.312-2.113c.077-.777.115-1.186.115-1.231a4.641,4.641,0,0,0,.034-.916c-.022-.262-.034-.4-.034-.427a7.378,7.378,0,0,1-.1-2.866c.151-.994.24-1.523.262-1.589l-.065-2.458-.032-4.947a.866.866,0,0,0-.33-1.048c-.349-.241-.546-.371-.589-.394a2.557,2.557,0,0,0-1.426-.2c-.535.065-.824.1-.868.1q-1.244.328-2.047.458c-.537.088-.824.131-.868.131a1.038,1.038,0,0,1-1-.409q-.443-.507-.474-.541c-.438-.436-.586-.835-.442-1.2a4.094,4.094,0,0,1,.247-.574,1.458,1.458,0,0,0,.475-1.066c.009-.425.015-.661.015-.7a4.684,4.684,0,0,0-.394-1.474,1.959,1.959,0,0,1-.474-1.656,5.36,5.36,0,0,1,.247-.705,5.313,5.313,0,0,1,1.145-1.179,3.8,3.8,0,0,1,.46-.262,2.566,2.566,0,0,0,.884-.3,5.736,5.736,0,0,0,.557-.294,5.394,5.394,0,0,1,2.557-.869q1.309-.082,1.409-.081a4.256,4.256,0,0,1,2.014.671,6.988,6.988,0,0,1,.9.64,1.479,1.479,0,0,0,.77.392c.275.045.422.067.443.067.37-.044.611.028.72.212m-4.178,5.948q.474-.229.344-.656a4.191,4.191,0,0,0-.491-.474,1.987,1.987,0,0,0-1.606-.247l-.359.015a2.857,2.857,0,0,1-.558-.015,3.3,3.3,0,0,1-.359-.1,3.617,3.617,0,0,0-.788-.13,4.3,4.3,0,0,0-.442.13c-.274.088-.409.4-.409.95,0,.022-.008.126-.016.312a1.19,1.19,0,0,0,.18.64,1.186,1.186,0,0,0,.341.211,3.018,3.018,0,0,0,1.427.082h.818a2.391,2.391,0,0,0,.985-.13,1.607,1.607,0,0,0,.427-.329,4.719,4.719,0,0,1,.506-.262m-.1-3.538a.608.608,0,0,0,.509-.264c0-.02.02-.135.064-.343s-.121-.442-.49-.7a9.849,9.849,0,0,1-.983-.427,6.321,6.321,0,0,0-.852-.18,3.047,3.047,0,0,0-1.9.409,2.948,2.948,0,0,0-.411.215.87.87,0,0,0-.375.834,1.939,1.939,0,0,0,.279.345q.277.311,1.621.115c.023,0,.2-.016.541-.05a7.1,7.1,0,0,1,1.492.081h.1c.02,0,.157-.009.408-.031" transform="translate(-40.313 -0.762)" fill="#1a1311"/>
      <path id="패스_88" data-name="패스 88" d="M21.353,23.874a18.029,18.029,0,0,0,.321-2.616,10.828,10.828,0,1,0-6.9,10.1l0,.007a12.138,12.138,0,0,1-2.568-2.178,7.317,7.317,0,1,1,7.359-10.553l-8.955,0a18.806,18.806,0,0,0-.321,2.629A10.838,10.838,0,1,0,21.129,10.421a10.965,10.965,0,0,0-3.945.745,12.116,12.116,0,0,1,2.553,2.149A7.323,7.323,0,1,1,12.405,23.9s8.965-.038,8.948-.023" transform="translate(0 -2.262)" fill="#dc000c"/>
    </g>
  </g>
</svg>
