<svg xmlns="http://www.w3.org/2000/svg" xmlns:xlink="http://www.w3.org/1999/xlink" width="170.04" height="38.114" viewBox="0 0 170.04 38.114">
  <defs>
    <clipPath id="clip-path">
      <rect id="사각형_172" data-name="사각형 172" width="170.04" height="38.114" fill="none"/>
    </clipPath>
  </defs>
  <g id="그룹_170" data-name="그룹 170" transform="translate(0 0)">
    <path id="패스_596" data-name="패스 596" d="M45.984,24.77l-4.558-9.605L38.81,24.77H35.636l3.706-13.608H42.7l4.495,9.467,2.7-9.92h3.175L49.238,24.77Z" transform="translate(34.868 10.479)" fill="#003e92" fill-rule="evenodd"/>
    <g id="그룹_169" data-name="그룹 169" transform="translate(0 0)">
      <g id="그룹_168" data-name="그룹 168" clip-path="url(#clip-path)">
        <path id="패스_597" data-name="패스 597" d="M44.863,21.049c-.065,1.419-1.2,2.6-3.963,2.6H38.206l1.361-5h.958c2.4,0,4.424.558,4.339,2.4m-3.11,4.837c4.291,0,6.264-1.955,6.687-4.483A3.707,3.707,0,0,0,45.495,17.2a3.8,3.8,0,0,0,2.663-3.314c.273-2.01-1.508-4.319-6.117-4.319H38.867l-.742,2.718h-13.6l-.617,2.267H29.8L26.713,25.89h3.171l3.09-11.34h7.706l.726-2.667h.952c1.632,0,2.479,1.2,2.281,2.16a2.735,2.735,0,0,1-2.9,2.36H37L34.419,25.89Z" transform="translate(23.39 9.358)" fill="#003e92"/>
        <path id="패스_598" data-name="패스 598" d="M24.008,3.852,20.9.744a2.541,2.541,0,0,0-3.6,0L14.638,3.417,11.969.748A2.545,2.545,0,0,0,10.208,0,2.519,2.519,0,0,0,8.382.738L5.258,3.862a2.544,2.544,0,0,0,0,3.581l5.609,5.611a5.328,5.328,0,0,0,7.536,0l5.607-5.6a2.545,2.545,0,0,0,0-3.6" transform="translate(4.424 0.001)" fill="#33a437"/>
        <path id="패스_599" data-name="패스 599" d="M13.058,18.4a5.323,5.323,0,0,0,0-7.532L7.451,5.262a2.551,2.551,0,0,0-3.6,0L.745,8.372a2.547,2.547,0,0,0,0,3.6l2.667,2.663L.748,17.3a2.539,2.539,0,0,0-.008,3.587l3.126,3.126a2.544,2.544,0,0,0,3.581,0Z" transform="translate(-0.001 4.423)" fill="#33a437"/>
        <path id="패스_600" data-name="패스 600" d="M24.009,19.04l-5.607-5.6a5.333,5.333,0,0,0-7.534,0L5.259,19.048a2.544,2.544,0,0,0,0,3.581l3.126,3.13a2.535,2.535,0,0,0,1.781.734,2.561,2.561,0,0,0,1.8-.75l2.669-2.671L17.3,25.743a2.556,2.556,0,0,0,1.8.75,2.53,2.53,0,0,0,1.8-.744l3.11-3.106a2.552,2.552,0,0,0,0-3.6" transform="translate(4.425 11.622)" fill="#33a437"/>
        <path id="패스_601" data-name="패스 601" d="M23.081,16.846l7.138-7.14a2.534,2.534,0,0,0,.016-3.583L27.107,3a2.542,2.542,0,0,0-3.581,0L13.438,13.079a5.327,5.327,0,0,0,0,7.532L23.516,30.687a2.546,2.546,0,0,0,3.6-.006l3.11-3.1a2.543,2.543,0,0,0-.006-3.6Z" transform="translate(11.622 2.213)" fill="#002a69"/>
        <path id="패스_602" data-name="패스 602" d="M52.314,24.549v-5.34a2.623,2.623,0,0,1-.7.336,3.332,3.332,0,0,1-1.033.14H47.793a1.543,1.543,0,0,1-1.114-.394,1.387,1.387,0,0,1-.41-1.049V11.5H51.2v1.262H48.448v5.666h2.21a4.577,4.577,0,0,0,.985-.091,3.6,3.6,0,0,0,.671-.2v-7.14h2.1v3.684h1.312V10.989h2.1v13.56h-2.1V15.917H54.409v8.632Z" transform="translate(45.272 10.753)" fill="#33a437"/>
        <path id="패스_603" data-name="패스 603" d="M57.885,24.509V18.694H52.793v-1.26h8.434a4.071,4.071,0,0,0,.2-.991c.034-.378.049-.75.049-1.122V12.274H53.857V11.03h9.827v4.226a5.611,5.611,0,0,1-.148,1.219,2.923,2.923,0,0,1-.344.96h1.982v1.26H60.1v5.815Z" transform="translate(51.654 10.793)" fill="#33a437"/>
        <path id="패스_604" data-name="패스 604" d="M63.862,15.739v5.453h1.1V15.739h2.129v5.453h4.57v1.246H59.573V21.192h2.16V15.739ZM60.57,11.088h9.779V16.2a11.189,11.189,0,0,1-.222,2.374,5.32,5.32,0,0,1-.613,1.654H67.564a3.878,3.878,0,0,0,.518-1.686c.057-.657.089-1.492.089-2.507V12.348h-7.6Z" transform="translate(58.288 10.849)" fill="#33a437"/>
        <path id="패스_605" data-name="패스 605" d="M69.954,14.421v.884h7.419v1.211H73.539v1.017H78.7v1.244H66.171V17.533h5.158V16.516H69.265a1.544,1.544,0,0,1-1.1-.392,1.365,1.365,0,0,1-.419-1.049v-4.03h9.485v1.229H69.954v.918h7.205v1.229Zm4.954,5.658a2.576,2.576,0,0,1,1.023,2.056,2.617,2.617,0,0,1-1.023,2.079,4.057,4.057,0,0,1-4.972,0A2.6,2.6,0,0,1,68.9,22.135a2.563,2.563,0,0,1,1.033-2.056,4.088,4.088,0,0,1,4.972,0m-3.409.892a1.929,1.929,0,0,0-.382,1.163,1.95,1.95,0,0,0,.382,1.179,1.073,1.073,0,0,0,1.844,0,1.923,1.923,0,0,0,.394-1.179,1.9,1.9,0,0,0-.394-1.163,1.073,1.073,0,0,0-1.844,0" transform="translate(64.743 10.808)" fill="#33a437"/>
        <path id="패스_606" data-name="패스 606" d="M75.246,11.382v1.982h2.489V11.382h2.212v6.634H74.575a1.558,1.558,0,0,1-1.126-.4,1.4,1.4,0,0,1-.417-1.056V11.382Zm2.489,3.227H75.244v2.162h2.491Zm4.633,5.085a2.868,2.868,0,0,1,0,4.463,4.081,4.081,0,0,1-5.158,0,2.872,2.872,0,0,1,0-4.463,4.061,4.061,0,0,1,5.158,0m-3.6.918a2.112,2.112,0,0,0-.445,1.318,2.059,2.059,0,0,0,.445,1.3,1.2,1.2,0,0,0,2.046,0,2.069,2.069,0,0,0,.443-1.3,2.122,2.122,0,0,0-.443-1.318,1.19,1.19,0,0,0-2.046,0m5.011-7.067h2.21V14.8h-2.21V18.67H81.567V11.006h2.212Z" transform="translate(71.456 10.769)" fill="#33a437"/>
        <path id="패스_607" data-name="패스 607" d="M86.99,15.985v1.636h5.225v1.229H79.539V17.621H84.78V15.985Zm0-4.98v1.13a2.825,2.825,0,0,0,1.573,2.392,6.2,6.2,0,0,0,3.26,1l-1.049.965a7.8,7.8,0,0,1-2.883-.613,3.6,3.6,0,0,1-2.014-1.565,3.52,3.52,0,0,1-1.99,1.565,7.814,7.814,0,0,1-2.908.613l-1.049-.965a6.181,6.181,0,0,0,3.268-1,2.821,2.821,0,0,0,1.563-2.392v-1.13Zm1.343,9.154a2.578,2.578,0,0,1,0,4.1,4.012,4.012,0,0,1-4.92,0,2.566,2.566,0,0,1,0-4.1,4.05,4.05,0,0,1,4.92,0m-3.365.9a1.959,1.959,0,0,0-.37,1.147,1.931,1.931,0,0,0,.37,1.161,1.06,1.06,0,0,0,1.81,0,1.9,1.9,0,0,0,.376-1.161,1.924,1.924,0,0,0-.376-1.147,1.043,1.043,0,0,0-1.81,0" transform="translate(77.823 10.768)" fill="#33a437"/>
        <path id="패스_608" data-name="패스 608" d="M34.058,1.335V2.6h-7.3V7.28h7.484V8.54H30.372v2.9H35.3v1.246H23.216V11.439h4.946V8.54H26.081a1.546,1.546,0,0,1-1.122-.4,1.4,1.4,0,0,1-.417-1.056V1.335Z" transform="translate(22.715 1.307)" fill="#003e92"/>
        <path id="패스_609" data-name="패스 609" d="M38.437,4.676V2.6H31.182V1.334h9.467V5.92H33.507V7.756h7.4V9H37.078V11.44h4.93v1.244H29.92V11.44h4.946V9H32.753a1.5,1.5,0,0,1-1.08-.362A1.335,1.335,0,0,1,31.3,7.623V4.676Z" transform="translate(29.275 1.306)" fill="#003e92"/>
        <path id="패스_610" data-name="패스 610" d="M40.917,5.986v5.453h1.1V5.986h2.129v5.453h4.57v1.246H36.626V11.439h2.162V5.986ZM37.625,1.335H47.4v5.11a11.332,11.332,0,0,1-.22,2.374,5.319,5.319,0,0,1-.615,1.654H44.619a3.877,3.877,0,0,0,.516-1.686q.089-.985.089-2.507V2.6h-7.6Z" transform="translate(35.836 1.307)" fill="#003e92"/>
        <path id="패스_611" data-name="패스 611" d="M47.007,4.668v.884h7.419V6.763H50.594V7.78h5.16V9.025H43.224V7.78h5.158V6.763H46.318a1.543,1.543,0,0,1-1.1-.392,1.365,1.365,0,0,1-.419-1.049V1.293h9.485V2.522H47.007V3.44h7.205V4.668Zm4.954,5.658a2.57,2.57,0,0,1,1.023,2.056,2.609,2.609,0,0,1-1.023,2.079,4.054,4.054,0,0,1-4.97,0,2.6,2.6,0,0,1-1.033-2.079,2.563,2.563,0,0,1,1.033-2.056,4.085,4.085,0,0,1,4.97,0m-3.407.892a1.931,1.931,0,0,0-.384,1.163,1.952,1.952,0,0,0,.384,1.179,1.073,1.073,0,0,0,1.844,0,1.921,1.921,0,0,0,.392-1.179,1.9,1.9,0,0,0-.392-1.163,1.073,1.073,0,0,0-1.844,0" transform="translate(42.292 1.266)" fill="#003e92"/>
        <path id="패스_612" data-name="패스 612" d="M62.458,8.263H49.929V7.018h4.012V4.037h2.21V7.018h6.307ZM51.419,1.285h9.467V4a4.915,4.915,0,0,1-.18,1.27,2.257,2.257,0,0,1-.41.908H58.379a3.344,3.344,0,0,0,.237-.973,11.15,11.15,0,0,0,.057-1.14V2.545H51.419Zm7.393,8.671a2.814,2.814,0,0,1,0,4.424,4.13,4.13,0,0,1-5.168,0,2.83,2.83,0,0,1,0-4.424,4.13,4.13,0,0,1,5.168,0m-3.6.91a2.164,2.164,0,0,0-.417,1.31,2.067,2.067,0,0,0,.417,1.278,1.206,1.206,0,0,0,2.032,0,2.08,2.08,0,0,0,.417-1.278,2.177,2.177,0,0,0-.417-1.31,1.186,1.186,0,0,0-2.032,0" transform="translate(48.852 1.258)" fill="#003e92"/>
        <path id="패스_613" data-name="패스 613" d="M67.454,1.236V4.1h2.21V5.363h-2.21v5.9h-2.21V8.066a5.017,5.017,0,0,1-1.051.384,5.137,5.137,0,0,1-1.292.156h-4.57a1.535,1.535,0,0,1-1.114-.394,1.381,1.381,0,0,1-.41-1.049V1.677h6.731V2.922H59.02V7.345h4.012a7.972,7.972,0,0,0,1.237-.091,5.379,5.379,0,0,0,.975-.237V1.236ZM60.8,13.536h7.124V14.8H60.116a1.553,1.553,0,0,1-1.088-.394,1.377,1.377,0,0,1-.435-1.08V10.145H60.8Z" transform="translate(55.582 1.21)" fill="#003e92"/>
      </g>
    </g>
  </g>
</svg>
