<svg xmlns="http://www.w3.org/2000/svg" xmlns:xlink="http://www.w3.org/1999/xlink" width="177.932" height="38.213" viewBox="0 0 177.932 38.213">
  <defs>
    <clipPath id="clip-path">
      <rect id="사각형_139" data-name="사각형 139" width="177.932" height="38.213" fill="none"/>
    </clipPath>
  </defs>
  <g id="그룹_130" data-name="그룹 130" transform="translate(0 0)">
    <g id="그룹_129" data-name="그룹 129" transform="translate(0 0)" clip-path="url(#clip-path)">
      <path id="패스_252" data-name="패스 252" d="M154.352,46.223a2.508,2.508,0,0,1-.68.806,1.312,1.312,0,0,1-.8.274,1.339,1.339,0,0,1-1.071-.572,1.917,1.917,0,0,1-.417-1.293,2.034,2.034,0,0,1,.23-.9,2.4,2.4,0,0,1,.625-.735,1.86,1.86,0,0,1-.332-.55,1.72,1.72,0,0,1,.306-1.69,1.2,1.2,0,0,1,.943-.436,1.079,1.079,0,0,1,.854.46,1.564,1.564,0,0,1,.344,1.049,1.518,1.518,0,0,1-.2.709,1.881,1.881,0,0,1-.509.58l.426.519.471-1.292.977.009-.737,2.055,1.107,1.243-.607.79Zm-1.038-.2a1.64,1.64,0,0,0,.357-.542l-.818-.961a1.513,1.513,0,0,0-.4.417,1.046,1.046,0,0,0-.133.5.854.854,0,0,0,.143.548.525.525,0,0,0,.433.208.6.6,0,0,0,.419-.168m-.528-3.081a1.122,1.122,0,0,0,.241.307,1.18,1.18,0,0,0,.3-.286.572.572,0,0,0,.109-.326.491.491,0,0,0-.088-.33.312.312,0,0,0-.254-.111.323.323,0,0,0-.259.107.47.47,0,0,0-.107.32.7.7,0,0,0,.056.32" transform="translate(-45.898 -12.468)" fill="#001f7a"/>
      <path id="패스_253" data-name="패스 253" d="M81.8,20.539h9.812V22.49h-12.3V16.927H81.8ZM91.512,5.361v5.266H93.22v2.049H91.512v5.23H89.026V5.361ZM80.873,10.34a2.077,2.077,0,0,0-.574,1.51,2.111,2.111,0,0,0,.574,1.509,2.3,2.3,0,0,0,1.725.666,2.443,2.443,0,0,0,1.78-.648,1.927,1.927,0,0,0,.629-1.456,2.176,2.176,0,0,0-.594-1.546A2.457,2.457,0,0,0,82.6,9.693a2.291,2.291,0,0,0-1.725.647m.564-3.692V5.265h2.487V6.648h3.415V8.535H84.751a3.557,3.557,0,0,1,2.335,1.725,3.907,3.907,0,0,1,.323,2.66A3.591,3.591,0,0,1,85.9,14.987a5.671,5.671,0,0,1-3.292.916,5.363,5.363,0,0,1-3.239-.953,3.636,3.636,0,0,1-1.456-2.1,3.5,3.5,0,0,1,2.552-4.312H77.9V6.648Z" transform="translate(-23.59 -1.596)" fill="#001f7a"/>
      <path id="패스_254" data-name="패스 254" d="M118.794,14.13h-5.988v2.422h5.251v6.3h-2.463V18.5h-10.38v-1.95h5.1V14.13h-5.839v-1.95h10.808a15.576,15.576,0,0,0,.233-1.6c.048-.5.073-1.071.073-1.7V7.891H105.2V5.94h12.853V7.786c0,.717-.024,1.448-.072,2.187q-.108,1.257-.269,2.206h1.078Z" transform="translate(-31.678 -1.801)" fill="#001f7a"/>
      <path id="패스_255" data-name="패스 255" d="M138.41,5.39h2.466v7.044h1.309V5.39h2.442v17.29h-2.442V14.45h-1.309v8.231H138.41Zm-5.436,5.832a16.248,16.248,0,0,0-.27,3.307,17.358,17.358,0,0,0,.27,3.324c.225,1.065.539,1.6.934,1.6q.627,0,.972-1.6a15.394,15.394,0,0,0,.3-3.324,14.557,14.557,0,0,0-.3-3.307c-.217-.946-.54-1.419-.972-1.419q-.612,0-.934,1.419m-.458-4.49V5.3h2.465V6.733h2.6V8.64h-2.12a4.947,4.947,0,0,1,1.761,2.913,12.08,12.08,0,0,1,.36,4.223,9.33,9.33,0,0,1-1.077,3.917,2.975,2.975,0,0,1-2.608,1.726,2.886,2.886,0,0,1-2.552-1.726,9.163,9.163,0,0,1-1.061-3.917,12.119,12.119,0,0,1,.323-4.223,4.979,4.979,0,0,1,1.779-2.913H130.2V6.733Z" transform="translate(-39.475 -1.605)" fill="#001f7a"/>
      <path id="패스_256" data-name="패스 256" d="M167.746,16.87a3.035,3.035,0,0,1,1.563,2.568,2.983,2.983,0,0,1-1.563,2.535,10.357,10.357,0,0,1-9.561,0,2.877,2.877,0,0,1,0-5.1,10.357,10.357,0,0,1,9.561,0m-7.729,1.348a1.416,1.416,0,0,0-.916,1.22q0,.7.916,1.187a6.05,6.05,0,0,0,2.856.557,6.54,6.54,0,0,0,2.968-.557q.951-.485.953-1.187,0-.735-.953-1.22a6.529,6.529,0,0,0-2.968-.558,6.04,6.04,0,0,0-2.856.558m9.04-12.832v1.9h1.691V9.194h-1.691v2.173h1.691V13.3h-1.691v1.828h-2.486V5.385ZM158.635,8.008a3.45,3.45,0,0,0-.486,1.959,3.411,3.411,0,0,0,.486,1.941,2.1,2.1,0,0,0,3.342,0,3.324,3.324,0,0,0,.5-1.941,3.362,3.362,0,0,0-.5-1.959,2.131,2.131,0,0,0-3.342,0M163.845,6.7a4.74,4.74,0,0,1,1.134,3.271,4.707,4.707,0,0,1-1.134,3.253,4.48,4.48,0,0,1-3.541,1.42,4.424,4.424,0,0,1-3.522-1.42,4.716,4.716,0,0,1-1.132-3.253A4.748,4.748,0,0,1,156.783,6.7,4.458,4.458,0,0,1,160.3,5.3a4.515,4.515,0,0,1,3.541,1.4" transform="translate(-47.193 -1.605)" fill="#001f7a"/>
      <path id="패스_257" data-name="패스 257" d="M187.664,7.717h-2.877V18.8h4.4V5.417h2.488v6.866h1.842V5.417H196V22.7h-2.486V14.256H191.67v8.465h-2.488V20.707h-6.859V5.787h5.341Z" transform="translate(-55.28 -1.642)" fill="#001f7a"/>
      <path id="패스_258" data-name="패스 258" d="M221.624,16.333v6.319h-2.485V18.285h-9.991V16.333Zm0-10.959V9.453h1.692v1.972h-1.692v3.756h-2.485V5.374ZM210.985,9.979a1.7,1.7,0,0,0-.557,1.295,1.836,1.836,0,0,0,.557,1.313,2.33,2.33,0,0,0,1.726.645,2.389,2.389,0,0,0,1.742-.645,1.78,1.78,0,0,0,.594-1.313,1.653,1.653,0,0,0-.594-1.295,2.832,2.832,0,0,0-3.468,0m.543-3.571V5.294h2.488V6.408h3.414V8.252h-2.551A3.576,3.576,0,0,1,217.124,9.8a3.141,3.141,0,0,1,.306,2.391,3.57,3.57,0,0,1-1.491,1.994,6.2,6.2,0,0,1-6.459-.018,3.585,3.585,0,0,1-1.456-1.976,3.15,3.15,0,0,1,.269-2.391,3.588,3.588,0,0,1,2.247-1.546h-2.534V6.408Z" transform="translate(-63.037 -1.605)" fill="#001f7a"/>
      <path id="패스_259" data-name="패스 259" d="M248.912,21.638H234.586V19.731H236.4v-7.8h2.488v7.8h1.928v-7.8h2.487v7.8h5.606Zm-.739-15.7v6.578a28.66,28.66,0,0,1-.236,3.738,21.226,21.226,0,0,1-.741,3.529H244.8a19.452,19.452,0,0,0,.671-3.007,23.072,23.072,0,0,0,.233-3.361V8.061H235.32V5.94Z" transform="translate(-71.126 -1.801)" fill="#001f7a"/>
      <path id="패스_260" data-name="패스 260" d="M68.023,8.214c.05-.275.091-.6.121-.955.029-.342.043-.686.043-1.02V5.32H61.808V6.354h5.044v.4c0,.29-.012.551-.033.781a6.113,6.113,0,0,1-.105.683H61.442V9.237H64.28v1H61.8v1.022h5.053v2.014h1.334V10.242H65.613v-1h2.93V8.214Z" transform="translate(-18.629 -1.613)" fill="#001f7a"/>
      <path id="패스_261" data-name="패스 261" d="M67.208,26.243H63.7v-.565H62.364v3.089H68.53V25.678H67.208ZM63.7,27.256h3.51v.488H63.7Z" transform="translate(-18.909 -7.785)" fill="#001f7a"/>
      <path id="패스_262" data-name="패스 262" d="M61.778,20.264v2.77H67.02v.184h1.323V18.545H67.02v3.487H63.113v-.779h2.851V18.7H61.778v1H64.64v.564Z" transform="translate(-18.731 -5.623)" fill="#001f7a"/>
      <path id="패스_263" data-name="패스 263" d="M65.521,41.218l-1.9,2.527L65.846,47.1H64.5l-1.569-2.528-.373.649V47.1H61.439v-5.88h1.123v2.263l1.584-2.263Z" transform="translate(-18.628 -12.497)" fill="#001f7a"/>
      <path id="패스_264" data-name="패스 264" d="M72.589,45.152a2.357,2.357,0,0,1-.325,1.32,2.7,2.7,0,0,1-3.6,0,2.264,2.264,0,0,1-.317-1.32V42.981a2.062,2.062,0,0,1,.317-1.263,2.736,2.736,0,0,1,3.6,0,2.131,2.131,0,0,1,.325,1.263Zm-1.131-2.48a.771.771,0,0,0-.235-.576,1.183,1.183,0,0,0-1.521.013.788.788,0,0,0-.218.562v2.75a.988.988,0,0,0,.21.636.925.925,0,0,0,.781.338.916.916,0,0,0,.8-.338,1.077,1.077,0,0,0,.186-.663Z" transform="translate(-20.722 -12.444)" fill="#001f7a"/>
      <path id="패스_265" data-name="패스 265" d="M75.5,41.219h1.747a5.61,5.61,0,0,1,1.684.182.776.776,0,0,1,.6.757v.8a1.173,1.173,0,0,1-.164.709,1.292,1.292,0,0,1-.844.365,2.377,2.377,0,0,1,.578.264.89.89,0,0,1,.415.682c.01.091.015.243.015.461V47.1H78.374V45.012a1.075,1.075,0,0,0-.031-.318.348.348,0,0,0-.187-.21,1.758,1.758,0,0,0-.511-.109q-.359-.032-1.009-.033V47.1H75.5Zm1.137,2.4h.187c.423,0,.706,0,.846-.007a2.873,2.873,0,0,0,.464-.046.308.308,0,0,0,.2-.131.554.554,0,0,0,.04-.249V42.4a.52.52,0,0,0-.048-.264.321.321,0,0,0-.212-.128,2.434,2.434,0,0,0-.513-.046q-.241-.008-.959-.008Z" transform="translate(-22.891 -12.497)" fill="#001f7a"/>
      <path id="패스_266" data-name="패스 266" d="M82.37,41.218h3.113v.77H83.509v1.7h1.853v.736H83.509v1.885h2.039V47.1H82.37Z" transform="translate(-24.974 -12.497)" fill="#001f7a"/>
      <path id="패스_267" data-name="패스 267" d="M90.628,41.218,92.06,47.1H90.914l-.366-1.508H89L88.645,47.1H87.492l1.431-5.88ZM89.2,44.786h1.153l-.569-2.52Z" transform="translate(-26.527 -12.497)" fill="#001f7a"/>
      <path id="패스_268" data-name="패스 268" d="M104.566,41.218V47.1h-1.137V42.171L102.306,47.1h-1.121l-1.146-4.928V47.1H98.9v-5.88h2.034l.309,1.493.495,2.953.83-4.446Z" transform="translate(-29.986 -12.497)" fill="#001f7a"/>
      <path id="패스_269" data-name="패스 269" d="M111.022,41.218l1.43,5.88h-1.145l-.366-1.508H109.4l-.358,1.508h-1.155l1.431-5.88Zm-1.43,3.568h1.153l-.568-2.52Z" transform="translate(-32.71 -12.497)" fill="#001f7a"/>
      <path id="패스_270" data-name="패스 270" d="M115.292,41.219h1.749a5.6,5.6,0,0,1,1.683.182.775.775,0,0,1,.6.757v.8a1.174,1.174,0,0,1-.162.709,1.294,1.294,0,0,1-.845.365,2.285,2.285,0,0,1,.574.264.89.89,0,0,1,.3.311.862.862,0,0,1,.112.371,4.005,4.005,0,0,1,.016.461V47.1H118.17V45.012a1.075,1.075,0,0,0-.031-.318.351.351,0,0,0-.187-.21,1.782,1.782,0,0,0-.515-.109c-.236-.022-.574-.033-1.008-.033V47.1h-1.138Zm1.138,2.4h.188c.423,0,.7,0,.846-.007a2.9,2.9,0,0,0,.463-.046.3.3,0,0,0,.194-.131.552.552,0,0,0,.04-.249V42.4a.518.518,0,0,0-.049-.264.316.316,0,0,0-.212-.128,2.421,2.421,0,0,0-.512-.046c-.161-.006-.482-.008-.959-.008Z" transform="translate(-34.956 -12.497)" fill="#001f7a"/>
      <rect id="사각형_133" data-name="사각형 133" width="1.161" height="5.88" transform="translate(85.214 28.722)" fill="#001f7a"/>
      <path id="패스_271" data-name="패스 271" d="M128.7,41.218v.764h-1.552V47.1h-1.164V41.982H124.7v-.764Z" transform="translate(-37.807 -12.497)" fill="#001f7a"/>
      <rect id="사각형_134" data-name="사각형 134" width="1.162" height="5.88" transform="translate(91.458 28.722)" fill="#001f7a"/>
      <path id="패스_272" data-name="패스 272" d="M139.894,41.218V47.1h-1.139V42.171L137.634,47.1h-1.12l-1.147-4.928V47.1h-1.139v-5.88h2.033l.309,1.493.495,2.953.829-4.446Z" transform="translate(-40.697 -12.497)" fill="#001f7a"/>
      <path id="패스_273" data-name="패스 273" d="M143.561,41.218h3.113v.77H144.7v1.7h1.855v.736H144.7v1.885h2.041V47.1h-3.179Z" transform="translate(-43.527 -12.497)" fill="#001f7a"/>
      <path id="패스_274" data-name="패스 274" d="M165.207,45.152a2.4,2.4,0,0,1-.316,1.32,2.574,2.574,0,0,1-3.5,0,2.312,2.312,0,0,1-.309-1.32V42.981a2.128,2.128,0,0,1,.309-1.263,2.605,2.605,0,0,1,3.5,0,2.163,2.163,0,0,1,.316,1.263Zm-1.1-2.48a.784.784,0,0,0-.229-.576,1.126,1.126,0,0,0-1.479.013.806.806,0,0,0-.214.562v2.75a1.013,1.013,0,0,0,.2.636.892.892,0,0,0,.76.338.881.881,0,0,0,.776-.338,1.09,1.09,0,0,0,.181-.663Z" transform="translate(-48.838 -12.444)" fill="#001f7a"/>
      <path id="패스_275" data-name="패스 275" d="M172.24,43.286h-1.108V42.53a.607.607,0,0,0-.229-.493,1.164,1.164,0,0,0-.758-.217,1.056,1.056,0,0,0-.744.243.913.913,0,0,0-.268.7v2.725a.9.9,0,0,0,.268.681,1.029,1.029,0,0,0,.744.265.994.994,0,0,0,.727-.257,1.012,1.012,0,0,0,.261-.743V44.89h1.108v.236a2.2,2.2,0,0,1-.4,1.44,2.054,2.054,0,0,1-1.674.6,2.15,2.15,0,0,1-1.734-.6,2.569,2.569,0,0,1-.4-1.614V43.239a2.523,2.523,0,0,1,.4-1.566,2.016,2.016,0,0,1,1.678-.631,2.353,2.353,0,0,1,1.69.516,1.543,1.543,0,0,1,.444,1.175Z" transform="translate(-50.945 -12.444)" fill="#001f7a"/>
      <path id="패스_276" data-name="패스 276" d="M175.2,41.218h3.029v.77h-1.922v1.7h1.8v.736h-1.8v1.885H178.3V47.1H175.2Z" transform="translate(-53.121 -12.497)" fill="#001f7a"/>
      <path id="패스_277" data-name="패스 277" d="M183.239,41.218l1.391,5.88h-1.113l-.356-1.508h-1.5L181.31,47.1h-1.122l1.391-5.88Zm-1.391,3.568h1.123l-.554-2.52Z" transform="translate(-54.632 -12.497)" fill="#001f7a"/>
      <path id="패스_278" data-name="패스 278" d="M191.308,41.218V47.1h-1.58l-1.321-4.468V47.1H187.3v-5.88h1.5l1.389,4.475V41.218Z" transform="translate(-56.789 -12.497)" fill="#001f7a"/>
      <path id="패스_279" data-name="패스 279" d="M202.217,41.21V45.2a4.966,4.966,0,0,1-.047.779,1.492,1.492,0,0,1-.247.647,1.3,1.3,0,0,1-.608.432,3.333,3.333,0,0,1-1.145.164,3.368,3.368,0,0,1-1.155-.164,1.3,1.3,0,0,1-.624-.432,1.406,1.406,0,0,1-.254-.647,5.35,5.35,0,0,1-.046-.779V41.21h1.13v4.379a.99.99,0,0,0,.134.617,1.13,1.13,0,0,0,.815.208,1.054,1.054,0,0,0,.783-.208.987.987,0,0,0,.133-.617V41.21Z" transform="translate(-60.061 -12.495)" fill="#001f7a"/>
      <path id="패스_280" data-name="패스 280" d="M209.212,41.218V47.1h-1.58l-1.319-4.468V47.1H205.2v-5.88H206.7l1.389,4.475V41.218Z" transform="translate(-62.217 -12.497)" fill="#001f7a"/>
      <rect id="사각형_135" data-name="사각형 135" width="1.132" height="5.88" transform="translate(147.793 28.722)" fill="#001f7a"/>
      <path id="패스_281" data-name="패스 281" d="M219.313,41.218l-1.418,5.88h-1.863l-1.378-5.88h1.123l1.187,5.029.088-.379c.169-.689.29-1.2.369-1.541q.214-.879.382-1.616l.346-1.493Z" transform="translate(-65.082 -12.497)" fill="#001f7a"/>
      <path id="패스_282" data-name="패스 282" d="M222.143,41.218h3.028v.77H223.25v1.7h1.8v.736h-1.8v1.885h1.984V47.1h-3.091Z" transform="translate(-67.353 -12.497)" fill="#001f7a"/>
      <path id="패스_283" data-name="패스 283" d="M227.556,41.219h1.7a5.308,5.308,0,0,1,1.638.182.772.772,0,0,1,.585.757v.8a1.2,1.2,0,0,1-.158.709,1.243,1.243,0,0,1-.822.365,2.3,2.3,0,0,1,.561.264.88.88,0,0,1,.292.311.934.934,0,0,1,.112.371c.01.091.015.243.015.461V47.1h-1.123V45.012a1.1,1.1,0,0,0-.031-.318.346.346,0,0,0-.181-.21,1.673,1.673,0,0,0-.5-.109c-.233-.022-.559-.033-.98-.033V47.1h-1.107Zm1.107,2.4h.182c.41,0,.686,0,.821-.007a2.777,2.777,0,0,0,.453-.046.3.3,0,0,0,.189-.131.568.568,0,0,0,.038-.249V42.4a.53.53,0,0,0-.047-.264.3.3,0,0,0-.2-.128,2.3,2.3,0,0,0-.5-.046c-.158-.006-.468-.008-.932-.008Z" transform="translate(-68.994 -12.497)" fill="#001f7a"/>
      <path id="패스_284" data-name="패스 284" d="M238.072,42.944h-1.127v-.528a.659.659,0,0,0-.136-.48.99.99,0,0,0-.679-.17,1.074,1.074,0,0,0-.737.185.726.726,0,0,0-.134.506,1.583,1.583,0,0,0,.017.27.523.523,0,0,0,.118.209,1.3,1.3,0,0,0,.309.21c.118.068.307.165.57.292l.356.167c.369.181.624.311.766.393a2.2,2.2,0,0,1,.491.364,1.191,1.191,0,0,1,.261.474,2.653,2.653,0,0,1,.079.709,1.462,1.462,0,0,1-.475,1.217,2.591,2.591,0,0,1-1.63.406,2.54,2.54,0,0,1-1.566-.366,1.108,1.108,0,0,1-.371-.926v-.79h1.123v.635a.747.747,0,0,0,.134.514.965.965,0,0,0,.711.2,1.068,1.068,0,0,0,.767-.217.685.685,0,0,0,.173-.513.973.973,0,0,0-.243-.69,4.751,4.751,0,0,0-1.21-.771,5.176,5.176,0,0,1-1.148-.7,1.364,1.364,0,0,1-.355-1.007,1.324,1.324,0,0,1,.476-1.116,2.419,2.419,0,0,1,1.47-.372,3.712,3.712,0,0,1,1.525.244.685.685,0,0,1,.464.624Z" transform="translate(-70.99 -12.444)" fill="#001f7a"/>
      <rect id="사각형_136" data-name="사각형 136" width="1.133" height="5.88" transform="translate(168.022 28.722)" fill="#001f7a"/>
      <path id="패스_285" data-name="패스 285" d="M247.371,41.218v.764h-1.51V47.1h-1.13V41.982h-1.256v-.764Z" transform="translate(-73.821 -12.497)" fill="#001f7a"/>
      <path id="패스_286" data-name="패스 286" d="M253.524,41.218l-1.581,3.793V47.1h-1.1V45.011l-1.527-3.793h1.139q.166.48.379,1.116.117.371.33,1.015l.231.688.989-2.819Z" transform="translate(-75.592 -12.497)" fill="#001f7a"/>
      <path id="패스_287" data-name="패스 287" d="M22.728,12.475l-.04.942s.137.155-.157.155h-4.5a1.153,1.153,0,0,0-1.08.844c-.237.844-2.3,9.942-2.3,9.942a3.223,3.223,0,0,0,2.535.549s.038.02.078-.216.885-5.568,1.042-6.431.414-2.471.472-2.666c.1-.118.1-.1.218-.1s1.611.019,1.611.019.059-.038.059.1-.827,7.884-.827,7.884-.038.157.06.117a7.918,7.918,0,0,1,2.458-.667s.078-.02.1-.2.256-7.119.256-7.119-.02-.118.137-.118H24.4s.157-.019.157.177.217,7.176.217,7.176,0,.059.118.079a9.373,9.373,0,0,1,2.3.687l.138.038-.67-8.137,1.693-.021s.1-.059.137.118,1.376,9.217,1.376,9.217-.02.1.137.157a3.517,3.517,0,0,0,2.4-.491l.02-.137L30.3,14.552s-.02-.94-1.435-.959-4.287,0-4.287,0L24.5,11.73a.2.2,0,0,0-.139-.08l-1.513-.019s-.078-.02-.078.1-.039.744-.039.744" transform="translate(-4.441 -3.526)" fill="#001f7a"/>
      <path id="패스_288" data-name="패스 288" d="M16.665,37.814l.015-.594-.015-.244h-.34a.043.043,0,0,0-.045.043v.026c-.02.038-.069.272-.442.272a.132.132,0,0,0-.118.139s-.009.148.07.148h.4s.049.027.049.155v1.215h.038v.065a.046.046,0,0,0,.045.044h.295a.046.046,0,0,0,.045-.044Zm1.751-.162a.424.424,0,1,1-.425-.424.424.424,0,0,1,.425.424m.422.431c.059-1.314-.9-1.2-.9-1.2a.755.755,0,1,0,.421,1.385.232.232,0,0,1,0,.029.435.435,0,0,1-.137.371c-.345.363-.659-.087-.659-.087H17.2c.059.323.4.617.992.518s.64-1.019.64-1.019m1.4.58-.07-.02.095.072Zm.025-.4-.015.034-.03.014-.546.022-.029-.022,0-.046a.85.85,0,0,0,.075-.112l.447-.552.049-.024.045.03Zm.663.382a.045.045,0,0,0,.044-.045v-.245a.045.045,0,0,0-.044-.044h-.2l-.049-.02-.019-.053V37.03a.045.045,0,0,0-.046-.043h-.3a.05.05,0,0,0-.022.006.046.046,0,0,0-.053.012l-.786,1.011a.718.718,0,0,0-.081.114.5.5,0,0,0-.047.063.153.153,0,0,0-.03.127l0,0a.045.045,0,0,0-.013.031V38.6a.046.046,0,0,0,.044.045h.94v.426a.043.043,0,0,0,.045.044h.3a.045.045,0,0,0,.046-.044v-.347l.028-.05.054-.029Zm.909-.888a.69.69,0,0,1-.006-.083,1.408,1.408,0,0,1,.041-.23c0-.087.122-.121.122-.121h.769c.036,0,.042-.041.042-.041V37.05c0-.049-.054-.055-.054-.055s-.982,0-1.071,0-.089.1-.089.1-.164.921-.168.981a.062.062,0,0,0,.05.068h.314c.438-.309.664.049.664.049a.4.4,0,0,1-.27.631.389.389,0,0,1-.442-.235.1.1,0,0,0-.049-.058h-.3a.078.078,0,0,0-.065.038.83.83,0,0,0,1.628-.176c-.079-.991-1.111-.642-1.111-.642m-7.188,2.338s-.108.031-.108.069a.494.494,0,0,0,.01.088v.5s-.01.128.069.109,2.447-.569,2.447-.569,1.252-.438,1.416,1.039c0,.046.029.05.029.05h1.4s.048-.04.048-.079a1.13,1.13,0,0,1,1.485-1.028c1.377.284,2.389.578,2.389.578v-.725l-2.1-.53a1.883,1.883,0,0,0-2.507,1.275,1.889,1.889,0,0,0-2.329-1.344c-1.84.471-2.242.569-2.242.569m18.136-8.446a8.109,8.109,0,0,0-2.426.663,6.8,6.8,0,0,1-4.837,1.333c-1.768-.082-2.792-1.139-4.09-1.686a5.954,5.954,0,0,0-3.658-.2c-.943.236-2.438,1.254-3.7,1.647a6.758,6.758,0,0,1-5.308-.823,5.251,5.251,0,0,0-2.99-1.072,7.6,7.6,0,0,1-.236-1.162h.63c1.495,0,2.635,1.019,3.658,1.528a5.416,5.416,0,0,0,4.522.2c1.258-.392,2-1.413,4.4-1.608s4.051.94,5.349,1.608a5.446,5.446,0,0,0,4.954-.234A7.641,7.641,0,0,1,33.042,30.5M6.214,32.818a1.519,1.519,0,0,1,.472,0,6.584,6.584,0,0,1,1.219.668,8.3,8.3,0,0,0,7.393.784c4.523-2.745,5.9-1.1,7.236-.274,4.09,1.881,6.764.507,8.061-.353s1.535-.667,1.535-.667l.118.079a5.967,5.967,0,0,1-.551,1.255c-4.837,3.138-8.848,1.332-10.263.313A3.623,3.623,0,0,0,17.3,34.5a9.1,9.1,0,0,1-10.541-.39ZM11.8,37.054a10.252,10.252,0,0,0,6.331-1.724c1.651-.943,2.792.43,3.971.979a10.824,10.824,0,0,0,8.339,0,13.641,13.641,0,0,1-10.894,5.609A13.641,13.641,0,0,1,7.982,36.153a11.54,11.54,0,0,0,3.816.9m26.057-4.689s-2.068-3.311-5.765-3-4.129,3.255-7.982,1.373c-3.973-1.922-5.035-1.765-7.749-.98-1.927.548-3.382,2.784-6.527.665a8.244,8.244,0,0,0-4.8-1.294,5.139,5.139,0,0,0-2.386.725A7.172,7.172,0,0,0,.584,31.6a19.373,19.373,0,0,0,7.7,11.931,19.027,19.027,0,0,0,21.076.638A18.7,18.7,0,0,0,37.849,32.39" transform="translate(-0.177 -8.83)" fill="#001f7a"/>
      <path id="패스_289" data-name="패스 289" d="M47.053,31.1s-.238,1.145-.259,1.149" transform="translate(-14.188 -9.428)" fill="#001f7a"/>
      <path id="패스_290" data-name="패스 290" d="M7.245,36.783a4.1,4.1,0,0,0,.447.856.575.575,0,0,0,.215.15c.047.01.079-.16-.009-.4-.074-.2-.2-.406-.3-.626-.1-.238-.194-.424-.307-.661-.132-.279-.22-.736-.554-.84-.04,0-.124-.017-.107.062a3.694,3.694,0,0,0,.477,1.138Z" transform="translate(-2.01 -10.692)" fill="#fff" fill-rule="evenodd"/>
      <path id="패스_291" data-name="패스 291" d="M7.837,35.557c.131-.056.223.135.26.215.063.133.139.263.206.4a4.017,4.017,0,0,1,.174.424c.2.534.083.5.086.5-.217-.054-.362-.356-.493-.6a2.093,2.093,0,0,1-.272-.631c-.012-.068-.052-.261.038-.3" transform="translate(-2.359 -10.777)" fill="#fff" fill-rule="evenodd"/>
      <path id="패스_292" data-name="패스 292" d="M47.343,36.154a2.345,2.345,0,0,1,.615.481c.081.125.221.247.062.48-.133.15-.794-.626-1.353-.78a.077.077,0,0,0-.1.024L45.56,38.2c-.106.192-.2.491-.465.53-.325-.063.351-1,.589-1.431.129-.237.242-.482.369-.72a4.447,4.447,0,0,0,.385-.71s-.032-.2.131-.238.3.209.4.283c.122.086.247.167.374.245" transform="translate(-13.646 -10.8)" fill="#fff" fill-rule="evenodd"/>
      <path id="패스_293" data-name="패스 293" d="M6.288,38.262l.04,0a.586.586,0,0,0,.349-.169.51.51,0,0,0,.085-.324,2.085,2.085,0,0,0-.094-.662c-.015-.046-.034-.093-.046-.141A1.351,1.351,0,0,0,6.18,36.4a.777.777,0,0,0-.738-.119c-.144.07-.23.349-.246.539a1.377,1.377,0,0,0,.206.75,1.767,1.767,0,0,0,.509.588.6.6,0,0,0,.378.106m.015-.483c-.43.231-.959-.769-.615-1.081.5-.208.87.916.615,1.081" transform="translate(-1.574 -10.983)" fill="#fff" fill-rule="evenodd"/>
      <path id="패스_294" data-name="패스 294" d="M50.052,36.939a13.747,13.747,0,0,0-1.587,2.821c-.141.314-.211.686-.564.84-.217.067,0-.806.157-1.031-.334-.254-1.328-.477-.912-.946a.254.254,0,0,1,.374-.024,3.2,3.2,0,0,0,.261.271,2.181,2.181,0,0,0,.55.231c.109.032.316-.429.28-.5-.122-.245-.918-.369-1.081-.7a.3.3,0,0,1,.331-.364.723.723,0,0,1,.359.222s.415.35.6.323a.394.394,0,0,0,.114-.156s.9-1.557.883-1.662c0,0,.018-.064.05-.024l.191.652Z" transform="translate(-14.264 -10.983)" fill="#fff" fill-rule="evenodd"/>
      <path id="패스_295" data-name="패스 295" d="M3.746,37.721c-.008.113.112.252.166.345a2.879,2.879,0,0,1,.2.431c.065.169.144.328.218.493a8.815,8.815,0,0,1,.554,1.261c-.5.029-.488-.319-.677-.78a11.338,11.338,0,0,0-.738-1.561c-.067-.114-.385-.124-.308-.421.305-.25,1.274-.74,1.231-.18-.011.151-.13.208-.265.243-.069.019-.134.041-.206.056s-.167.028-.176.114" transform="translate(-0.955 -11.233)" fill="#fff" fill-rule="evenodd"/>
      <path id="패스_296" data-name="패스 296" d="M7.045,39.535c-.243.106-.662.154-.8.41-.123.233.222.254.367.219a3.231,3.231,0,0,0,.562-.248.925.925,0,0,1,.359-.08c.137.126.092.429.308.479.356-.067-.095-.479.008-.687a1.824,1.824,0,0,1,.261-.109c.086-.031.171-.066.254-.1s.164-.072.249-.1.351-.087.321-.226c0,0,.016-.264-.174-.238a1.635,1.635,0,0,0-.478.141l-1.242.544" transform="translate(-1.887 -11.778)" fill="#fff" fill-rule="evenodd"/>
      <path id="패스_297" data-name="패스 297" d="M10.53,43.1c-.192-.174-.346-.364-.554-.541A1.089,1.089,0,0,0,9.3,42.2a.124.124,0,0,0-.074.206l1.346,1.149a.025.025,0,0,1,.019.026c0,.043-.118.115-.148.142a.5.5,0,0,0-.221.46c.023.111.184.118.184.118a1.168,1.168,0,0,0,.546-.392l.561.631c.3.357.481.78.923.362a2.944,2.944,0,0,1-.553-.48,1.271,1.271,0,0,0,.615-.3,1.385,1.385,0,0,0,.431-.481c.044-.233-.233-.255-.233-.255l-.689-.645a5.237,5.237,0,0,0-1.169-1.019s-.2-.075-.248.027c0,0-.087.047,0,.164s1.356,1.25,1.356,1.25c.146.146.39.244.43.478a2.684,2.684,0,0,1-.771.5s-.6-.61-1.031-1Z" transform="translate(-2.788 -12.641)" fill="#fff" fill-rule="evenodd"/>
      <path id="패스_298" data-name="패스 298" d="M43.376,42.453c.213-.051.37-.469.615-.3.118.217-.268.355-.387.556.119.324.646.461.448.764-.3.254-.669-.255-.985-.564-.279-.271-.817-.669-.8-.877s.128-.3.359-.288.564.626.748.709" transform="translate(-12.816 -12.656)" fill="#fff" fill-rule="evenodd"/>
      <path id="패스_299" data-name="패스 299" d="M10.542,45.965a16.969,16.969,0,0,0-1.66-1.682.163.163,0,0,1,0-.241s.077-.1.261.083L10.6,45.543c.161.151.432.239.493.481l-.031.07a2.846,2.846,0,0,1-.744.7s-.282.087-.265-.134a.287.287,0,0,1,.071-.233Z" transform="translate(-2.677 -13.345)" fill="#fff" fill-rule="evenodd"/>
      <path id="패스_300" data-name="패스 300" d="M44.335,44.962c.3.178.579.75.923.539a.191.191,0,0,0,.056-.233c-.219-.279-.793-.907-.793-.907s-.143-.151-.249-.063c0,0-.114.046-.2.317l-1.093,1.005c-.143.137-.352.318-.493.482-.16.183-.426.348-.246.66,0,0,.057.04.139-.033l1.84-1.716s.079-.072.113-.052" transform="translate(-12.79 -13.422)" fill="#fff" fill-rule="evenodd"/>
      <path id="패스_301" data-name="패스 301" d="M36.62,46.361c.352,1.1.783,2.125,1.079,3.159.047.164.146.309.06.481-.231.194-.377-.174-.433-.286-.257-.5-.406-1.15-.612-1.635-.158.037-.3.117-.477.154.16.718.714,1.513.477,1.828-.183.134-.3-.145-.3-.145L35.422,47.3c-.052-.2-.232-.383,0-.541.364-.155.39.259.493.541a4.924,4.924,0,0,0,.23.664,4.02,4.02,0,0,0,.447-.184c-.093-.5-.6-1.2-.307-1.5,0,0,.239-.137.337.082" transform="translate(-10.705 -14.019)" fill="#fff" fill-rule="evenodd"/>
      <path id="패스_302" data-name="패스 302" d="M18.289,47.32c.021-.2-.25-.265-.431-.36-.3-.156-.791-.371-.923-.179,0,0-.043.119.192.2,0,0,.863.334.992.376,0,0,.16.049.17-.042" transform="translate(-5.134 -14.161)" fill="#fff" fill-rule="evenodd"/>
      <path id="패스_303" data-name="패스 303" d="M17.5,48.882l-.022-.064c-.044-.158-.369-.387-.369-.387a.2.2,0,0,0-.168-.217c-.13-.043-.206.11-.206.11a1.058,1.058,0,0,0-.426-.009.98.98,0,0,0-.367.181.934.934,0,0,0-.124,1.14A1.3,1.3,0,0,0,16.8,50a.846.846,0,0,0,.7-1.114m-1.006.755c-.58-.1-.335-1.3.431-.9.38.242-.021.973-.431.9" transform="translate(-4.754 -14.616)" fill="#fff" fill-rule="evenodd"/>
      <path id="패스_304" data-name="패스 304" d="M18.273,47.99s.13.1,0,.181a2.9,2.9,0,0,1-1.046-.3s-.867-.349-.927-.4c0,0-.3-.137-.217-.272a.1.1,0,0,1,.141-.052s.808.27,1.742.675a1.924,1.924,0,0,1,.307.175" transform="translate(-4.872 -14.289)" fill="#fff" fill-rule="evenodd"/>
      <path id="패스_305" data-name="패스 305" d="M19.365,48.663c.056.146.247.16.431.183l.276-.674s.191-.637.4-.649c.486.1.169.571.061.841-.286.727-.532,1.341-.8,2.042-.129.337-.242.985-.615.841-.3-.158.417-1.35.553-2.042a.74.74,0,0,0-.415-.165c-.093-.016-.234.5-.253.562a5.535,5.535,0,0,1-.269.807c-.1.2-.236.37-.456.2-.114-.08.169-.756.3-1.13s.287-.772.424-1.192l.052-.167c.132-.348.321-1.056.738-.6,0,0,.024.037-.017.14,0,0-.362.945-.414,1" transform="translate(-5.535 -14.363)" fill="#fff" fill-rule="evenodd"/>
      <path id="패스_306" data-name="패스 306" d="M35.034,49.585c-.609.158-.968.35-1.66.541a.033.033,0,0,1-.036-.014c0-.023-.5-1.435-.5-1.435-.013-.042.04-.053.04-.053.155-.064.383-.117.554-.179.326-.122.449-.146.431-.3-.111-.2-.392-.085-.677,0a2.251,2.251,0,0,0-.983.479s-.061.19.18.232c0,0,.3.707.311.729l.279.707s-.207.3.029.374c.232.047.369-.16.553-.24.437-.187.854-.226,1.327-.4a.125.125,0,0,0,.045-.073l.106-.325s.026-.057,0-.043" transform="translate(-9.763 -14.564)" fill="#fff" fill-rule="evenodd"/>
      <path id="패스_307" data-name="패스 307" d="M29.34,48.415v.613c.253.082.687-.052.676.194s-.509.093-.673.141c0,.14,0,.338,0,.478.258.037.817-.08.676.28-.118.137-.45.04-.676.061-.035.114.043.64-.246.659-.348-.01-.246-.674-.246-1.08v-1.32a.227.227,0,0,1,.23-.222s.282-.01.262.2" transform="translate(-8.742 -14.62)" fill="#fff" fill-rule="evenodd"/>
      <path id="패스_308" data-name="패스 308" d="M24.5,49.077a1,1,0,0,0,.739,1.32c.964.194,1.684-.356,1.6-1.079-.046-.4-.255-.633-.771-.76l-.169-.032c-.006-.165-.2-.186-.2-.186-.157.006-.19.18-.19.18s-.787-.095-.994.5Zm.554.781a.669.669,0,0,1,.369-1.022.826.826,0,0,1,.923.422c.165.7-.741,1.084-1.292.6" transform="translate(-7.411 -14.656)" fill="#fff" fill-rule="evenodd"/>
      <path id="패스_309" data-name="패스 309" d="M26.91,51.985a.272.272,0,0,0-.344-.181.309.309,0,0,0-.185.181c-.584.01-1.366.213-1.415.66-.118,1.1,3.186,1.015,3.26.12.054-.657-.646-.7-1.317-.78m-1.451.78c-.018-.213.2-.3.37-.36.307-.116,1.976-.22,1.906.36-.055.463-2.228.541-2.276,0" transform="translate(-7.569 -15.702)" fill="#fff" fill-rule="evenodd"/>
      <path id="패스_310" data-name="패스 310" d="M40.683,44.05c.232-.242.523-.391.7-.679a.531.531,0,0,0,.077-.245c0-.048-.18-.024-.382.129-.171.131-.334.314-.518.47-.2.17-.355.31-.55.49-.229.208-.649.429-.649.772.013.038.021.121.094.082a3.8,3.8,0,0,0,.964-.794Z" transform="translate(-11.934 -13.069)" fill="#fff" fill-rule="evenodd"/>
      <path id="패스_311" data-name="패스 311" d="M39.3,44.209c-.1-.1.064-.249.13-.307.11-.1.214-.21.322-.314a4.316,4.316,0,0,1,.362-.293c.459-.348.462-.23.461-.233.015.218-.236.444-.433.64a2.192,2.192,0,0,1-.531.448c-.063.032-.239.13-.31.059" transform="translate(-11.908 -13.051)" fill="#fff" fill-rule="evenodd"/>
      <path id="패스_312" data-name="패스 312" d="M42.354,44.49a.21.21,0,0,0-.015-.036.57.57,0,0,0-.275-.272.557.557,0,0,0-.343.021,2.231,2.231,0,0,0-.615.291c-.04.028-.082.059-.123.086a1.344,1.344,0,0,0-.415.583.735.735,0,0,0,.111.723.775.775,0,0,0,.6.063,1.439,1.439,0,0,0,.667-.42,1.757,1.757,0,0,0,.418-.655.554.554,0,0,0-.013-.383m-.476.136c.359.326-.454,1.126-.865.9-.357-.4.626-1.09.865-.9" transform="translate(-12.286 -13.39)" fill="#fff" fill-rule="evenodd"/>
      <path id="패스_313" data-name="패스 313" d="M41.049,44.6a.185.185,0,0,1,.231.117.178.178,0,0,1-.118.226.185.185,0,0,1-.232-.116.179.179,0,0,1,.118-.227" transform="translate(-12.407 -13.521)" fill="#fff" fill-rule="evenodd"/>
      <path id="패스_314" data-name="패스 314" d="M5.038,27.219l-.006.4L0,27.534l.006-.4,2.054.033-2.042-.76L.026,25.9l2.054.807,2.978-.773-.008.517L2.833,27l.5.2Z" transform="translate(0 -7.852)" fill="#001f7a"/>
      <path id="패스_315" data-name="패스 315" d="M.465,23.823c-.265-.194-.383-.4-.353-.6s.2-.366.51-.479a4.965,4.965,0,0,1,2.237-.045,4.918,4.918,0,0,1,2.122.67q.4.3.36.6t-.516.481a4.95,4.95,0,0,1-2.225.045,4.978,4.978,0,0,1-2.134-.67m3.589.3q.363-.084.391-.284c.02-.131-.079-.259-.295-.38A4.029,4.029,0,0,0,2.8,23.086a4.129,4.129,0,0,0-1.41-.022c-.242.056-.372.15-.391.282s.079.261.3.383a4.171,4.171,0,0,0,1.36.371,4.091,4.091,0,0,0,1.4.023" transform="translate(-0.033 -6.851)" fill="#001f7a"/>
      <path id="패스_316" data-name="패스 316" d="M.722,20.6l.261-.933c.059-.21.278-.316.656-.321a3.25,3.25,0,0,1,.877.13,3.229,3.229,0,0,1,.7.274.888.888,0,0,1,.38.332A.753.753,0,0,1,3.981,20a4.547,4.547,0,0,1,.914.187c.379.1.617.168.713.188a.407.407,0,0,0,.268-.006L6,20.405l-.12.428q-.191-.03-.4-.079c-.16-.038-.355-.089-.59-.155a3.6,3.6,0,0,0-.723-.154.254.254,0,0,0-.281.194l-.111.4,1.9.529-.106.377ZM3.1,20.365a.24.24,0,0,0-.093-.263,1.406,1.406,0,0,0-.5-.217,1.528,1.528,0,0,0-.434-.069c-.157,0-.249.056-.276.153l-.135.481,1.311.365Z" transform="translate(-0.219 -5.864)" fill="#001f7a"/>
      <path id="패스_317" data-name="패스 317" d="M3.069,16.389l-.386.932.985.4.353-.854.812.334-.353.854,1.211.5.4-.972.819.337L6.36,19.258,1.708,17.344l.536-1.295Z" transform="translate(-0.518 -4.866)" fill="#001f7a"/>
      <path id="패스_318" data-name="패스 318" d="M7.588,16.906l-.206.365L3.33,14.217l.225-.4L8.28,15.672l-.21.375-.969-.4-.353.63ZM6.045,15.763l.243-.433-1.856-.758,0,.006Z" transform="translate(-1.01 -4.189)" fill="#001f7a"/>
      <path id="패스_319" data-name="패스 319" d="M10.479,12.239l-.238.287L7.227,10.045,10.012,12.8l-.245.3L6.53,10.886l0,.006,3.014,2.482L9.3,13.66l-3.88-3.2.373-.451,3.156,2.15h0L6.231,9.487,6.6,9.044Z" transform="translate(-1.644 -2.742)" fill="#001f7a"/>
      <path id="패스_320" data-name="패스 320" d="M11.74,11.381l-.308.286L8.514,7.52l.338-.313,3.926,3.212-.315.293-.8-.673-.53.491Zm-1.118-1.56.364-.337L9.455,8.2,9.448,8.2Z" transform="translate(-2.581 -2.185)" fill="#001f7a"/>
      <path id="패스_321" data-name="패스 321" d="M10.492,5.648l.788-.567c.178-.128.416-.075.713.158a3.191,3.191,0,0,1,.6.648,3.217,3.217,0,0,1,.373.647.881.881,0,0,1,.089.5.761.761,0,0,1,.351.182,4.593,4.593,0,0,1,.6.715c.231.319.377.516.44.592.085.1.156.156.213.162l.075.1-.362.261q-.131-.143-.26-.31-.152-.192-.365-.488a3.658,3.658,0,0,0-.468-.571.255.255,0,0,0-.341-.023L12.6,7.9,13.752,9.49l-.319.23Zm2,1.3a.24.24,0,0,0,.093-.264,1.389,1.389,0,0,0-.254-.48,1.518,1.518,0,0,0-.3-.324q-.188-.141-.311-.052l-.406.291.8,1.1Z" transform="translate(-3.181 -1.52)" fill="#001f7a"/>
      <path id="패스_322" data-name="패스 322" d="M16.118,8.1l-.345.2L13.212,3.986l.344-.2Z" transform="translate(-4.006 -1.147)" fill="#001f7a"/>
      <path id="패스_323" data-name="패스 323" d="M17.525,7.138l-.36.174L15.361,3.6l-.532.256-.389-.8,1.424-.688.389.8-.532.257Z" transform="translate(-4.378 -0.717)" fill="#001f7a"/>
      <path id="패스_324" data-name="패스 324" d="M19.459,6.538l-.373.143L17.28,2l.373-.143Z" transform="translate(-5.239 -0.562)" fill="#001f7a"/>
      <path id="패스_325" data-name="패스 325" d="M21.916,5.613l-.36.1L20.517,1.954l.694,3.853-.371.1L19.462,2.244l-.006,0L20.494,6l-.36.1L18.8,1.265l.564-.155L20.71,4.677h0L20.024.927l.555-.152Z" transform="translate(-5.699 -0.235)" fill="#001f7a"/>
      <path id="패스_326" data-name="패스 326" d="M24,1.156,23,1.3l.152,1.051.917-.132.125.868-.917.132.187,1.293,1.043-.15.126.874L23.2,5.442,22.485.476l1.389-.2Z" transform="translate(-6.817 -0.083)" fill="#001f7a"/>
      <path id="패스_327" data-name="패스 327" d="M28.232,5.139l-.448-.009-.119-.438a1.643,1.643,0,0,1-.217.38.431.431,0,0,1-.341.167q-.265-.006-.424-.451a2.752,2.752,0,0,1-.141-1,3.728,3.728,0,0,1,.076-.728,2.2,2.2,0,0,1,.32-.73l.039-.063a3.382,3.382,0,0,1-.109-.456,3.611,3.611,0,0,1-.043-.629,2.23,2.23,0,0,1,.159-.867C27.079.1,27.2,0,27.353,0c.118,0,.22.1.305.287a2.2,2.2,0,0,1,.137.918,2.6,2.6,0,0,1-.141.836,2.008,2.008,0,0,1-.19.387l0,.006.254.882c.025-.123.047-.24.064-.351.02-.144.033-.3.044-.466l.33.006a7.853,7.853,0,0,1-.086.831,5.577,5.577,0,0,1-.16.676ZM27.155,2.89a2.375,2.375,0,0,0-.182.374,1.666,1.666,0,0,0-.061.461,1.365,1.365,0,0,0,.047.41q.072.27.222.273c.056,0,.114-.039.173-.118a1.194,1.194,0,0,0,.13-.24ZM27.437.853c-.026-.073-.062-.109-.111-.111s-.082.035-.109.107a.975.975,0,0,0-.052.332,1.541,1.541,0,0,0,.026.309,2.5,2.5,0,0,0,.1.36,1.582,1.582,0,0,0,.128-.286,1.27,1.27,0,0,0,.06-.37.956.956,0,0,0-.041-.341" transform="translate(-8.047 0)" fill="#001f7a"/>
      <path id="패스_328" data-name="패스 328" d="M30.9.708q.288-.391.576-.342c.19.033.331.206.424.515a5.287,5.287,0,0,1-.048,2.227,5.248,5.248,0,0,1-.705,2.1c-.2.265-.387.381-.575.349s-.331-.207-.425-.523a5.258,5.258,0,0,1,.048-2.213A5.311,5.311,0,0,1,30.9.708m-.422,3.566c.042.241.125.372.247.393s.243-.075.364-.287a4.289,4.289,0,0,0,.4-1.334,4.383,4.383,0,0,0,.077-1.4c-.042-.242-.123-.372-.245-.394s-.245.075-.367.288a4.451,4.451,0,0,0-.4,1.347,4.334,4.334,0,0,0-.078,1.39" transform="translate(-9.111 -0.109)" fill="#001f7a"/>
      <path id="패스_329" data-name="패스 329" d="M34.085,2.865a2.921,2.921,0,0,0,.063-.548q-.006-.334-.194-.388c-.111-.032-.233.049-.369.24a4.652,4.652,0,0,0-.531,1.293,5.675,5.675,0,0,0-.23,1.166c-.021.354.04.551.184.592q.146.042.307-.165a2.44,2.44,0,0,0,.324-.64l.357.1a4.876,4.876,0,0,1-.608,1.219q-.339.448-.643.362-.35-.1-.371-.806a6.68,6.68,0,0,1,.326-1.95,6.451,6.451,0,0,1,.764-1.812q.4-.579.737-.481c.231.065.357.313.38.741a3.975,3.975,0,0,1-.139,1.178Z" transform="translate(-9.815 -0.313)" fill="#001f7a"/>
      <path id="패스_330" data-name="패스 330" d="M36.891,3.133l-.864-.351-.4.984.792.322-.332.812-.792-.321L34.8,5.786l.9.367-.335.819-1.237-.5,1.9-4.647,1.2.488Z" transform="translate(-10.347 -0.552)" fill="#001f7a"/>
      <path id="패스_331" data-name="패스 331" d="M36.171,7.56l-.341-.185,2.952-4.113.375.2L37.323,8.179l-.35-.188.39-.969-.587-.316Zm1.1-1.566.4.217.747-1.852-.006,0Z" transform="translate(-10.864 -0.989)" fill="#001f7a"/>
      <path id="패스_332" data-name="패스 332" d="M41.754,5.048l.282.194L39.162,9.363l-.3-.208,1.457-3.34-.006,0L38.268,8.743l-.282-.2,2.873-4.119.321.222L39.748,7.921h0Z" transform="translate(-11.517 -1.342)" fill="#001f7a"/>
      <path id="패스_333" data-name="패스 333" d="M42.908,10.316a4.01,4.01,0,0,1-1.139.907.594.594,0,0,1-.7-.033.414.414,0,0,1-.12-.292,1.066,1.066,0,0,1,.136-.544,2.971,2.971,0,0,1,.3-.461,5.765,5.765,0,0,1,.44-.51l2.3-2.4.274.261L42.152,9.588a2.4,2.4,0,0,0-.456.61q-.108.233,0,.334c.089.085.213.086.369,0a2.223,2.223,0,0,0,.548-.451L44.884,7.71l.272.259Z" transform="translate(-12.416 -2.117)" fill="#001f7a"/>
      <path id="패스_334" data-name="패스 334" d="M46.714,9.991l.219.262L43.07,13.468l-.233-.279,2.291-2.837-.006-.006-2.749,2.289-.221-.263,3.863-3.216.25.3-2.248,2.778h0Z" transform="translate(-12.78 -2.776)" fill="#001f7a"/>
      <path id="패스_335" data-name="패스 335" d="M43.865,14.672l-.214-.3,4.11-2.9.213.3Z" transform="translate(-13.235 -3.479)" fill="#001f7a"/>
      <path id="패스_336" data-name="패스 336" d="M49.054,13.441l.2.326L44.528,15.91l-.179-.3,4.117-3.147.2.338-3.175,2.336v0Z" transform="translate(-13.446 -3.779)" fill="#001f7a"/>
      <path id="패스_337" data-name="패스 337" d="M49.5,16.558l-.4-.842-.965.452.365.771-.8.373-.364-.771-1.185.555.413.879-.8.376L45.2,17.146l4.553-2.137.553,1.17Z" transform="translate(-13.704 -4.55)" fill="#001f7a"/>
      <path id="패스_338" data-name="패스 338" d="M50.807,17.545l.293.845q.1.285-.369.6a3.88,3.88,0,0,1-1.525.556.916.916,0,0,1-.5-.041.782.782,0,0,1-.28.269,4.972,4.972,0,0,1-.861.361q-.558.192-.695.248a.442.442,0,0,0-.219.151l-.121.043-.134-.388c.117-.055.241-.107.373-.158q.228-.088.574-.207a3.935,3.935,0,0,0,.684-.279.239.239,0,0,0,.127-.3l-.125-.362-1.862.642-.118-.342Zm-1.846,1.474a.224.224,0,0,0,.221.148,1.532,1.532,0,0,0,.532-.111,1.685,1.685,0,0,0,.4-.185c.127-.089.176-.178.145-.267l-.151-.436-1.286.443Z" transform="translate(-13.963 -5.319)" fill="#001f7a"/>
      <path id="패스_339" data-name="패스 339" d="M48.362,21.594a1.652,1.652,0,0,0-.468.171q-.268.157-.219.368a.294.294,0,0,0,.173.214.866.866,0,0,0,.528,0,.792.792,0,0,0,.386-.179.63.63,0,0,0,.144-.265L49,21.693a2.478,2.478,0,0,1,.1-.238.877.877,0,0,1,.193-.225,1.427,1.427,0,0,1,.373-.214,4.126,4.126,0,0,1,.641-.191,3.319,3.319,0,0,1,.985-.1q.589.047.673.416.078.348-.451.656a3.533,3.533,0,0,1-.983.367l-.077-.339a1.92,1.92,0,0,0,.431-.163q.261-.153.216-.355a.244.244,0,0,0-.171-.171,1.138,1.138,0,0,0-.829.146.4.4,0,0,0-.111.148l-.006.006-.206.488a.834.834,0,0,1-.305.394,2.529,2.529,0,0,1-.908.35,2.479,2.479,0,0,1-1.4.017.5.5,0,0,1-.34-.337q-.093-.417.459-.736a3.537,3.537,0,0,1,1-.365Z" transform="translate(-14.192 -6.282)" fill="#001f7a"/>
      <rect id="사각형_137" data-name="사각형 137" width="5.032" height="0.369" transform="translate(32.915 16.907) rotate(-8.253)" fill="#001f7a"/>
      <path id="패스_340" data-name="패스 340" d="M47.441,25.72l-.025-.369,4.13-.284-.038-.542.89-.062.1,1.452-.89.062-.038-.543Z" transform="translate(-14.376 -7.417)" fill="#001f7a"/>
      <path id="패스_341" data-name="패스 341" d="M47.461,28.015l.013-.369,1.9.062,3.152-.521-.014.433-2.213.307,2.189.417-.014.414-3.131-.683Z" transform="translate(-14.39 -8.243)" fill="#001f7a"/>
      <path id="패스_342" data-name="패스 342" d="M64.062,33.556V37.22h-.9L62.4,35.15v2.07h-.858V33.556h.863l.8,2.141V33.556Z" transform="translate(-18.66 -10.174)" fill="#001f7a"/>
      <path id="패스_343" data-name="패스 343" d="M67.876,33.55l.686,3.668h-.984l-.093-.7h-.658l-.116.7h-.966l.611-3.668ZM67.4,35.908c-.013-.139-.033-.31-.061-.514-.019-.125-.049-.341-.093-.647l-.084-.576q-.126.651-.192,1.081c-.043.264-.073.483-.088.655Z" transform="translate(-19.933 -10.172)" fill="#001f7a"/>
      <path id="패스_344" data-name="패스 344" d="M72.423,33.55v.705h-.639v2.963h-1.04V34.256H70.1V33.55Z" transform="translate(-21.256 -10.172)" fill="#001f7a"/>
      <rect id="사각형_138" data-name="사각형 138" width="1.031" height="3.668" transform="translate(51.581 23.378)" fill="#001f7a"/>
      <path id="패스_345" data-name="패스 345" d="M78.929,35.664a4.059,4.059,0,0,1-.038.618,1.349,1.349,0,0,1-.158.505.89.89,0,0,1-.392.346,1.669,1.669,0,0,1-.709.129,1.742,1.742,0,0,1-.727-.129.821.821,0,0,1-.392-.343,1.361,1.361,0,0,1-.169-.508,5.347,5.347,0,0,1-.028-.618v-.63a5.273,5.273,0,0,1,.028-.618,1.326,1.326,0,0,1,.169-.5.853.853,0,0,1,.392-.342,1.848,1.848,0,0,1,.727-.121,1.77,1.77,0,0,1,.709.121.9.9,0,0,1,.392.342,1.341,1.341,0,0,1,.158.5,4.015,4.015,0,0,1,.038.618Zm-1.035-1.21a.723.723,0,0,0-.052-.343.235.235,0,0,0-.21-.079.25.25,0,0,0-.247.121.823.823,0,0,0-.038.3v1.723a1,1,0,0,0,.043.341.236.236,0,0,0,.242.155.22.22,0,0,0,.233-.138.9.9,0,0,0,.029-.3V34.454Z" transform="translate(-23.139 -10.141)" fill="#001f7a"/>
      <path id="패스_346" data-name="패스 346" d="M83.344,33.556V37.22h-.9l-.756-2.07v2.07h-.858V33.556h.863l.8,2.141V33.556Z" transform="translate(-24.506 -10.174)" fill="#001f7a"/>
      <path id="패스_347" data-name="패스 347" d="M87.157,33.55l.686,3.668h-.984l-.093-.7h-.657l-.117.7h-.966l.611-3.668Zm-.471,2.358c-.013-.139-.033-.31-.061-.514q-.028-.188-.093-.647l-.084-.576q-.126.651-.192,1.081c-.043.264-.073.483-.088.655Z" transform="translate(-25.779 -10.172)" fill="#001f7a"/>
      <path id="패스_348" data-name="패스 348" d="M90.719,33.556v2.959h.807v.705H89.688V33.556Z" transform="translate(-27.193 -10.174)" fill="#001f7a"/>
    </g>
  </g>
</svg>
