<svg xmlns="http://www.w3.org/2000/svg" xmlns:xlink="http://www.w3.org/1999/xlink" width="185.996" height="28.597" viewBox="0 0 185.996 28.597">
  <defs>
    <clipPath id="clip-path">
      <rect id="사각형_148" data-name="사각형 148" width="185.996" height="28.597" fill="none"/>
    </clipPath>
  </defs>
  <g id="그룹_160" data-name="그룹 160" transform="translate(0 0)">
    <path id="패스_411" data-name="패스 411" d="M1.034,29.594,1.4,29.9H14.932v2.245L1.726,29.9Z" transform="translate(-0.545 -15.601)" fill="#004c87"/>
    <g id="그룹_151" data-name="그룹 151" transform="translate(0 0)">
      <g id="그룹_150" data-name="그룹 150" clip-path="url(#clip-path)">
        <path id="패스_412" data-name="패스 412" d="M1.034,29.594,1.4,29.9H14.932v2.245L1.726,29.9Z" transform="translate(-0.545 -15.602)" fill="none" stroke="#004c87" stroke-linecap="round" stroke-linejoin="round" stroke-width="0.725"/>
      </g>
    </g>
    <path id="패스_413" data-name="패스 413" d="M15.7,27.739V25.494L2.5,27.738Z" transform="translate(-1.316 -13.44)" fill="#fff"/>
    <path id="패스_414" data-name="패스 414" d="M15.7,27.739V25.494L2.5,27.738Z" transform="translate(-1.316 -13.44)" fill="none" stroke="#004c87" stroke-linecap="round" stroke-linejoin="round" stroke-width="0.725"/>
    <path id="패스_415" data-name="패스 415" d="M28.232.846l-.305.366V14.744H25.682L27.927.939Z" transform="translate(-13.539 -0.446)" fill="#004c87"/>
    <g id="그룹_153" data-name="그룹 153" transform="translate(0 0)">
      <g id="그룹_152" data-name="그룹 152" clip-path="url(#clip-path)">
        <path id="패스_416" data-name="패스 416" d="M28.232.846l-.305.366V14.744H25.682L27.927.939Z" transform="translate(-13.539 -0.446)" fill="none" stroke="#004c87" stroke-linecap="round" stroke-linejoin="round" stroke-width="0.725"/>
      </g>
    </g>
    <path id="패스_417" data-name="패스 417" d="M30.429,14.849h2.244L30.429,1.043Z" transform="translate(-16.042 -0.55)" fill="#fff"/>
    <path id="패스_418" data-name="패스 418" d="M30.429,14.849h2.244L30.429,1.043Z" transform="translate(-16.042 -0.55)" fill="none" stroke="#004c87" stroke-linecap="round" stroke-linejoin="round" stroke-width="0.725"/>
    <path id="패스_419" data-name="패스 419" d="M44.327,28.045l-.366-.305H30.428V25.494l13.264,2.245Z" transform="translate(-16.041 -13.44)" fill="#004c87"/>
    <path id="패스_420" data-name="패스 420" d="M44.327,28.045l-.366-.305H30.428V25.494l13.264,2.245Z" transform="translate(-16.041 -13.44)" fill="none" stroke="#004c87" stroke-linecap="round" stroke-linejoin="round" stroke-width="0.725"/>
    <path id="패스_421" data-name="패스 421" d="M30.429,30.242v2.244l13.264-2.244Z" transform="translate(-16.042 -15.943)" fill="#fff"/>
    <path id="패스_422" data-name="패스 422" d="M30.429,30.242v2.244l13.264-2.244Z" transform="translate(-16.042 -15.943)" fill="none" stroke="#004c87" stroke-linecap="round" stroke-linejoin="round" stroke-width="0.725"/>
    <path id="패스_423" data-name="패스 423" d="M30.088,30.242V43.774l-.306.366.306-.092,2.244-13.806Z" transform="translate(-15.701 -15.943)" fill="#004c87"/>
    <g id="그룹_155" data-name="그룹 155" transform="translate(0 0)">
      <g id="그룹_154" data-name="그룹 154" clip-path="url(#clip-path)">
        <path id="패스_424" data-name="패스 424" d="M29.782,44.14l.305-.366V30.242h2.244L30.088,44.048Z" transform="translate(-15.701 -15.943)" fill="none" stroke="#004c87" stroke-linecap="round" stroke-linejoin="round" stroke-width="0.725"/>
      </g>
    </g>
    <path id="패스_425" data-name="패스 425" d="M27.926,30.242H25.682l2.244,13.806Z" transform="translate(-13.539 -15.943)" fill="#fff"/>
    <g id="그룹_157" data-name="그룹 157" transform="translate(0 0)">
      <g id="그룹_156" data-name="그룹 156" clip-path="url(#clip-path)">
        <path id="패스_426" data-name="패스 426" d="M27.926,30.242H25.682l2.244,13.806Z" transform="translate(-13.539 -15.944)" fill="none" stroke="#004c87" stroke-linecap="round" stroke-linejoin="round" stroke-width="0.725"/>
      </g>
    </g>
    <path id="패스_427" data-name="패스 427" d="M38.16,15.467,37.4,14.7l6.318-4.789Z" transform="translate(-19.715 -5.226)" fill="#004c87"/>
    <path id="패스_428" data-name="패스 428" d="M38.16,15.467,37.4,14.7l6.318-4.789Z" transform="translate(-19.715 -5.226)" fill="none" stroke="#004c87" stroke-linecap="round" stroke-linejoin="round" stroke-width="0.725"/>
    <path id="패스_429" data-name="패스 429" d="M39.012,15.467l.765.765,4.789-6.317Z" transform="translate(-20.567 -5.226)" fill="#fff"/>
    <path id="패스_430" data-name="패스 430" d="M39.012,15.467l.765.765,4.789-6.317Z" transform="translate(-20.567 -5.226)" fill="none" stroke="#004c87" stroke-linecap="round" stroke-linejoin="round" stroke-width="0.725"/>
    <path id="패스_431" data-name="패스 431" d="M15.653,38.824l.764.764L10.1,44.378Z" transform="translate(-5.324 -20.467)" fill="#004c87"/>
    <path id="패스_432" data-name="패스 432" d="M15.653,38.824l.764.764L10.1,44.378Z" transform="translate(-5.324 -20.467)" fill="none" stroke="#004c87" stroke-linecap="round" stroke-linejoin="round" stroke-width="0.725"/>
    <path id="패스_433" data-name="패스 433" d="M15.653,37.972l-.764-.765L10.1,43.525Z" transform="translate(-5.324 -19.615)" fill="#fff"/>
    <path id="패스_434" data-name="패스 434" d="M15.653,37.972l-.764-.765L10.1,43.525Z" transform="translate(-5.324 -19.615)" fill="none" stroke="#004c87" stroke-linecap="round" stroke-linejoin="round" stroke-width="0.725"/>
    <path id="패스_435" data-name="패스 435" d="M38.16,38.625l-.764.764,5.459,3.93Z" transform="translate(-19.715 -20.362)" fill="#fff"/>
    <path id="패스_436" data-name="패스 436" d="M38.16,38.625l-.764.764,5.459,3.93Z" transform="translate(-19.715 -20.362)" fill="none" stroke="#004c87" stroke-linecap="round" stroke-linejoin="round" stroke-width="0.725"/>
    <path id="패스_437" data-name="패스 437" d="M39.012,37.773l.765-.765,3.93,5.459Z" transform="translate(-20.567 -19.51)" fill="#004c87"/>
    <path id="패스_438" data-name="패스 438" d="M39.012,37.773l.765-.765,3.93,5.459Z" transform="translate(-20.567 -19.51)" fill="none" stroke="#004c87" stroke-linecap="round" stroke-linejoin="round" stroke-width="0.725"/>
    <path id="패스_439" data-name="패스 439" d="M15.837,15.466,16.6,14.7l-6.318-4.79Z" transform="translate(-5.421 -5.225)" fill="#fff"/>
    <path id="패스_440" data-name="패스 440" d="M15.837,15.466,16.6,14.7l-6.318-4.79Z" transform="translate(-5.421 -5.225)" fill="none" stroke="#004c87" stroke-linecap="round" stroke-linejoin="round" stroke-width="0.725"/>
    <path id="패스_441" data-name="패스 441" d="M15.837,15.466l-.764.765-4.79-6.318Z" transform="translate(-5.421 -5.225)" fill="#004c87"/>
    <path id="패스_442" data-name="패스 442" d="M15.837,15.466l-.764.765-4.79-6.318Z" transform="translate(-5.421 -5.225)" fill="none" stroke="#004c87" stroke-linecap="round" stroke-linejoin="round" stroke-width="0.725"/>
    <g id="그룹_159" data-name="그룹 159" transform="translate(0 0)">
      <g id="그룹_158" data-name="그룹 158" clip-path="url(#clip-path)">
        <path id="패스_443" data-name="패스 443" d="M0,14.3A14.3,14.3,0,1,1,14.3,28.6,14.3,14.3,0,0,1,0,14.3M14.371,25.137A10.838,10.838,0,1,0,3.533,14.3,10.838,10.838,0,0,0,14.371,25.137" transform="translate(0 0)" fill="#004c87"/>
        <path id="패스_444" data-name="패스 444" d="M22,29.371a7.561,7.561,0,1,0-7.561-7.56A7.561,7.561,0,0,0,22,29.371" transform="translate(-7.612 -7.513)" fill="#004c87"/>
        <path id="패스_445" data-name="패스 445" d="M23.028,29.478a6.637,6.637,0,1,0-6.638-6.637,6.637,6.637,0,0,0,6.638,6.637" transform="translate(-8.641 -8.542)" fill="#00902f"/>
        <path id="패스_446" data-name="패스 446" d="M7.225,13.995,7,13.825l.6-.8-.143-.107-.4.532-.649-.485L7.4,11.645l.649.485-.4.53.142.106.6-.8.227.17Zm1.846-.705-.5-.37-.835,1.115-.227-.17L8.537,12.5l.722.54Zm-1.658-1.24-.61.815.238.178.61-.816Z" transform="translate(-3.379 -6.139)" fill="#fff"/>
        <path id="패스_447" data-name="패스 447" d="M12.5,7.384l-.165-.23,1.5-1.08.165.23Zm1.587-.219-.243.119-.29-.534.294-.138Zm-.794.63-.464-.471.235-.228.441.508Zm-.255.293-.165-.23,1.437-1.032.165.231Zm.217.715-.165-.23.808-.579-.27-.376.255-.182.269.375.805-.578.165.231Z" transform="translate(-6.503 -3.202)" fill="#fff"/>
        <path id="패스_448" data-name="패스 448" d="M19.977,3.141l-.081-.25.619-.2.08.249Zm-.123.469-.085-.262,1.048-.339.085.262Zm2.136.908-.326-1.007-.206.067.3.924-.285.092-.693-2.139.285-.093.306.945.206-.066-.328-1.012.285-.092.741,2.288Zm-.921-.67a.465.465,0,0,1-.02.362.6.6,0,0,1-.719.234A.5.5,0,0,1,20.12,3.8a.6.6,0,0,1,.718-.233.463.463,0,0,1,.23.282m-.289.1a.244.244,0,0,0-.093-.13.184.184,0,0,0-.169-.012.188.188,0,0,0-.13.11.244.244,0,0,0,0,.162.228.228,0,0,0,.092.122.191.191,0,0,0,.172.01.18.18,0,0,0,.127-.107.233.233,0,0,0,0-.155" transform="translate(-10.421 -1.127)" fill="#fff"/>
        <path id="패스_449" data-name="패스 449" d="M29.17,2.065a.532.532,0,0,1-.156.378.569.569,0,0,1-.428.168.558.558,0,0,1-.427-.163A.536.536,0,0,1,28,2.072a.56.56,0,0,1,.58-.561.562.562,0,0,1,.43.168.55.55,0,0,1,.162.385m.716.489v.211l-.313,0-.009-1.4.313,0,0,.405.308,0V2.05l-.308,0,0,.219.307,0,0,.284Zm.056.7a.368.368,0,0,1-.259.387,1.793,1.793,0,0,1-.58.095,1.749,1.749,0,0,1-.576-.087.368.368,0,0,1-.261-.383.372.372,0,0,1,.257-.389,1.674,1.674,0,0,1,.574-.1,1.733,1.733,0,0,1,.581.088.372.372,0,0,1,.264.387M28.862,2.067a.275.275,0,0,0-.078-.187.265.265,0,0,0-.2-.084.254.254,0,0,0-.2.087.276.276,0,0,0-.074.188.255.255,0,0,0,.077.179.261.261,0,0,0,.2.078.268.268,0,0,0,.2-.08.251.251,0,0,0,.076-.18m.766,1.186a.17.17,0,0,0-.149-.171,1.85,1.85,0,0,0-.756,0,.169.169,0,0,0-.145.173.165.165,0,0,0,.147.168,1.571,1.571,0,0,0,.375.033,1.626,1.626,0,0,0,.38-.039.165.165,0,0,0,.148-.169" transform="translate(-14.76 -0.719)" fill="#fff"/>
        <path id="패스_450" data-name="패스 450" d="M36.79,4.52a3.426,3.426,0,0,1-.4-.043,4.564,4.564,0,0,1-.677-.167l.493-1.585.856.266-.084.27-.557-.174L36.1,4.131a2.271,2.271,0,0,0,.394.084,2.121,2.121,0,0,0,.322.023Zm.4.675.318-1.02L37.3,4.111l-.291.933-.286-.089.666-2.142.286.088-.292.939.206.064L37.9,2.9l.286.089-.714,2.3Z" transform="translate(-18.829 -1.437)" fill="#fff"/>
        <path id="패스_451" data-name="패스 451" d="M44.189,5.976l.123-.177.509.356-.124.177ZM43.652,6l.131-.188,1.175.821-.131.187Zm1.274,1.529-.212.3-.259-.181.841-1.2.259.181-.467.669.252.176-.162.232Zm-.463-.393a.315.315,0,0,1-.3.142.974.974,0,0,1-.693-.483.333.333,0,0,1,.327-.468.831.831,0,0,1,.4.164.816.816,0,0,1,.291.322.309.309,0,0,1-.027.323m-.54,1.283.334-.478-1.2-.836.147-.21,1.453,1.016-.481.688Zm.311-1.44a.119.119,0,0,0-.01-.15.707.707,0,0,0-.157-.148.67.67,0,0,0-.191-.1.117.117,0,0,0-.146.041.118.118,0,0,0,.011.151.684.684,0,0,0,.158.149.724.724,0,0,0,.19.1.117.117,0,0,0,.146-.043" transform="translate(-22.7 -3.057)" fill="#fff"/>
        <path id="패스_452" data-name="패스 452" d="M51.04,12.929a7.2,7.2,0,0,1-.594.414,4.532,4.532,0,0,1-.494.265l-.161-.284a3.043,3.043,0,0,0,.4-.215,4.954,4.954,0,0,0,.412-.279L49.7,11.643l.225-.172Zm-2.76-.519.225-.173.332.433.636-.488.183.237-.636.488.206.268.636-.488.183.237-.636.488.5.646-.225.173Z" transform="translate(-25.453 -6.048)" fill="#fff"/>
        <path id="패스_453" data-name="패스 453" d="M2.484,30.043l0-.256,1.094.013v0l-1.091-.257,0-.268,1.1-.226v0L2.5,29.028l0-.254,1.309.015,0,.4-1.035.225v0l1.029.245,0,.4Z" transform="translate(-1.31 -15.17)" fill="#fff"/>
        <path id="패스_454" data-name="패스 454" d="M3.245,32.4c.364-.042.478.154.5.3s-.05.364-.414.405-.478-.154-.5-.3.051-.364.415-.406m-.031-.271a.632.632,0,1,0,.143,1.25.632.632,0,1,0-.143-1.25" transform="translate(-1.368 -16.932)" fill="#fff"/>
        <path id="패스_455" data-name="패스 455" d="M3.064,35.744,3,35.478l1.273-.3.063.266-.518.124.634.362.082.344-.645-.4-.621.729-.082-.341.465-.528-.157-.093Z" transform="translate(-1.582 -18.543)" fill="#fff"/>
        <path id="패스_456" data-name="패스 456" d="M4.533,38.361l.362-.13.074.2c.058.159.032.244-.088.287a.178.178,0,0,1-.261-.122Zm-.213.078.107.295a.4.4,0,0,0,.534.251.383.383,0,0,0,.256-.525l-.2-.562-1.231.445.093.258Z" transform="translate(-1.994 -19.979)" fill="#fff"/>
        <path id="패스_457" data-name="패스 457" d="M5.681,41.013c.328-.164.5-.018.568.113s.078.358-.25.522-.5.018-.569-.113-.078-.358.251-.522m-.122-.245a.632.632,0,1,0,.563,1.126.632.632,0,1,0-.563-1.126" transform="translate(-2.715 -21.441)" fill="#fff"/>
        <path id="패스_458" data-name="패스 458" d="M8.65,44.741l.151.206-1.057.774L7.583,45.5l.438-.983,0,0-.753.551-.151-.206,1.056-.774.17.233-.429.958,0,0Z" transform="translate(-3.751 -23.242)" fill="#fff"/>
        <path id="패스_459" data-name="패스 459" d="M10.064,47.269l0,0-.27.47L9.57,47.5Zm-.71.328.328.355-.141.245.2.218.649-1.227-.214-.232L8.9,47.5l.2.211Z" transform="translate(-4.691 -24.755)" fill="#fff"/>
        <path id="패스_460" data-name="패스 460" d="M11.605,49.491l-.2-.184.722-.8-.294-.265.155-.172.791.714-.156.172-.294-.265Z" transform="translate(-6.011 -25.342)" fill="#fff"/>
        <path id="패스_461" data-name="패스 461" d="M13.152,51.019l-.216-.168.806-1.033.216.168Z" transform="translate(-6.82 -26.264)" fill="#fff"/>
        <path id="패스_462" data-name="패스 462" d="M14.8,51.435c.2-.306.425-.269.548-.188s.247.271.047.578-.425.269-.548.188-.247-.27-.047-.578m-.229-.149a.632.632,0,1,0,.9-.233.612.612,0,0,0-.9.233" transform="translate(-7.608 -26.856)" fill="#fff"/>
        <path id="패스_463" data-name="패스 463" d="M18.236,52.572l.228.113-.585,1.171-.245-.122-.061-1.074h0l-.417.835-.228-.114.585-1.171.258.129.057,1.048,0,0Z" transform="translate(-8.923 -27.524)" fill="#fff"/>
        <path id="패스_464" data-name="패스 464" d="M20.533,54.059h0l-.026.542-.313-.114Zm-.482.616.454.166-.014.281.279.1.017-1.388-.3-.109L19.6,54.8l.27.1Z" transform="translate(-10.334 -28.326)" fill="#fff"/>
        <path id="패스_465" data-name="패스 465" d="M23.11,55.511l.631.158-.057.23-.9-.224.318-1.27.265.067Z" transform="translate(-12.013 -28.682)" fill="#fff"/>
        <path id="패스_466" data-name="패스 466" d="M28.023,56.578l-.254-.021.089-1.09h0l-.333,1.07-.267-.021-.149-1.11h0l-.089,1.09-.254-.02.107-1.3.4.033.152,1.048h0l.317-1.009.394.032Z" transform="translate(-14.107 -29.085)" fill="#fff"/>
        <path id="패스_467" data-name="패스 467" d="M30.759,55.629h0l.183.511-.333.013Zm-.21.753.483-.019.1.266.3-.012-.514-1.289-.315.013-.413,1.327.288-.012Z" transform="translate(-15.911 -29.168)" fill="#fff"/>
        <path id="패스_468" data-name="패스 468" d="M33.487,55.639l-.053-.347.337-.052a.164.164,0,0,1,.216.139c.019.128-.041.187-.182.209Zm-.153.765.265-.042-.078-.506.279-.043c.2-.031.222.036.249.212a.87.87,0,0,0,.07.257l.3-.046-.005-.034c-.061-.012-.068-.059-.1-.248-.037-.242-.1-.272-.215-.3a.313.313,0,0,0,.153-.339.369.369,0,0,0-.464-.3l-.654.1Z" transform="translate(-17.468 -28.997)" fill="#fff"/>
        <path id="패스_469" data-name="패스 469" d="M36.5,55.881l-.266.064-.3-1.275.266-.062Z" transform="translate(-18.942 -28.789)" fill="#fff"/>
        <path id="패스_470" data-name="패스 470" d="M37.93,55.217l-.261.082-.323-1.028-.377.119-.07-.222,1.016-.32.069.222-.377.118Z" transform="translate(-19.453 -28.389)" fill="#fff"/>
        <rect id="사각형_152" data-name="사각형 152" width="0.274" height="1.309" transform="translate(18.639 25.383) rotate(-21.599)" fill="#fff"/>
        <path id="패스_471" data-name="패스 471" d="M42.257,53.239l-.228.113-.489-.979,0,0,.27,1.088-.239.12-.7-.872h0l.489.979-.229.114-.585-1.172.357-.178.673.817h0l-.252-1.028.354-.176Z" transform="translate(-21.371 -27.45)" fill="#fff"/>
        <path id="패스_472" data-name="패스 472" d="M44.4,50.821l-.582.38.15.231.534-.349.126.194-.534.349.185.285.608-.4.126.194-.832.543-.716-1.1.806-.526Z" transform="translate(-22.916 -26.69)" fill="#fff"/>
        <path id="패스_473" data-name="패스 473" d="M47.965,48.67a.461.461,0,0,1-.07.726.559.559,0,0,1-.415.16.475.475,0,0,1-.288-.167l-.581-.645.208-.187.568.632a.229.229,0,0,0,.349.039.226.226,0,0,0,.029-.362l-.577-.641.207-.187Z" transform="translate(-24.572 -25.325)" fill="#fff"/>
        <path id="패스_474" data-name="패스 474" d="M49.238,46.105l.169-.191.98.868-.182.2-1.053-.22,0,0,.7.62-.169.191-.98-.868.191-.216,1.027.215,0,0Z" transform="translate(-25.674 -24.206)" fill="#fff"/>
        <rect id="사각형_153" data-name="사각형 153" width="0.274" height="1.309" transform="matrix(0.6, -0.8, 0.8, 0.6, 23.903, 21.475)" fill="#fff"/>
        <path id="패스_475" data-name="패스 475" d="M51.639,42.82l.153-.24.866,1.078-.14.22-1.341-.33.157-.248.988.3,0,0Z" transform="translate(-26.98 -22.448)" fill="#fff"/>
        <path id="패스_476" data-name="패스 476" d="M53.321,40.465l-.308.622.247.122.283-.572.208.1-.283.572.3.15.322-.65.208.1-.441.891-1.174-.581.427-.863Z" transform="translate(-27.776 -21.278)" fill="#fff"/>
        <path id="패스_477" data-name="패스 477" d="M54.465,38.738l-.329-.119.116-.321a.164.164,0,0,1,.226-.122c.122.044.144.127.1.26Zm.6.5.092-.252-.482-.174.1-.266c.069-.19.138-.177.306-.116a.856.856,0,0,0,.258.063l.1-.285L55.4,38.2c-.041.048-.085.031-.265-.034-.23-.083-.287-.042-.369.043a.313.313,0,0,0-.224-.3.37.37,0,0,0-.489.261l-.226.623Z" transform="translate(-28.38 -19.974)" fill="#fff"/>
        <path id="패스_478" data-name="패스 478" d="M55.749,36.169c.071.016.215.013.271-.22.03-.125.034-.273-.1-.305-.1-.024-.149.065-.213.192l-.065.129c-.1.194-.192.381-.472.313-.141-.034-.373-.171-.273-.583a.444.444,0,0,1,.531-.4l-.061.256c-.059-.007-.2-.018-.255.214-.024.1-.016.23.1.258.1.024.14-.052.166-.1l.151-.291c.085-.163.194-.306.423-.251.383.093.322.491.3.6-.112.465-.4.479-.556.441Z" transform="translate(-28.928 -18.603)" fill="#fff"/>
        <rect id="사각형_154" data-name="사각형 154" width="0.274" height="1.309" transform="matrix(0.161, -0.987, 0.987, 0.161, 26.163, 16.327)" fill="#fff"/>
        <path id="패스_479" data-name="패스 479" d="M56.873,31.822l-.025.272L55.775,32l-.035.394-.231-.021.1-1.06.231.02-.035.394Z" transform="translate(-29.264 -16.507)" fill="#fff"/>
        <path id="패스_480" data-name="패스 480" d="M57.02,29.081l0,.274-.495,0-.812.457,0-.322.567-.275-.57-.256,0-.309.821.432Z" transform="translate(-29.368 -15.106)" fill="#fff"/>
        <path id="패스_481" data-name="패스 481" d="M5.32,20.125a.544.544,0,1,0-.544-.544.544.544,0,0,0,.544.544" transform="translate(-2.518 -10.036)" fill="#fff"/>
        <path id="패스_482" data-name="패스 482" d="M54.585,20.278a.544.544,0,1,0-.544-.544.544.544,0,0,0,.544.544" transform="translate(-28.49 -10.116)" fill="#fff"/>
        <path id="패스_483" data-name="패스 483" d="M27.073,39.707c.078,0,.172,0,.206-.128l.222-.8a.151.151,0,0,0,.007-.038c0-.061-.057-.061-.072-.061a.8.8,0,0,0-.116.009l0-.04a4.136,4.136,0,0,0,.468-.091l-.267.972a.31.31,0,0,0-.021.094c0,.075.059.079.168.079v.04h-.6Z" transform="translate(-14.273 -20.33)" fill="#fff"/>
        <path id="패스_484" data-name="패스 484" d="M29.5,38.75a1.121,1.121,0,0,1-.075.343c-.055.146-.059.154-.135.154-.026,0-.113,0-.113-.121,0,0,.045-.509.235-.509.088,0,.088.082.088.132m-.639,1.016a.9.9,0,0,0,.834-.826c0-.229-.108-.376-.3-.376a.446.446,0,0,0-.433.469.262.262,0,0,0,.261.29.235.235,0,0,0,.106-.024.783.783,0,0,1-.479.424Z" transform="translate(-15.209 -20.33)" fill="#fff"/>
        <path id="패스_485" data-name="패스 485" d="M30.987,38.936a.609.609,0,0,1,.3.116.372.372,0,0,1,.128.284.476.476,0,0,1-.509.461c-.166,0-.224-.08-.224-.132a.1.1,0,0,1,.1-.1c.128,0,.116.166.215.166a.27.27,0,0,0,.234-.277c0-.176-.146-.321-.406-.321l.227-.514h.49l-.062.19h-.439Z" transform="translate(-16.177 -20.358)" fill="#fff"/>
        <path id="패스_486" data-name="패스 486" d="M33.244,38.747a4.1,4.1,0,0,1-.145.641c-.043.145-.1.334-.209.334-.075,0-.089-.077-.089-.118a3.84,3.84,0,0,1,.141-.625c.04-.128.112-.363.211-.363.064,0,.091.046.091.131m.178.208c0-.224-.108-.39-.262-.39-.312,0-.537.468-.537.825,0,.157.06.383.28.383.286,0,.518-.413.518-.818" transform="translate(-17.199 -20.331)" fill="#fff"/>
        <path id="패스_487" data-name="패스 487" d="M29.752,23.635a2.687,2.687,0,0,0-2.684-2.685,2.017,2.017,0,0,0-1.171.377,3.569,3.569,0,0,0-.093-.907c-.181-.832-.584-.952-.584-.952s-.38.108-.585.955a5.025,5.025,0,0,0-.092.9,2.016,2.016,0,0,0-1.17-.377,2.688,2.688,0,0,0-2.685,2.685l-.209,3.524,1.675-.784.209-2.74a1.01,1.01,0,0,1,2.02,0l-.941,3.735h1.288l.488-2.043.488,2.043H27l-.94-3.735a1.01,1.01,0,0,1,2.019,0l.209,2.74,1.675.784Z" transform="translate(-10.796 -10.264)" fill="#fff"/>
        <path id="패스_488" data-name="패스 488" d="M152.868,38.541V34.559h-3.192v3.982h-7.163v1.744h17.518V38.541Z" transform="translate(-75.131 -18.219)" fill="#004c87"/>
        <path id="패스_489" data-name="패스 489" d="M159.436,19.924h-1.746l.582-5.341h1.164V12.839H142.272l.582,1.744h1.164l.582,5.341h-1.745v1.744h16.582ZM147.21,14.583h7.871l-.582,5.341h-6.708Z" transform="translate(-75.004 -6.769)" fill="#004c87"/>
        <path id="패스_490" data-name="패스 490" d="M367.961,32.192V22.516h-3.192v9.676h-1.754V22.516h-3.192v9.676h-3.49v1.744h17.518V32.192Z" transform="translate(-187.855 -11.87)" fill="#004c87"/>
        <path id="패스_491" data-name="패스 491" d="M370.455,26.147h3.192V12.839H357.661l.582,1.744h12.212Z" transform="translate(-188.555 -6.769)" fill="#004c87"/>
        <path id="패스_492" data-name="패스 492" d="M327.789,35.027H314.807v1.744h12.982v4.2h3.192V35.027h-3.192Z" transform="translate(-165.963 -18.466)" fill="#004c87"/>
        <path id="패스_493" data-name="패스 493" d="M347.675,16.135h-2.218V11.61h-3.192V22.037h3.192V17.879h2.218Z" transform="translate(-180.438 -6.121)" fill="#004c87"/>
        <path id="패스_494" data-name="패스 494" d="M312.859,17.712c0,2.38,2.884,4.31,6.441,4.31s6.441-1.93,6.441-4.31a4.067,4.067,0,0,0-2.544-3.426h2.475V12.541H320.9v-.932H317.7v.932h-5.357l.581,1.744H315.4a4.066,4.066,0,0,0-2.543,3.426m6.441,2.925a3.214,3.214,0,0,1-3.439-2.925,3.484,3.484,0,0,1,6.878,0,3.214,3.214,0,0,1-3.439,2.925" transform="translate(-164.665 -6.12)" fill="#004c87"/>
        <path id="패스_495" data-name="패스 495" d="M262.147,15.221V13.477h-2.218V11.609h-3.192V20.55h3.192V18.682h2.218V16.938h-2.218V15.221Z" transform="translate(-135.349 -6.12)" fill="#004c87"/>
        <path id="패스_496" data-name="패스 496" d="M227.432,15.577c0-2.49,2.884-4.509,6.441-4.509s6.441,2.019,6.441,4.509-2.884,4.51-6.441,4.51-6.441-2.019-6.441-4.51m6.441,3.061a3.267,3.267,0,0,0,3.44-3.061,3.463,3.463,0,0,0-6.878,0,3.267,3.267,0,0,0,3.439,3.061" transform="translate(-119.9 -5.835)" fill="#004c87"/>
        <path id="패스_497" data-name="패스 497" d="M232.976,34.563c0-2.29,3.271-4.147,7.307-4.147s7.307,1.857,7.307,4.147-3.272,4.147-7.307,4.147-7.307-1.856-7.307-4.147m7.307,2.71c2.2,0,3.975-1.213,3.975-2.71s-1.779-2.71-3.975-2.71-3.975,1.214-3.975,2.71,1.78,2.71,3.975,2.71" transform="translate(-122.822 -16.035)" fill="#004c87"/>
        <path id="패스_498" data-name="패스 498" d="M213.491,11.609v6.573h-.857V11.609h-2.61v17.03h2.61V19.926h.857v8.713h2.61V11.609Z" transform="translate(-110.722 -6.121)" fill="#004c87"/>
        <path id="패스_499" data-name="패스 499" d="M192.83,14.77h2.6V13.026h-3.918V11.557h-3.192v1.469h-4.5l.582,1.743h2.6a6.011,6.011,0,0,0-2.83,5.14,5.747,5.747,0,1,0,11.485,0,6.011,6.011,0,0,0-2.83-5.14m-2.912,9.537c-1.693,0-3.066-1.969-3.066-4.4s1.373-4.4,3.066-4.4,3.066,1.969,3.066,4.4-1.373,4.4-3.066,4.4" transform="translate(-96.909 -6.093)" fill="#004c87"/>
        <path id="패스_500" data-name="패스 500" d="M109.845,19.883V18.518h6.7V11.609H99.119l.835,1.743h0v3.922a1.26,1.26,0,0,0,1.249,1.244h5.447v1.365H99.49v1.743h17.518V19.883Zm-6.7-6.531h10.2v3.422h-10.2Z" transform="translate(-52.254 -6.12)" fill="#004c87"/>
        <path id="패스_501" data-name="패스 501" d="M100.892,35.027v1.744h13.39v4.2h3.192V35.027Z" transform="translate(-53.189 -18.466)" fill="#004c87"/>
        <path id="패스_502" data-name="패스 502" d="M286.516,11.609v6.573h-.727V11.609h-2.61V24.282h-7.071V13.934h6.481V12.191H272.081l.834,1.744v10.8a1.2,1.2,0,0,0,1.285,1.3h8.978v2.614h2.61V19.926h.727v8.713h2.739V11.609Z" transform="translate(-143.438 -6.12)" fill="#004c87"/>
        <path id="패스_503" data-name="패스 503" d="M73.995,11.482v.993h6.684v.955h1.337V11.482Z" transform="translate(-39.009 -6.054)" fill="#004c87"/>
        <path id="패스_504" data-name="패스 504" d="M82.111,17.42v.859H78.578v.478H77.337v-.478H74V17.42Z" transform="translate(-39.009 -9.184)" fill="#004c87"/>
        <path id="패스_505" data-name="패스 505" d="M73.894,21.055h8.02v2.826H80.673V22.3H73.894Z" transform="translate(-38.956 -11.1)" fill="#004c87"/>
        <path id="패스_506" data-name="패스 506" d="M73.93,30.949h4.678v2.1H75.286v.764h3.3v.764H73.873v-2.1h3.4v-.669H73.911Z" transform="translate(-38.945 -16.316)" fill="#004c87"/>
        <rect id="사각형_155" data-name="사각형 155" width="1.337" height="3.628" transform="translate(41.669 14.633)" fill="#004c87"/>
        <path id="패스_507" data-name="패스 507" d="M73.994,39.836h1.432V40.5h5.156v-.669h1.433v3.437h-8ZM75.426,41.5v.63h5.252v-.649Z" transform="translate(-39.009 -21.001)" fill="#004c87"/>
      </g>
    </g>
  </g>
</svg>
