<svg id="그룹_121" data-name="그룹 121" xmlns="http://www.w3.org/2000/svg" xmlns:xlink="http://www.w3.org/1999/xlink" width="176.932" height="25.07" viewBox="0 0 176.932 25.07">
  <defs>
    <clipPath id="clip-path">
      <rect id="사각형_119" data-name="사각형 119" width="176.932" height="25.069" fill="none"/>
    </clipPath>
    <clipPath id="clip-path-2">
      <path id="패스_197" data-name="패스 197" d="M25.729,3.546a12.962,12.962,0,0,0-3.135,8.985q0,5.866,3.241,9.187a11.24,11.24,0,0,0,8.418,3.322,11.882,11.882,0,0,0,5.612-1.281v1.271h5.016V16.216h-.007l.008-.046H38.874C38.258,18.98,36.748,20.4,34.32,20.4a4.394,4.394,0,0,1-3.638-1.625q-1.3-1.624-1.3-6.191,0-7.906,4.791-7.9c2.625,0,4.034,1.541,4.264,4.579H44.85c-.008-.06-.019-.12-.028-.18h0V.067H39.81V1.172A12.3,12.3,0,0,0,34.293.045a10.9,10.9,0,0,0-8.564,3.5" transform="translate(-22.594 -0.045)" fill="none"/>
    </clipPath>
    <radialGradient id="radial-gradient" cx="0.347" cy="-1.218" r="1.872" gradientUnits="objectBoundingBox">
      <stop offset="0" stop-color="#00adec"/>
      <stop offset="1" stop-color="#001976"/>
    </radialGradient>
    <clipPath id="clip-path-3">
      <path id="패스_198" data-name="패스 198" d="M59.881.038V5.05H61.1V15.721a8.561,8.561,0,0,1-.343,2.823,2.709,2.709,0,0,1-1.37,1.439,4.506,4.506,0,0,1-1.022.369,9.374,9.374,0,0,1-1.013.055,5.506,5.506,0,0,1-2.539-.532,2.706,2.706,0,0,1-1.38-1.439,8.538,8.538,0,0,1-.344-2.823V5.066h1.276V.05H45.218V5.066H46.63V15.614a11.063,11.063,0,0,0,1.08,5.456,7.09,7.09,0,0,0,3.249,2.877,11.1,11.1,0,0,0,3.4.878,18.43,18.43,0,0,0,3.061.24,13.874,13.874,0,0,0,5.8-1.013,7.04,7.04,0,0,0,3.23-2.874,11.123,11.123,0,0,0,1.075-5.458V5.05h1.353V.038Z" transform="translate(-45.218 -0.038)" fill="none"/>
    </clipPath>
    <radialGradient id="radial-gradient-2" cx="-0.04" cy="-1.823" r="1.804" xlink:href="#radial-gradient"/>
    <clipPath id="clip-path-4">
      <path id="패스_199" data-name="패스 199" d="M6.843,4.654h4.1v0a4.221,4.221,0,0,1,3.427,1.623q1.275,1.629,1.273,6.208,0,7.928-4.68,7.927c-.056,0-.108-.006-.161-.007H6.843ZM10.88,0c-.208,0-.412.007-.617.014H.022V5.164H1.817V8.9h0v6.922h0v4.121H0v5.124H10.96a10.49,10.49,0,0,0,8.249-3.511,13.194,13.194,0,0,0,3.064-9.008q0-5.884-3.165-9.212A10.842,10.842,0,0,0,10.88,0Z" fill="none"/>
    </clipPath>
    <radialGradient id="radial-gradient-3" cx="0.734" cy="-0.545" r="1.87" xlink:href="#radial-gradient"/>
  </defs>
  <g id="그룹_114" data-name="그룹 114" transform="translate(0 0.001)">
    <g id="그룹_113" data-name="그룹 113" clip-path="url(#clip-path)">
      <path id="패스_160" data-name="패스 160" d="M79.918,5.2v.1h-.883V.263H76.624V.522a.791.791,0,0,1,.729.787V8.116a2.077,2.077,0,0,1-.65.255l-.912.19-1.729.2a1.165,1.165,0,0,1-.362-.022c-.09-.027-.133-.168-.164-.427V2.175h2.7V1.123H70.954v.261a.791.791,0,0,1,.727.788V8.809c0,.775.242,1.186.72,1.238a5.185,5.185,0,0,0,1.382-.033l2.055-.43a7.95,7.95,0,0,0,.819-.3,2.577,2.577,0,0,0,.7-.418v5.168h1.682V6.354h.883v7.684H81.65V.263H79.918Z" transform="translate(7.45 0.027)" fill="#302d2c"/>
      <path id="패스_161" data-name="패스 161" d="M135.907,5.2v.1h-.884V.263h-2.409V.522a.794.794,0,0,1,.726.787V8.116a2.081,2.081,0,0,1-.649.255l-.912.19-1.732.2a1.167,1.167,0,0,1-.362-.022c-.087-.027-.13-.168-.16-.427V2.175h2.7V1.123H126.94v.261a.793.793,0,0,1,.729.788V8.809c0,.775.241,1.186.718,1.238a5.2,5.2,0,0,0,1.385-.033l2.055-.43a7.912,7.912,0,0,0,.817-.3,2.636,2.636,0,0,0,.7-.418v5.168h1.683V6.354h.884v7.684h1.729V.263h-1.729Z" transform="translate(13.329 0.027)" fill="#302d2c"/>
      <path id="패스_162" data-name="패스 162" d="M94,8.2V7.152H91.406a10.183,10.183,0,0,0,.756-2.046,21.319,21.319,0,0,0,.552-3.324,1.138,1.138,0,0,0-.075-.493.391.391,0,0,0-.373-.248H82.979l.638,1.052H90.7c.01.794-.019,2.141-.085,2.976S90.475,6.7,90.4,7.152H81.769L82.411,8.2h4.4v5.753h1.854V8.2Z" transform="translate(8.586 0.109)" fill="#302d2c"/>
      <path id="패스_163" data-name="패스 163" d="M102.243.263H99.66V.52a.8.8,0,0,1,.729.788v12.73h1.854v-7.6h1.845V5.386h-1.845Z" transform="translate(10.464 0.027)" fill="#302d2c"/>
      <path id="패스_164" data-name="패스 164" d="M99.155,1.041H93.328l.7,1.051h3.485a14.686,14.686,0,0,1-4.774,8.443l.443.536a12.266,12.266,0,0,0,3.929-3.527A12.164,12.164,0,0,0,99.619,1.83a1,1,0,0,0-.011-.507q-.071-.265-.453-.282" transform="translate(9.737 0.109)" fill="#302d2c"/>
      <path id="패스_165" data-name="패스 165" d="M111.287,5.912h3.726V4.86h-6.548a.988.988,0,0,1-.534-.1c-.1-.062-.144-.17-.144-.512V3.814h7.047V2.791h-7.047V1.773h7.219V.721h-9.8v.26a.793.793,0,0,1,.728.787V4.507a1.191,1.191,0,0,0,.452,1.106,1.566,1.566,0,0,0,.891.3h2.183V6.994h-5.285l.639,1.048H116.7V6.994h-5.415Z" transform="translate(10.938 0.075)" fill="#302d2c"/>
      <path id="패스_166" data-name="패스 166" d="M107.939,11.932a.356.356,0,0,1-.055-.217v-.7h6.283a.523.523,0,0,0,.4-.2.723.723,0,0,0,.167-.48V8.428a.372.372,0,0,0-.06-.238.277.277,0,0,0-.218-.07H105.35l.633,1.052h6.9V10H105.3v.259c.49.052.73.3.73.641v.68a2.072,2.072,0,0,0,.261,1.075c.176.294.61.438,1.3.438h7.276v-1.05h-6.736a.278.278,0,0,1-.192-.106" transform="translate(11.057 0.852)" fill="#302d2c"/>
      <path id="패스_167" data-name="패스 167" d="M121.121,7.795a11.975,11.975,0,0,0,2.044-.148,2.562,2.562,0,0,0,1.417-.7V8.762h1.855V.263h-2.585V.52a.794.794,0,0,1,.729.788V6a2.418,2.418,0,0,1-1.576.672c-.635.046-1.382.072-2.227.072H119a.5.5,0,0,1-.4-.158.638.638,0,0,1-.14-.445V4.925h3.463a.526.526,0,0,0,.408-.2.663.663,0,0,0,.181-.463V1.431a.376.376,0,0,0-.063-.24.285.285,0,0,0-.22-.069h-6.075l.638,1.051h3.818V4h-4.761v.261a.789.789,0,0,1,.727.787v1.3a1.433,1.433,0,0,0,.371,1.127,1.386,1.386,0,0,0,.944.323Z" transform="translate(12.164 0.027)" fill="#302d2c"/>
      <path id="패스_168" data-name="패스 168" d="M126.023,8.619h-8.592l.642,1.049h6.357v3.492h1.856V8.925a.374.374,0,0,0-.063-.239.265.265,0,0,0-.2-.067" transform="translate(12.33 0.904)" fill="#302d2c"/>
      <path id="패스_169" data-name="패스 169" d="M150.031,4.377V3.326h-1.843V.262h-2.579V.521a.794.794,0,0,1,.725.788V8.431h1.854V4.377Z" transform="translate(15.289 0.027)" fill="#302d2c"/>
      <path id="패스_170" data-name="패스 170" d="M148.522,8.35h-8.574l.638,1.049h6.343v3.79h1.854V8.661a.363.363,0,0,0-.062-.24.242.242,0,0,0-.2-.071" transform="translate(14.695 0.876)" fill="#302d2c"/>
      <path id="패스_171" data-name="패스 171" d="M145.359,4.842a2.868,2.868,0,0,0-.846-2.023h1.781V1.767h-3.171V.146h-2.588V.407a.79.79,0,0,1,.731.782v.578h-3.559l.64,1.052h1.485a2.868,2.868,0,0,0-.846,2.023,3.193,3.193,0,0,0,6.374,0m-4.35,0c0-1.061.519-1.923,1.162-1.923s1.16.862,1.16,1.923-.518,1.924-1.16,1.924-1.162-.86-1.162-1.924" transform="translate(14.459 0.015)" fill="#302d2c"/>
      <path id="패스_172" data-name="패스 172" d="M156.941,10.726v-5.1h-1.684v5.1h-1.189v-5.1h-2.414v.26a.794.794,0,0,1,.73.787v4.053h-3.031l.64,1.051h11.256V10.726Z" transform="translate(15.682 0.59)" fill="#302d2c"/>
      <path id="패스_173" data-name="패스 173" d="M158.006,2.092c0,1.157,0,2.613-.056,3.686s-.219,2.757-.375,3.632h.914a18.61,18.61,0,0,0,.985-3.354,28.518,28.518,0,0,0,.548-4.275,1.133,1.133,0,0,0-.075-.5.424.424,0,0,0-.387-.243h-9.048l.7,1.051Z" transform="translate(15.804 0.109)" fill="#302d2c"/>
      <path id="패스_174" data-name="패스 174" d="M95.661,21.954a4.2,4.2,0,0,1-1.471.266c-1.469,0-2.037-.941-2.037-2.544,0-1.332.394-2.442,1.995-2.442,1.122,0,1.559.488,1.635,1.064h-.857a.794.794,0,0,0-.843-.724c-.982,0-1.143,1.181-1.143,1.919,0,.807.09,2.392,1.472,2.392a2.13,2.13,0,0,0,1.249-.389Z" transform="translate(9.676 1.809)" fill="#302d2c"/>
      <path id="패스_175" data-name="패스 175" d="M97.519,18.211l.818,2.094H96.752Zm-1.873,3.926h.446l.537-1.492h1.829L99,22.137h.746l-1.751-4.828H96.646v.156c.287.044.549.052.549.339a2.988,2.988,0,0,1-.118.422Z" transform="translate(10.043 1.817)" fill="#302d2c"/>
      <path id="패스_176" data-name="패스 176" d="M100.526,17.645h-.494c-.567,0-.733.178-.778.7h-.2l.027-1.041h3.674l.029,1.062h-.2c0-.552-.225-.725-.776-.725h-.494v4.491h-.786Z" transform="translate(10.401 1.817)" fill="#302d2c"/>
      <path id="패스_177" data-name="패스 177" d="M103.337,18.264c0-.571-.045-.633-.718-.7V17.4l1.509-.165v2.224h1.95V17.317h.788v4.828h-.788V19.8h-1.95v2.347h-.791Z" transform="translate(10.775 1.809)" fill="#302d2c"/>
      <path id="패스_178" data-name="패스 178" d="M108.128,19.748c0-.97.087-2.172,1.2-2.172,1.1,0,1.157,1.233,1.157,2.172,0,.919-.044,2.139-1.157,2.139-1.087,0-1.2-1.25-1.2-2.139m1.2,2.473c1.492,0,1.945-.954,1.945-2.473,0-1.545-.453-2.513-1.945-2.513-1.553,0-1.983.968-1.983,2.513s.475,2.473,1.983,2.473" transform="translate(11.271 1.809)" fill="#302d2c"/>
      <path id="패스_179" data-name="패스 179" d="M111.9,18.264c0-.6-.02-.611-.719-.7V17.4l1.507-.165v4.032c0,.54,0,.54.482.54h.615c.451,0,.846-.03.846-.7h.2l-.02,1.042H111.9Z" transform="translate(11.674 1.809)" fill="#302d2c"/>
      <path id="패스_180" data-name="패스 180" d="M115.421,18.264c0-.6-.024-.611-.717-.7V17.4l1.5-.165v4.91h-.786Z" transform="translate(12.044 1.809)" fill="#302d2c"/>
      <path id="패스_181" data-name="패스 181" d="M120.473,21.954a4.243,4.243,0,0,1-1.475.266c-1.469,0-2.035-.941-2.035-2.544,0-1.332.4-2.442,1.995-2.442,1.12,0,1.556.488,1.635,1.064h-.862a.786.786,0,0,0-.836-.724c-.983,0-1.143,1.181-1.143,1.919,0,.807.087,2.392,1.47,2.392a2.152,2.152,0,0,0,1.252-.389Z" transform="translate(12.281 1.809)" fill="#302d2c"/>
      <path id="패스_182" data-name="패스 182" d="M126.5,20.283c0,.962-.084,1.938-1.7,1.938-1.266,0-1.727-.592-1.727-1.662v-2.3c0-.6-.02-.611-.715-.7V17.4l1.508-.165V20.2c0,.815,0,1.688,1.025,1.688,1.094,0,1.094-.8,1.094-1.522v-3.05h.517Z" transform="translate(12.847 1.809)" fill="#302d2c"/>
      <path id="패스_183" data-name="패스 183" d="M127.373,18.226c0-.669-.1-.64-.716-.761v-.156h1.511l2.264,3.9h.012v-3.9h.452v4.828h-.69l-2.368-4.082h-.013v4.082h-.452Z" transform="translate(13.299 1.817)" fill="#302d2c"/>
      <path id="패스_184" data-name="패스 184" d="M131.817,18.264c0-.6-.023-.611-.717-.7V17.4l1.5-.165v4.91h-.787Z" transform="translate(13.766 1.809)" fill="#302d2c"/>
      <path id="패스_185" data-name="패스 185" d="M133.742,18.226c-.23-.653-.3-.653-.867-.761v-.156h1.392l1.4,3.929h.015l1.37-3.929h.465l-1.75,4.828h-.625Z" transform="translate(13.952 1.817)" fill="#302d2c"/>
      <path id="패스_186" data-name="패스 186" d="M138.072,18.284c0-.712-.025-.712-.683-.819v-.157h3.437l.024,1.062h-.2c0-.575-.3-.725-.775-.725h-.561c-.358,0-.454.028-.454.373v1.425h.872c.492,0,.547-.314.59-.549h.2V20.4h-.2c0-.389-.159-.621-.59-.621h-.872v1.6c0,.4.1.417.454.417h.8c.41,0,.6-.144.649-.7h.2l-.019,1.041h-2.863Z" transform="translate(14.426 1.817)" fill="#302d2c"/>
      <path id="패스_187" data-name="패스 187" d="M142.506,18.292c0-.515,0-.646.481-.646.6,0,1.046.214,1.046.988,0,.806-.652.936-1.12.936h-.407Zm-.79,3.844h.79v-2.23h.444l1.272,2.23h.824l-1.319-2.36a1.124,1.124,0,0,0,1.1-1.186c0-1.282-1.485-1.282-2.022-1.282h-1.768v.156c.67.108.683.108.683.82Z" transform="translate(14.808 1.817)" fill="#302d2c"/>
      <path id="패스_188" data-name="패스 188" d="M147.924,17.9a3.172,3.172,0,0,0-1.284-.322.641.641,0,0,0-.691.692c0,1.106,2.334,1,2.334,2.544,0,1.024-.811,1.41-1.8,1.41a5.328,5.328,0,0,1-1.253-.187v-.577a3.008,3.008,0,0,0,1.369.43.787.787,0,0,0,.9-.842c0-1.161-2.33-1.053-2.33-2.568,0-.789.6-1.242,1.61-1.242a6.026,6.026,0,0,1,1.151.133Z" transform="translate(15.242 1.809)" fill="#302d2c"/>
      <path id="패스_189" data-name="패스 189" d="M149,18.264c0-.6-.02-.611-.719-.7V17.4l1.507-.165v4.91H149Z" transform="translate(15.57 1.809)" fill="#302d2c"/>
      <path id="패스_190" data-name="패스 190" d="M151.7,17.645h-.49c-.569,0-.732.178-.777.7h-.2l.024-1.041h3.673l.032,1.062h-.2c0-.552-.228-.725-.78-.725h-.491v4.491H151.7Z" transform="translate(15.774 1.817)" fill="#302d2c"/>
      <path id="패스_191" data-name="패스 191" d="M155.583,19.885l-1.156-1.938a.838.838,0,0,0-.79-.481v-.157h1.339l1.215,2.115,1.255-2.115h.462l-1.535,2.576v2.252h-.791Z" transform="translate(16.132 1.817)" fill="#302d2c"/>
      <path id="패스_192" data-name="패스 192" d="M72.461,18.078c0-.333.168-.385.585-.385,1.351,0,1.5.814,1.5,2.08,0,1.451-.288,2.074-1.593,2.074-.492,0-.492-.2-.492-.475Zm-.8,4.105h1.07c1.4,0,2.6-.158,2.6-2.427,0-2.027-1-2.4-2.36-2.4H70.987v.158c.662.106.678.106.678.818Z" transform="translate(7.454 1.822)" fill="#302d2c"/>
      <path id="패스_193" data-name="패스 193" d="M77.074,18.261l.819,2.092H76.3ZM75.2,22.184h.446l.538-1.491h1.83l.54,1.491H79.3l-1.755-4.826H76.2v.158c.29.042.551.05.551.335a2.711,2.711,0,0,1-.122.423Z" transform="translate(7.896 1.822)" fill="#302d2c"/>
      <path id="패스_194" data-name="패스 194" d="M79.611,18.333c0-.712-.023-.712-.686-.817v-.159h3.441l.02,1.061h-.2c0-.576-.3-.725-.775-.725h-.558c-.361,0-.454.028-.454.373v1.428h.869c.5,0,.546-.316.589-.551h.2v1.506h-.2c0-.387-.155-.619-.589-.619H80.4v1.6c0,.4.093.418.454.418h.793c.41,0,.6-.143.648-.7h.2l-.02,1.039H79.611Z" transform="translate(8.287 1.822)" fill="#302d2c"/>
      <path id="패스_195" data-name="패스 195" d="M86.456,21.975a5.486,5.486,0,0,1-1.616.3c-1.554,0-2.048-1-2.048-2.569,0-1.42.436-2.414,2.016-2.414,1.066,0,1.535.491,1.592,1.061h-.862a.787.787,0,0,0-.832-.724c-1.027,0-1.128,1.2-1.128,2.134,0,1.187.3,2.179,1.423,2.179a1.868,1.868,0,0,0,.669-.124V20.355c0-.646-.1-.631-.72-.751v-.161h1.506Z" transform="translate(8.693 1.814)" fill="#302d2c"/>
      <path id="패스_196" data-name="패스 196" d="M90.422,20.332c0,.966-.085,1.937-1.706,1.937-1.269,0-1.723-.592-1.723-1.662v-2.3c0-.6-.022-.612-.716-.706v-.158l1.5-.162v2.96c0,.818,0,1.69,1.027,1.69,1.1,0,1.1-.8,1.1-1.524V17.364h.515Z" transform="translate(9.059 1.814)" fill="#302d2c"/>
    </g>
  </g>
  <g id="그룹_116" data-name="그룹 116" transform="translate(24.966 0.05)">
    <g id="그룹_115" data-name="그룹 115" clip-path="url(#clip-path-2)">
      <rect id="사각형_120" data-name="사각형 120" width="32.874" height="31.931" transform="translate(-10.98 18.466) rotate(-59.264)" fill="url(#radial-gradient)"/>
    </g>
  </g>
  <g id="그룹_118" data-name="그룹 118" transform="translate(49.966 0.042)">
    <g id="그룹_117" data-name="그룹 117" clip-path="url(#clip-path-3)">
      <rect id="사각형_121" data-name="사각형 121" width="33.605" height="33.129" transform="translate(-10.995 18.49) rotate(-59.264)" fill="url(#radial-gradient-2)"/>
    </g>
  </g>
  <g id="그룹_120" data-name="그룹 120">
    <g id="그룹_119" data-name="그룹 119" clip-path="url(#clip-path-4)">
      <rect id="사각형_122" data-name="사각형 122" width="32.928" height="31.955" transform="translate(-11.011 18.519) rotate(-59.264)" fill="url(#radial-gradient-3)"/>
    </g>
  </g>
</svg>
