<svg id="그룹_149" data-name="그룹 149" xmlns="http://www.w3.org/2000/svg" xmlns:xlink="http://www.w3.org/1999/xlink" width="174.537" height="28.964" viewBox="0 0 174.537 28.964">
  <defs>
    <clipPath id="clip-path">
      <rect id="사각형_147" data-name="사각형 147" width="174.537" height="28.964" fill="none"/>
    </clipPath>
  </defs>
  <path id="패스_390" data-name="패스 390" d="M164.975,12.627l1.278.473v1.709l-3.865-.007v-.791h-16.4l1.275.539v7.26h15.13V19.918l3.865.01v2.392l2.956.014V12.627ZM159.421,20.1H150.2V15.808l9.221.024Zm2.967-1.938V16.553l3.865,0V18.18Z" transform="translate(-86.473 -7.48)" fill="#003288"/>
  <g id="그룹_148" data-name="그룹 148" transform="translate(0 0)">
    <g id="그룹_147" data-name="그룹 147" clip-path="url(#clip-path)">
      <path id="패스_391" data-name="패스 391" d="M166.154,38.091c-4.817-.009-8.733,1.928-8.739,4.325s3.894,4.347,8.724,4.359,8.734-1.93,8.741-4.327-3.9-4.35-8.727-4.358m4.793,5.494c-.417,1.331-2.881,1.9-5.514,1.26s-4.417-2.245-3.991-3.581,2.887-1.892,5.509-1.261c2.639.649,4.423,2.25,4,3.582" transform="translate(-93.244 -22.563)" fill="#003288"/>
      <path id="패스_392" data-name="패스 392" d="M316.1,16.925H312.5V12.438l-4.359.012,1.307.48V24.414H291.523l-1.465,1.848H309.45v5.254l3.053-.009v-12.8h2.473Z" transform="translate(-171.815 -7.368)" fill="#003288"/>
      <path id="패스_393" data-name="패스 393" d="M305.188,14.1h-7.623V12.56l-4.33.011,1.319.468v1.1h-6.172l-1.425,1.806,3.26-.026a3.883,3.883,0,0,0-1.664,3.016c.015,2.642,3.388,4.764,7.547,4.758s7.522-2.169,7.511-4.813a3.829,3.829,0,0,0-1.68-2.986l1.881-.007Zm-5.25,6.116c-.442,1.322-2.53,1.824-4.65,1.116s-3.487-2.361-3.04-3.7c.441-1.326,2.521-1.826,4.661-1.13,2.108.725,3.479,2.381,3.029,3.719" transform="translate(-169.978 -7.44)" fill="#003288"/>
      <path id="패스_394" data-name="패스 394" d="M90,12.515v4.922l-4.076,0,1.669-2.28c0-1.769-1.442-1.5-1.442-1.5H77.17l-1.522,1.794,8.567-.005L74.889,28.412l-2,.656H77.42l3.9-5.327H90v7.445l2.893.005,0-19.144H88.76Zm0,9.507-7.437.013,2.118-2.891,5.32,0Z" transform="translate(-43.174 -7.136)" fill="#003288"/>
      <path id="패스_395" data-name="패스 395" d="M123.121,12.048l1.249.468-.006,18.677,2.9,0V12.048Z" transform="translate(-72.93 -7.136)" fill="#003288"/>
      <path id="패스_396" data-name="패스 396" d="M235.149,12.107l1.322.479v6.15h-2.365V12.107h-4.4l1.32.479V24.45H220.046V15.491h7.582l.94-1.816H215.652l1.32.488V26.236h14.057v4.991h3.077V20.544h2.365V31.227h3.067V12.107Z" transform="translate(-127.741 -7.171)" fill="#003288"/>
      <path id="패스_397" data-name="패스 397" d="M382.876,28.141l-.011-15.7-20.265,0L361.073,14.3h18.653V28.143h-3.479l-.008-9.628h-4.5l1.367.493v9.139h-3.5V18.511l-4.5-.011,1.359.511v9.133l-6.64,0L358.542,30l26.971,0,1.406-1.854Z" transform="translate(-212.382 -7.368)" fill="#003288"/>
      <path id="패스_398" data-name="패스 398" d="M11.532,0l-.106.028L0,2.965V8.782L.7,9a1.439,1.439,0,0,1,.477.257,1.812,1.812,0,0,1,.614.8V22.18a3.392,3.392,0,0,0,.143.979c.455,1.559,2.071,2.68,4.823,3.331-.015,0,1.265.356,1.265.356a9.143,9.143,0,0,1,1.706.732,5.386,5.386,0,0,1,1.364.958l-.006-.015c.042.049.1.1.19.2l.246.242.432-.421a5.437,5.437,0,0,1,1.362-.963,9.574,9.574,0,0,1,1.733-.738.191.191,0,0,1-.032,0c.1-.024.379-.1,1.3-.357,2.742-.653,4.351-1.771,4.811-3.33a3.434,3.434,0,0,0,.138-.979V10.016a1.993,1.993,0,0,1,.615-.759A1.449,1.449,0,0,1,22.359,9l.7-.218V2.965Z" transform="translate(0 0)" fill="#fff"/>
      <path id="패스_399" data-name="패스 399" d="M26.672,10.451s-.346.43-.574.717a1.129,1.129,0,0,0,.1,1.468c.44.527,2.752,3.282,2.752,3.282l.07.084.066-.084.557-.592a.453.453,0,0,0-.038-.554s-2.747-3.249-2.907-3.44a.79.79,0,0,1-.026-.883" transform="translate(-15.326 -6.191)" fill="#d51a25"/>
      <path id="패스_400" data-name="패스 400" d="M27.1,18.62a.453.453,0,0,0-.038-.55s-2.749-3.252-2.907-3.445a.783.783,0,0,1-.029-.88s-.349.428-.576.715a1.14,1.14,0,0,0,.1,1.472c.441.521,2.752,3.278,2.752,3.278l.059.073h.021l.058-.073Z" transform="translate(-13.818 -8.142)" fill="#d51a25"/>
      <path id="패스_401" data-name="패스 401" d="M21.583,17.04s-.342.426-.575.712a1.144,1.144,0,0,0,.1,1.475c.236.278,1.017,1.21,1.685,2.009h1.616c-.511-.6-2.662-3.143-2.8-3.316a.782.782,0,0,1-.031-.879" transform="translate(-12.313 -10.094)" fill="#d51a25"/>
      <path id="패스_402" data-name="패스 402" d="M31.248,27.358l.011-.013H31.24Z" transform="translate(-18.505 -16.198)" fill="#d51a25"/>
      <path id="패스_403" data-name="패스 403" d="M24.037,41.143s-.672-7-.762-8.043-1.162-1.329-1.162-1.776V28.5h5.052v2.828c0,.447-1.062.741-1.163,1.776l-.761,8.043a.589.589,0,0,1-.568.527.6.6,0,0,1-.636-.527" transform="translate(-13.099 -16.879)" fill="#fff"/>
      <path id="패스_404" data-name="패스 404" d="M23.9,31.993a.709.709,0,0,0,.282.493c.188.2.612.427.65.855.072.832.638,8.152.66,8.407l.016.133c.027.283.073.413.211.413s.157-.186.174-.413l.013-.133c.022-.256.589-7.588.662-8.407.038-.428.459-.655.65-.855a.711.711,0,0,0,.278-.493V30.209H23.9Z" transform="translate(-14.157 -17.894)" fill="#d51a25"/>
      <path id="패스_405" data-name="패스 405" d="M11.532,0l-.106.027L0,2.965V8.783L.7,9a1.434,1.434,0,0,1,.477.257,1.816,1.816,0,0,1,.614.8V22.181a3.406,3.406,0,0,0,.143.978c.455,1.559,2.071,2.68,4.824,3.332-.016,0,1.265.356,1.265.356a9.143,9.143,0,0,1,1.706.732,5.386,5.386,0,0,1,1.364.958l-.006-.015c.042.049.1.1.191.2l.245.242.432-.421a5.426,5.426,0,0,1,1.362-.963,9.573,9.573,0,0,1,1.733-.739.221.221,0,0,1-.032,0c.1-.025.379-.1,1.3-.357,2.742-.654,4.351-1.772,4.811-3.331a3.433,3.433,0,0,0,.139-.978V10.017a1.991,1.991,0,0,1,.614-.759A1.442,1.442,0,0,1,22.359,9l.7-.218V2.965Zm11.1,8.466-.4.126a2.18,2.18,0,0,0-1.39,1.424V22.181c0,1.855-1.562,3.167-4.636,3.895l-1.285.359a9.894,9.894,0,0,0-1.8.772,5.778,5.778,0,0,0-1.461,1.033l-.132.127-.124-.127a5.893,5.893,0,0,0-1.46-1.033,9.772,9.772,0,0,0-1.8-.772l-1.282-.359c-3.077-.728-4.639-2.039-4.639-3.895V10.017A2.177,2.177,0,0,0,.83,8.592l-.4-.126V3.3L11.494.452l.038-.009L22.635,3.3Z" transform="translate(0 -0.001)" fill="#003288"/>
      <path id="패스_406" data-name="패스 406" d="M23.466,6.546c-.2-.053-9.995-2.55-10.059-2.565C13.337,4,3.545,6.493,3.342,6.546v3.5a3.147,3.147,0,0,1,1.811,2.341V24.572c0,1.254,1.276,2.189,3.8,2.785a11.123,11.123,0,0,1,4.458,1.993,11.065,11.065,0,0,1,4.452-1.993c2.516-.6,3.8-1.532,3.8-2.785V12.389a3.148,3.148,0,0,1,1.812-2.341Zm-16,19.21c-.786-.315-1.429-.738-1.555-1.311a.36.36,0,0,1-.023-.2V22.569l4.905-5c.376.269.654.474.708.911a.384.384,0,0,1,.006.042s.146,1.1.316,2.794Zm8.575-8.949c0,.444-1.062.738-1.161,1.774s-.761,8.043-.761,8.043a.586.586,0,0,1-.569.526.606.606,0,0,1-.637-.526s-.673-7-.765-8.043-1.158-1.331-1.158-1.774v-2.83h5.051Zm-1.333-3.3h.023l-.013.01Zm7.668-4.031-5.823,6.641V13.5H14.646l-.011.011-.009-.011h-3.27c-1.087-1.288-1.277-1.525-1.47-1.747a1.372,1.372,0,0,1-.315-1.046,1.868,1.868,0,0,1,.494-.987l3.365-4.058A1.218,1.218,0,0,0,13.4,5.9c0,.468.477.967.894,1.462,0,0,2.113,2.517,2.16,2.575a1.244,1.244,0,0,1,.41.964l3.585-4.1c.949.286,1.682.5,1.927.565Z" transform="translate(-1.98 -2.358)" fill="#003288"/>
      <path id="패스_407" data-name="패스 407" d="M11.859,25.541v1.142l-.741,0,.3-.532c0-.41-.26-.347-.26-.347H9.52l-.278.417,1.56,0-1.7,3.015-.364.153h.826l.711-1.243,1.58,0v1.73l.529,0V25.431l-.755,0Zm0,2.211-1.354,0,.386-.671h.968Z" transform="translate(-5.178 -15.064)" fill="#fff"/>
      <path id="패스_408" data-name="패스 408" d="M18.225,25.434l.23.106v4.342h.528V25.43Z" transform="translate(-10.795 -15.064)" fill="#fff"/>
      <path id="패스_409" data-name="패스 409" d="M39.037,35.27l.247.119v.422l-.755,0v-.2H35.316l.251.133v1.677l2.958.008V37.19l.755,0v.356l.579,0,0-2.285ZM37.947,37h-1.8v-.939l1.807,0Zm.578-.242,0-.511h.752v.512Z" transform="translate(-20.919 -20.892)" fill="#fff"/>
      <path id="패스_410" data-name="패스 410" d="M39.433,41.152c-.884,0-1.6.51-1.6,1.141s.711,1.147,1.594,1.15,1.6-.511,1.6-1.14-.715-1.147-1.594-1.151m.876,1.45c-.074.349-.528.5-1.008.33s-.806-.591-.731-.943.528-.5,1.009-.333.809.594.731.947" transform="translate(-22.411 -24.376)" fill="#fff"/>
    </g>
  </g>
</svg>
