<svg xmlns="http://www.w3.org/2000/svg" xmlns:xlink="http://www.w3.org/1999/xlink" width="200" height="45" viewBox="0 0 200 45">
  <defs>
    <clipPath id="clip-path">
      <rect id="사각형_47" data-name="사각형 47" width="200" height="45" transform="translate(0 0.113)" fill="none"/>
    </clipPath>
  </defs>
  <g id="그룹_41" data-name="그룹 41" transform="translate(0 -0.113)">
    <g id="그룹_41-2" data-name="그룹 41" transform="translate(0 0)" clip-path="url(#clip-path)">
      <path id="패스_30" data-name="패스 30" d="M61.891,25.805H64.1a11.524,11.524,0,0,0,4.618-.93,11.307,11.307,0,0,0,3.769-2.558,11.991,11.991,0,0,0,3.433-8.443V11.961A12.062,12.062,0,0,0,75,7.292,12.288,12.288,0,0,0,72.49,3.5,11.3,11.3,0,0,0,68.721.942,11.525,11.525,0,0,0,64.1.012H53.5V7.7h9.307a5.113,5.113,0,0,1,4,1.449,5.544,5.544,0,0,1,1.274,3.792,5.352,5.352,0,0,1-1.256,3.792,5.185,5.185,0,0,1-4.017,1.378H53.5v8.121L64.254,39.96a10.534,10.534,0,0,0,8.291,4.054h4.138Z" transform="translate(-32.481 -0.007)" fill="#184b9f"/>
      <path id="패스_31" data-name="패스 31" d="M133.356,36.561h21.691a7.407,7.407,0,0,1-7.366,7.447h-22.56V0h29.926a7.407,7.407,0,0,1-7.366,7.447H133.356V18.307h21.691a7.3,7.3,0,0,1-7.263,7.342H133.356Z" transform="translate(-75.958 0.001)" fill="#184b9f"/>
      <path id="패스_32" data-name="패스 32" d="M0,55.4V69.772A7.588,7.588,0,0,0,7.546,77.4H18.788v-22ZM13.639,72.2H8.907a3.779,3.779,0,0,1-3.759-3.8V60.6h8.491Z" transform="translate(0 -33.392)" fill="#184b9f"/>
      <path id="패스_33" data-name="패스 33" d="M0,18.993H18.788V0H0Zm13.639-5.205H5.149V5.2h8.491Z" transform="translate(0 0)" fill="#184b9f"/>
      <path id="패스_34" data-name="패스 34" d="M233.611,46.18q4.042,0,6.062-1.645a4.929,4.929,0,0,0,2.022-3.929v-.848a5.517,5.517,0,0,0-.42-2.228,4.277,4.277,0,0,0-1.418-1.7,10.938,10.938,0,0,0-2.573-1.354,24.922,24.922,0,0,0-3.883-1.088,47.712,47.712,0,0,1-4.987-1.354,14.987,14.987,0,0,1-3.991-1.963,8.756,8.756,0,0,1-2.651-2.97,9.038,9.038,0,0,1-.971-4.379v-.956a9.481,9.481,0,0,1,.788-3.793A9.138,9.138,0,0,1,224,14.709a12.418,12.418,0,0,1,4.069-2.309,16.861,16.861,0,0,1,5.7-.875,21.878,21.878,0,0,1,6.3.849,18.961,18.961,0,0,1,5.25,2.494,5.133,5.133,0,0,1-6.092,2.221q-.313-.11-.628-.2a16.818,16.818,0,0,0-4.777-.638,9.279,9.279,0,0,0-5.7,1.594A4.71,4.71,0,0,0,226,21.715v.848a4.175,4.175,0,0,0,.578,2.255,5.148,5.148,0,0,0,1.679,1.619,11.568,11.568,0,0,0,2.73,1.192q1.627.505,3.728.985a32.016,32.016,0,0,1,5.852,1.83,13.391,13.391,0,0,1,3.754,2.361,7.7,7.7,0,0,1,2.022,2.97,10.424,10.424,0,0,1,.6,3.608v.956a9.46,9.46,0,0,1-3.832,7.936,12.191,12.191,0,0,1-4.279,2.015,20.821,20.821,0,0,1-5.382.664,20.6,20.6,0,0,1-7.427-1.3,21.147,21.147,0,0,1-5.748-3.21l1.02-1.672a3.012,3.012,0,0,1,4.018-1.088,24.9,24.9,0,0,0,2.783,1.3,18.675,18.675,0,0,0,2.861.875,12.293,12.293,0,0,0,2.651.321" transform="translate(-133.724 -6.947)" fill="#1a1311"/>
      <path id="패스_35" data-name="패스 35" d="M311,50.954a17.869,17.869,0,0,1-6.221-1.034,12.8,12.8,0,0,1-4.856-3.158,14.567,14.567,0,0,1-3.175-5.254,21.754,21.754,0,0,1-1.129-7.379V28.349a21.565,21.565,0,0,1,1.129-7.323,14.537,14.537,0,0,1,3.175-5.254,13.026,13.026,0,0,1,4.882-3.184,18.591,18.591,0,0,1,12.39,0,13.026,13.026,0,0,1,4.881,3.184,14.562,14.562,0,0,1,3.177,5.254,21.606,21.606,0,0,1,1.128,7.323v5.782a21.8,21.8,0,0,1-1.128,7.379,14.592,14.592,0,0,1-3.177,5.254,12.772,12.772,0,0,1-4.881,3.158,17.944,17.944,0,0,1-6.2,1.034M311,16.3a11.2,11.2,0,0,0-4.068.719,8.06,8.06,0,0,0-3.2,2.228,10.658,10.658,0,0,0-2.1,3.926,19.25,19.25,0,0,0-.761,5.759v4.616a19.254,19.254,0,0,0,.761,5.759,10.659,10.659,0,0,0,2.1,3.926,8.06,8.06,0,0,0,3.2,2.228,11.87,11.87,0,0,0,8.137,0,8.066,8.066,0,0,0,3.2-2.228,10.659,10.659,0,0,0,2.1-3.926,19.254,19.254,0,0,0,.761-5.759V28.932a19.25,19.25,0,0,0-.761-5.759,10.657,10.657,0,0,0-2.1-3.926,8.066,8.066,0,0,0-3.2-2.228A11.212,11.212,0,0,0,311,16.3" transform="translate(-179.465 -6.947)" fill="#1a1311"/>
      <path id="패스_36" data-name="패스 36" d="M404.8,12.993h0a4.488,4.488,0,0,1-4.463,4.512H386.588V30.293H403.7a4.488,4.488,0,0,1-4.463,4.512h-12.65V51.256h-5.2V12.993Z" transform="translate(-231.532 -7.832)" fill="#1a1311"/>
      <path id="패스_37" data-name="패스 37" d="M451.445,17.543h-2.988v-4.48h23.827a4.488,4.488,0,0,1-4.463,4.512H456.633V51.326h-5.2Z" transform="translate(-272.246 -7.874)" fill="#1a1311"/>
    </g>
  </g>
</svg>
