<svg xmlns="http://www.w3.org/2000/svg" xmlns:xlink="http://www.w3.org/1999/xlink" width="160" height="41.893" viewBox="0 0 160 41.893">
  <defs>
    <clipPath id="clip-path">
      <rect id="사각형_118" data-name="사각형 118" width="160" height="41.893" fill="none"/>
    </clipPath>
  </defs>
  <g id="그룹_112" data-name="그룹 112" transform="translate(0 0)">
    <path id="패스_89" data-name="패스 89" d="M50.6,33.218l-1.25-2.334-.749,1v1.334h-.667V28.468H48.6v2.416l1.833-2.416h.749l-1.416,1.917,1.584,2.834Z" transform="translate(5.27 3.13)" fill="#464849"/>
    <path id="패스_90" data-name="패스 90" d="M53.233,31.3v1.917h-.666V31.3l-1.333-2.834h.749l.917,2.083.916-2.083h.75Z" transform="translate(5.633 3.13)" fill="#464849"/>
    <g id="그룹_111" data-name="그룹 111" transform="translate(0 0)">
      <g id="그룹_110" data-name="그룹 110" clip-path="url(#clip-path)">
        <path id="패스_91" data-name="패스 91" d="M56.419,33.3a1.554,1.554,0,0,1-1.583-1.666V28.468H55.5v3.168a.9.9,0,0,0,.916,1,.946.946,0,0,0,.917-1V28.468H58v3.168A1.6,1.6,0,0,1,56.419,33.3" transform="translate(6.029 3.13)" fill="#464849"/>
        <path id="패스_92" data-name="패스 92" d="M61.488,33.218,59.4,29.884v3.334h-.666V28.468H59.4l2,3.333V28.468h.666v4.751Z" transform="translate(6.459 3.13)" fill="#464849"/>
        <path id="패스_93" data-name="패스 93" d="M65.541,32.718a1.457,1.457,0,0,1-1.167.583,1.685,1.685,0,0,1-1.167-.5c-.416-.5-.416-1-.416-1.917s0-1.5.416-1.917a1.4,1.4,0,0,1,1.167-.5,1.618,1.618,0,0,1,1.583,1.417h-.666c-.168-.5-.416-.75-.917-.75a.945.945,0,0,0-.666.25c-.251.25-.251.5-.251,1.5,0,.917,0,1.167.251,1.416a.756.756,0,0,0,.666.334,1,1,0,0,0,.917-1.083V31.3h-.917v-.667h1.583v.75a1.725,1.725,0,0,1-.416,1.334" transform="translate(6.904 3.13)" fill="#464849"/>
        <path id="패스_94" data-name="패스 94" d="M68.369,31.384H67.286v1.834H66.62V28.467h1.749a1.361,1.361,0,0,1,1.332,1.5,1.335,1.335,0,0,1-1.332,1.416m-.083-2.25h-1v1.583h1a.663.663,0,0,0,.75-.749c0-.5-.251-.834-.75-.834" transform="translate(7.325 3.13)" fill="#464849"/>
        <path id="패스_95" data-name="패스 95" d="M72.9,32.8a1.611,1.611,0,0,1-2.332,0c-.417-.5-.417-1-.417-1.917s0-1.5.417-1.917a1.608,1.608,0,0,1,2.332,0c.416.416.416,1,.416,1.917s0,1.416-.416,1.917m-.5-3.418a1.014,1.014,0,0,0-1.333,0c-.25.25-.25.5-.25,1.5,0,.917,0,1.167.25,1.416a.832.832,0,0,0,1.333,0c.166-.25.25-.5.25-1.416,0-1-.083-1.251-.25-1.5" transform="translate(7.713 3.13)" fill="#464849"/>
        <path id="패스_96" data-name="패스 96" d="M76.656,32.8a2.084,2.084,0,0,1-1.165.5,1.682,1.682,0,0,1-1.167-.5c-.5-.5-.5-1-.5-1.917s0-1.5.5-1.917a1.4,1.4,0,0,1,1.167-.5,1.64,1.64,0,0,1,1.165.5c.417.416.417,1,.417,1.917s0,1.416-.417,1.917m-.583-3.418a.648.648,0,0,0-.583-.25c-.333,0-.584.083-.667.25-.25.25-.333.5-.333,1.5,0,.917.083,1.167.333,1.416.083.251.334.334.667.334a.557.557,0,0,0,.583-.334c.25-.25.334-.5.334-1.416,0-1-.084-1.251-.334-1.5" transform="translate(8.117 3.13)" fill="#464849"/>
        <path id="패스_97" data-name="패스 97" d="M80.393,33.218l-1.25-2.334-.749,1v1.334h-.667V28.468h.667v2.416l1.833-2.416h.832l-1.5,1.917,1.584,2.834Z" transform="translate(8.546 3.13)" fill="#464849"/>
        <path id="패스_98" data-name="패스 98" d="M85.73,33.218l-2.082-3.334v3.334h-.666V28.468h.583L85.647,31.8V28.468h.667v4.751Z" transform="translate(9.124 3.13)" fill="#464849"/>
        <path id="패스_99" data-name="패스 99" d="M89.741,33.218l-.333-.917H87.659l-.334.917h-.666l1.583-4.751h.583l1.583,4.751ZM88.575,29.55l-.666,2.084h1.332Z" transform="translate(9.529 3.13)" fill="#464849"/>
        <path id="패스_100" data-name="패스 100" d="M92.244,29.135v4.084h-.666V29.135H90.412v-.667h3.082v.667Z" transform="translate(9.941 3.13)" fill="#464849"/>
        <rect id="사각형_115" data-name="사각형 115" width="0.749" height="4.834" transform="translate(104.268 31.598)" fill="#464849"/>
        <path id="패스_101" data-name="패스 101" d="M98.338,32.8a1.611,1.611,0,0,1-2.332,0c-.416-.5-.416-1-.416-1.917s0-1.5.416-1.917a1.608,1.608,0,0,1,2.332,0c.417.416.417,1,.417,1.917s0,1.416-.417,1.917m-.5-3.418a1.014,1.014,0,0,0-1.333,0c-.166.25-.25.5-.25,1.5,0,.917.083,1.167.25,1.416a.832.832,0,0,0,1.333,0c.25-.25.25-.5.25-1.416,0-1,0-1.251-.25-1.5" transform="translate(10.511 3.13)" fill="#464849"/>
        <path id="패스_102" data-name="패스 102" d="M102.159,33.218l-2-3.334v3.334h-.667V28.468h.583l2,3.333V28.468h.749v4.751Z" transform="translate(10.94 3.13)" fill="#464849"/>
        <path id="패스_103" data-name="패스 103" d="M106.17,33.218l-.251-.917H104.17l-.333.917h-.666l1.583-4.751h.5l1.666,4.751ZM105,29.55l-.666,2.084h1.332Z" transform="translate(11.344 3.13)" fill="#464849"/>
        <path id="패스_104" data-name="패스 104" d="M107.223,33.218V28.468h.666v4.085h2.167v.666Z" transform="translate(11.79 3.13)" fill="#464849"/>
        <path id="패스_105" data-name="패스 105" d="M113.535,33.3a1.554,1.554,0,0,1-1.583-1.666V28.468h.666v3.168a.9.9,0,0,0,.917,1,.946.946,0,0,0,.916-1V28.468h.667v3.168a1.554,1.554,0,0,1-1.583,1.666" transform="translate(12.31 3.13)" fill="#464849"/>
        <path id="패스_106" data-name="패스 106" d="M118.6,33.218l-2.083-3.334v3.334h-.666V28.468h.666l2,3.333V28.468h.666v4.751Z" transform="translate(12.739 3.13)" fill="#464849"/>
        <rect id="사각형_116" data-name="사각형 116" width="0.75" height="4.834" transform="translate(133.175 31.598)" fill="#464849"/>
        <path id="패스_107" data-name="패스 107" d="M123.249,33.218h-.5l-1.416-4.751H122l1,3.5,1-3.5h.749Z" transform="translate(13.341 3.13)" fill="#464849"/>
        <path id="패스_108" data-name="패스 108" d="M125.086,33.218V28.468h2.833v.667h-2.167v1.416h1.834v.584h-1.834v1.417h2.167v.666Z" transform="translate(13.754 3.13)" fill="#464849"/>
        <path id="패스_109" data-name="패스 109" d="M130.954,33.218l-.916-2H129.2v2h-.666V28.467h1.749a1.292,1.292,0,0,1,1.332,1.417,1.314,1.314,0,0,1-.832,1.25l1,2.083Zm-.749-4.084h-1v1.5h1a.75.75,0,0,0,0-1.5" transform="translate(14.133 3.13)" fill="#464849"/>
        <path id="패스_110" data-name="패스 110" d="M133.491,33.3a1.714,1.714,0,0,1-1.5-.666l.417-.5a1.278,1.278,0,0,0,1.165.5c.583,0,.916-.251.916-.751a.724.724,0,0,0-.249-.5.493.493,0,0,0-.417-.166l-.583-.083a1.584,1.584,0,0,1-.832-.417,1.267,1.267,0,0,1-.334-.834,1.379,1.379,0,0,1,1.5-1.416,2.1,2.1,0,0,1,1.416.5l-.416.5a1.321,1.321,0,0,0-1-.416.769.769,0,0,0-.834.749.64.64,0,0,0,.168.417.718.718,0,0,0,.5.25l.5.083a1.569,1.569,0,0,1,.834.333,1.383,1.383,0,0,1,.416,1,1.479,1.479,0,0,1-1.666,1.417" transform="translate(14.513 3.13)" fill="#464849"/>
        <rect id="사각형_117" data-name="사각형 117" width="0.75" height="4.834" transform="translate(150.586 31.598)" fill="#464849"/>
        <path id="패스_111" data-name="패스 111" d="M139,29.135v4.084h-.666V29.135H137.17v-.667h3.082v.667Z" transform="translate(15.082 3.13)" fill="#464849"/>
        <path id="패스_112" data-name="패스 112" d="M142.246,31.3v1.917h-.666V31.3l-1.333-2.834H141l.916,2.083.917-2.083h.749Z" transform="translate(15.421 3.13)" fill="#464849"/>
        <path id="패스_113" data-name="패스 113" d="M89.034,21.417h6.831v-2.5H90.033V7.246h5.5V4.663h-8.5V19.5a1.839,1.839,0,0,0,2,1.917" transform="translate(9.57 0.513)" fill="#464849"/>
        <path id="패스_114" data-name="패스 114" d="M138.932,18.48V10.895h-3V18.48h-3.249V10.895h-3V18.48h-4v2.584H146.18V18.48Z" transform="translate(13.82 1.198)" fill="#464849"/>
        <path id="패스_115" data-name="패스 115" d="M85.481,19.216v7h-3V20.3H68.153V17.8h7.08V15.715H67.07V13.3H86.647v2.417H78.233V17.8h5.915a1.333,1.333,0,0,1,1.333,1.417" transform="translate(7.375 1.462)" fill="#464849"/>
        <path id="패스_116" data-name="패스 116" d="M69.2,12.6H85.365V4.513h-3V6.179H71.036V4.513H68.121v6.834A1.145,1.145,0,0,0,69.2,12.6m13.163-2.5H71.037V8.514H82.366Z" transform="translate(7.49 0.496)" fill="#464849"/>
        <path id="패스_117" data-name="패스 117" d="M101.939,10.522H99.106V4.437H96.19V22.024h2.916V13.106h2.833v8.918h2.916V4.437h-2.916Z" transform="translate(10.577 0.488)" fill="#464849"/>
        <path id="패스_118" data-name="패스 118" d="M144.489,6.48v9.169h-3V7.313H126.662v-2.5H142.74a1.563,1.563,0,0,1,1.749,1.667" transform="translate(13.927 0.529)" fill="#464849"/>
        <path id="패스_119" data-name="패스 119" d="M123.276,19.189H107.781v2.584h13.912v5.585h2.916v-7a1.136,1.136,0,0,0-1.333-1.168m1.333-9.418V4.52h-3v13.17h3V12.355h2.666V9.771ZM110.947,8.438a5.187,5.187,0,0,0-4,4.667c0,2.75,2.582,4.917,5.581,4.917s5.581-2.167,5.581-4.917c0-2.168-1.833-4.168-4.331-4.752V7.686h4.748v-2.5h-4.665v-1.5h-2.916v1.5H106.7v2.5h4.415v.667Zm1.583,2.25a2.535,2.535,0,0,1,2.666,2.417,2.534,2.534,0,0,1-2.666,2.416,2.588,2.588,0,0,1-2.666-2.416,2.588,2.588,0,0,1,2.666-2.417" transform="translate(11.732 0.406)" fill="#464849"/>
        <path id="패스_120" data-name="패스 120" d="M66.3,20.518h0c0-3-3.332-5.417-7.5-5.417s-7.5,2.416-7.5,5.417,3.333,5.419,7.5,5.419,7.5-2.417,7.5-5.419m-7.5,3.085c-2.415,0-4.5-1.334-4.5-3.085,0-1.666,2.083-3.083,4.5-3.083,2.082,0,4.582,1.167,4.582,3.083,0,2-2.5,3.085-4.582,3.085" transform="translate(5.642 1.661)" fill="#464849"/>
        <path id="패스_121" data-name="패스 121" d="M57.353,4.7H48.19V7.029h6.747A4.67,4.67,0,0,1,54.6,8.863c-1.583,4.667-6.749,5.5-6.749,5.5v2.251C58.6,15.114,58.1,5.529,58.1,5.529a.838.838,0,0,0-.75-.832m6.165-.334V6.7H58.852V9.279h4.665v1.752H58.769v2.5h4.748v3H66.6V4.362Z" transform="translate(5.262 0.48)" fill="#464849"/>
        <path id="패스_122" data-name="패스 122" d="M20.935,41.179A20.247,20.247,0,1,1,41.157,20.946,20.213,20.213,0,0,1,20.935,41.179M20.935,0A20.947,20.947,0,1,0,41.869,20.946,20.939,20.939,0,0,0,20.935,0" transform="translate(0 0)" fill="#bc0015"/>
        <path id="패스_123" data-name="패스 123" d="M30.785,15.477a2.559,2.559,0,0,0-.629-.9,2.065,2.065,0,0,0-2.22-.44.477.477,0,0,1-.466-.054,1.589,1.589,0,0,0-2.028.082,8.07,8.07,0,0,1,2.877,6.168,8.779,8.779,0,0,1-.219,1.919,1.55,1.55,0,0,0,1.644-1.123.537.537,0,0,1,.356-.33,2.043,2.043,0,0,0,1.562-1.645,3.39,3.39,0,0,0-.028-1.1,2.085,2.085,0,0,1,.193-1.481,2.207,2.207,0,0,1-1.042-1.1M33,16.518a.142.142,0,0,0-.054.111c-.438.657-.412.849-.33,1.261a3.958,3.958,0,0,1,0,1.425A2.988,2.988,0,0,1,30.593,21.7a2.52,2.52,0,0,1-1.507,1.425,2.515,2.515,0,0,1,.384,2.027,3.045,3.045,0,0,1,.248,3.153,4.082,4.082,0,0,1-.85,1.151c-.3.275-.438.413-.493,1.234v.11l-.028.028-.028.054-.027.054v.028l-.055.028-.027.028-.028.027-.054.03L28.1,31.1a.1.1,0,0,1-.055.028.472.472,0,0,1-.191.027.168.168,0,0,1-.11-.027c-.768-.193-.959-.11-1.315.082a3.671,3.671,0,0,1-1.342.465,3.024,3.024,0,0,1-2.906-1.205,2.53,2.53,0,0,1-1.836-1.016A2.545,2.545,0,0,1,18.51,30.5a3.024,3.024,0,0,1-2.9,1.205,3.483,3.483,0,0,1-1.343-.466,1.49,1.49,0,0,0-1.342-.082.513.513,0,0,1-.521-.164l-.028-.055-.027-.028c-.028-.054-.028-.135-.055-.191-.028-.822-.165-.959-.465-1.262a3.427,3.427,0,0,1-.85-1.122,3.041,3.041,0,0,1,.246-3.153,2.426,2.426,0,0,1,.384-2.03A2.444,2.444,0,0,1,10.1,21.729a3.012,3.012,0,0,1-2.056-2.388,3.848,3.848,0,0,1,.028-1.425,1.435,1.435,0,0,0-.33-1.286.563.563,0,0,1-.082-.3v-.082c0-.028.028-.054.028-.081a.531.531,0,0,1,.274-.275c.768-.3.849-.465,1.042-.851a3.987,3.987,0,0,1,.821-1.178,3,3,0,0,1,3.042-.713,2.657,2.657,0,0,1,2.081-.275,2.47,2.47,0,0,1,.877-1.864,2.922,2.922,0,0,1,1.645-2.686,3.8,3.8,0,0,1,1.369-.438c.385-.055.6-.083,1.1-.713h.028c0-.029.028-.055.054-.083h.028c0-.028.028-.028.054-.054h.028l.055-.026h.054l.054-.03h.082l.028.03a.438.438,0,0,1,.246.08c.028.028.055.083.083.11.493.6.711.63,1.1.686a3.783,3.783,0,0,1,1.369.438,3.031,3.031,0,0,1,1.646,2.686,2.473,2.473,0,0,1,.876,1.864,2.535,2.535,0,0,1,2.082.248,3.011,3.011,0,0,1,3.069.74,3.721,3.721,0,0,1,.822,1.178c.164.357.274.549,1.014.824.027.028.081.028.109.055A.393.393,0,0,1,33,16.19v.027l.028.055v.054a.462.462,0,0,1-.028.192M20.345,5.36A14.983,14.983,0,1,0,35.307,20.329,14.991,14.991,0,0,0,20.345,5.36M20.318,12.3a7.905,7.905,0,0,1,4.276,1.26,1.584,1.584,0,0,0-.577-1.945.551.551,0,0,1-.191-.441A2.03,2.03,0,0,0,22.757,9.2a3.086,3.086,0,0,0-1.069-.329,2.1,2.1,0,0,1-1.37-.63,2.092,2.092,0,0,1-1.342.63,3.1,3.1,0,0,0-1.07.329,2.135,2.135,0,0,0-1.1,1.973.461.461,0,0,1-.164.441,1.55,1.55,0,0,0-.576,1.919A8.009,8.009,0,0,1,20.318,12.3m4.192,7.648.63-.163.192-.632.383.548h.632l-.384.494.191.63-.6-.219-.521.384v-.659Zm-.986-2.822.629-.194.219-.63.356.548h.658l-.412.522.221.6-.63-.219-.521.383.028-.629Zm-.192,9.156a.212.212,0,0,1-.192.22H17.523a.213.213,0,0,1-.192-.22v-.193a.2.2,0,0,1,.192-.22h5.617a.2.2,0,0,1,.192.22Zm-6.659-8.144-.521-.383-.632.219.22-.6-.411-.522h.657l.356-.548.22.63.629.194-.547.383Zm-.987,2.853-.521-.384-.6.219.192-.63-.384-.494H15l.384-.548.192.632.63.163-.521.384Zm1.863,3.947a.188.188,0,0,1,.192-.191h5.179a.187.187,0,0,1,.192.191v.219a.212.212,0,0,1-.192.22H17.742a.213.213,0,0,1-.192-.22Zm.3-1.124a.211.211,0,0,1,.22-.191h4.521a.212.212,0,0,1,.22.191v.22a.236.236,0,0,1-.22.22H18.072a.235.235,0,0,1-.22-.22Zm.713-8.774.384-.546.192.629.629.165-.519.385v.656l-.521-.383-.6.22.191-.633-.382-.494ZM22.017,18a.212.212,0,0,1,.219.192v.219a.235.235,0,0,1-.219.219H18.646a.234.234,0,0,1-.219-.219v-.219A.211.211,0,0,1,18.646,18Zm-3.481,4.5h3.59a.189.189,0,0,1,.192.194v.219a.213.213,0,0,1-.192.22h-3.59a.214.214,0,0,1-.192-.22v-.219a.189.189,0,0,1,.192-.194m3.481-2.74H18.646a.235.235,0,0,1-.219-.219v-.22a.212.212,0,0,1,.219-.193h3.371a.213.213,0,0,1,.219.193v.22a.236.236,0,0,1-.219.219m-3.233.9v-.22A.211.211,0,0,1,19,20.248H21.66a.21.21,0,0,1,.22.191v.22a.235.235,0,0,1-.22.22H19a.236.236,0,0,1-.219-.22m.027.713h3.041a.188.188,0,0,1,.193.192v.219a.212.212,0,0,1-.193.219H18.811a.212.212,0,0,1-.192-.219v-.219a.188.188,0,0,1,.192-.192m2.768-6.251.192-.629.383.546h.63l-.384.494.192.633-.6-.22-.522.383V15.67l-.519-.385Zm5.836,5.209a7.111,7.111,0,1,0-7.1,7.1,7.1,7.1,0,0,0,7.1-7.1M12.866,23.318a1.52,1.52,0,0,0-.632,1.865.5.5,0,0,1-.11.466,2.063,2.063,0,0,0-.273,2.22,3.223,3.223,0,0,0,.657.877,2.279,2.279,0,0,1,.739,1.344,2.137,2.137,0,0,1,1.481.274,2.808,2.808,0,0,0,1.041.356,2.08,2.08,0,0,0,2.027-.959.511.511,0,0,1,.413-.246A1.55,1.55,0,0,0,19.8,28.336a8.065,8.065,0,0,1-6.932-5.018m15.59,1.836a1.538,1.538,0,0,0-.686-1.891,8.088,8.088,0,0,1-6.877,5.074,1.521,1.521,0,0,0,1.562,1.15.473.473,0,0,1,.412.248,2.087,2.087,0,0,0,2.055.959,2.8,2.8,0,0,0,1.042-.357,2.121,2.121,0,0,1,1.48-.274,2.1,2.1,0,0,1,.713-1.315,3.361,3.361,0,0,0,.685-.9,2.084,2.084,0,0,0-.275-2.222.433.433,0,0,1-.109-.466m-15.92-2.878a7.736,7.736,0,0,1-.246-1.947,8.013,8.013,0,0,1,2.9-6.168,1.5,1.5,0,0,0-1.973-.055.61.61,0,0,1-.494.055,2.042,2.042,0,0,0-2.19.412,3.43,3.43,0,0,0-.659.9,2.022,2.022,0,0,1-1.013,1.1,2.184,2.184,0,0,1,.192,1.508,2.76,2.76,0,0,0-.028,1.1,2.078,2.078,0,0,0,1.534,1.645.572.572,0,0,1,.384.33,1.544,1.544,0,0,0,1.589,1.123" transform="translate(0.589 0.59)" fill="#bc0015"/>
        <path id="패스_124" data-name="패스 124" d="M7.875,27.749l-.711,1.727.711-.028.85-.713.41.521L6.34,31.587l-.411-.494,1.205-1.039-1.972.108-.521-.6,1.836-.083.9-2.33Z" transform="translate(0.51 2.985)" fill="#bc0015"/>
        <path id="패스_125" data-name="패스 125" d="M5.52,26.676l1.288-.74.329.576-1.286.74L4.479,29.2l-.356-.63.959-1.26-1.588.19-.357-.629Z" transform="translate(0.345 2.852)" fill="#bc0015"/>
        <path id="패스_126" data-name="패스 126" d="M5.938,23.99a1.22,1.22,0,0,1-.767,1.618l-2.248.821L2.7,25.8l2.22-.8a.6.6,0,1,0-.412-1.122l-2.22.821-.219-.632,2.247-.794a1.2,1.2,0,0,1,1.617.713" transform="translate(0.228 2.549)" fill="#bc0015"/>
        <path id="패스_127" data-name="패스 127" d="M5.1,20.657l-2,1.673L5.323,22l.111.63-3.617.576-.083-.6,2-1.645-2.191.33-.11-.659,3.591-.546Z" transform="translate(0.158 2.208)" fill="#bc0015"/>
        <path id="패스_128" data-name="패스 128" d="M4.7,17.677a1.262,1.262,0,0,1-.055,1.866,1.9,1.9,0,0,1-1.452.272c-.63-.027-1.1-.027-1.452-.383a1.24,1.24,0,0,1-.356-.932A1.282,1.282,0,0,1,2.59,17.265l-.029.686a.583.583,0,0,0-.355,1.014c.135.137.3.164,1.013.192.685.028.877,0,1.014-.109a.541.541,0,0,0,.219-.441.568.568,0,0,0-.192-.466.692.692,0,0,0-.466-.163H3.657l-.028.6h-.6l.055-1.289H3.6a1.549,1.549,0,0,1,1.1.384" transform="translate(0.152 1.899)" fill="#bc0015"/>
        <path id="패스_129" data-name="패스 129" d="M2.509,15.322l-.137.6.959.193.137-.6a.46.46,0,0,0-.383-.577.461.461,0,0,0-.576.385m1.589.3-.137.658,1.342.275-.163.658-3.535-.8.274-1.289a1.106,1.106,0,0,1,1.369-.85,1.071,1.071,0,0,1,.85,1.344" transform="translate(0.176 1.567)" fill="#bc0015"/>
        <path id="패스_130" data-name="패스 130" d="M3.683,12.247a.451.451,0,0,0-.33.3.468.468,0,0,0,0,.467c.082.191.246.273.877.547.658.276.821.3,1.013.245a.442.442,0,0,0,.329-.3.544.544,0,0,0,0-.466c-.081-.193-.246-.3-.876-.575-.658-.246-.822-.3-1.013-.22m2.465.493a1.227,1.227,0,0,1-.711,1.7c-.467.165-.878-.028-1.454-.275-.575-.219-1.013-.411-1.205-.849A1.2,1.2,0,0,1,2.751,12.3a1.227,1.227,0,0,1,.739-.687,1.933,1.933,0,0,1,1.453.249c.575.245,1.014.412,1.205.877" transform="translate(0.292 1.27)" fill="#bc0015"/>
        <path id="패스_131" data-name="패스 131" d="M5.2,9.578a.478.478,0,0,0-.41.245.562.562,0,0,0-.055.467c.055.191.164.3.767.685.576.384.74.467.931.438a.648.648,0,0,0,.412-.246A.57.57,0,0,0,6.9,10.7c-.054-.193-.164-.332-.767-.713-.575-.387-.74-.44-.932-.412m2.33.931a1.16,1.16,0,0,1-.164.987,1.179,1.179,0,0,1-.849.548c-.493.084-.85-.163-1.4-.522-.521-.329-.9-.574-1.014-1.068A1.249,1.249,0,0,1,5.117,8.918c.493-.081.848.166,1.4.524.521.355.9.6,1.013,1.068" transform="translate(0.446 0.979)" fill="#bc0015"/>
        <path id="패스_132" data-name="패스 132" d="M9.528,8.944,7.748,8.45l.082.685.794.768-.466.466-2.6-2.492.438-.5,1.15,1.1L6.815,6.531l.575-.6.274,1.838,2.412.629Z" transform="translate(0.611 0.652)" fill="#bc0015"/>
        <path id="패스_133" data-name="패스 133" d="M12.357,6.907,10.027,5.7,11.206,7.62l-.575.33-1.891-3.1.493-.3,2.3,1.207-1.15-1.919.548-.331,1.917,3.1Z" transform="translate(0.961 0.386)" fill="#bc0015"/>
        <path id="패스_134" data-name="패스 134" d="M13.147,3.641l.081,1.4.768-.3Zm1.644,2.111-.411-.522-1.123.441.028.657-.632.246-.137-3.838.493-.191,2.439,2.988Z" transform="translate(1.376 0.28)" fill="#bc0015"/>
        <path id="패스_135" data-name="패스 135" d="M16.16,2.4l.575,2.961-.657.11L15.5,2.54l-.877.162-.11-.629L16.9,1.606l.138.63Z" transform="translate(1.596 0.177)" fill="#bc0015"/>
        <path id="패스_136" data-name="패스 136" d="M17.654,5.206,17.38,1.559l.658-.027.273,3.62Z" transform="translate(1.911 0.169)" fill="#bc0015"/>
        <path id="패스_137" data-name="패스 137" d="M20.466,2.358a.448.448,0,0,0-.411-.219.523.523,0,0,0-.44.163c-.137.137-.164.3-.219,1.014-.027.685,0,.85.11,1.013a.485.485,0,0,0,.411.221.5.5,0,0,0,.44-.165c.135-.137.191-.3.219-1.014.055-.686.027-.877-.11-1.013m.356,2.494a1.293,1.293,0,0,1-1.836-.109,2.109,2.109,0,0,1-.246-1.482,1.933,1.933,0,0,1,.411-1.425,1.217,1.217,0,0,1,.959-.33,1.069,1.069,0,0,1,.877.44,1.856,1.856,0,0,1,.246,1.481,1.964,1.964,0,0,1-.411,1.425" transform="translate(2.059 0.165)" fill="#bc0015"/>
        <path id="패스_138" data-name="패스 138" d="M23.3,5.784l-.767-2.522-.548,2.166-.63-.163.877-3.51.576.135.767,2.5.548-2.166.629.164-.9,3.539Z" transform="translate(2.348 0.193)" fill="#bc0015"/>
        <path id="패스_139" data-name="패스 139" d="M26.29,4.159l-.96,1.017.768.356Zm-.384,2.661.082-.657-1.1-.522-.438.494-.63-.3,2.657-2.769.467.248-.412,3.81Z" transform="translate(2.62 0.337)" fill="#bc0015"/>
        <path id="패스_140" data-name="패스 140" d="M26.415,7.136l2.11-2.961.548.384L27.32,7.027l1.261.877-.356.521Z" transform="translate(2.904 0.459)" fill="#bc0015"/>
        <path id="패스_141" data-name="패스 141" d="M29.633,9.918a1.217,1.217,0,0,1,.11-1.781l1.781-1.592.437.494L30.208,8.6a.608.608,0,0,0-.11.9A.6.6,0,0,0,31,9.479l1.754-1.561.437.493L31.414,10a1.208,1.208,0,0,1-1.78-.082" transform="translate(3.221 0.72)" fill="#bc0015"/>
        <path id="패스_142" data-name="패스 142" d="M31.675,12.731l1.233-2.3L30.99,11.552l-.329-.576L33.785,9.14l.3.519-1.232,2.278,1.918-1.125.329.575-3.123,1.838Z" transform="translate(3.371 1.005)" fill="#bc0015"/>
        <path id="패스_143" data-name="패스 143" d="M32.019,13.475,35.39,12.1l.246.6-3.343,1.371Z" transform="translate(3.521 1.331)" fill="#bc0015"/>
        <path id="패스_144" data-name="패스 144" d="M32.774,15.712l-.137-.466,3.206-2.056.191.657-2.109,1.291,2.466.027.191.657Z" transform="translate(3.589 1.451)" fill="#bc0015"/>
        <path id="패스_145" data-name="패스 145" d="M33.056,16.686l3.617-.384.22,2.222-.632.081L36.1,17.043l-.849.082.137,1.316-.63.083-.135-1.344-.878.081.165,1.592-.632.053Z" transform="translate(3.635 1.793)" fill="#bc0015"/>
        <path id="패스_146" data-name="패스 146" d="M36.177,20.578l.055-.634-.959-.081-.055.632a.481.481,0,1,0,.959.083m-3.041.273,1.506-.548.028-.465-1.452-.112.054-.656,3.644.274-.109,1.314a1.047,1.047,0,0,1-1.179,1.015,1,1,0,0,1-.931-.683l-1.617.628Z" transform="translate(3.637 2.097)" fill="#bc0015"/>
        <path id="패스_147" data-name="패스 147" d="M32.765,22.609a1.531,1.531,0,0,1,.795-1.069l.329.521a1.035,1.035,0,0,0-.493.713c-.11.383,0,.629.274.686A.336.336,0,0,0,34,23.43c.082-.028.138-.11.191-.248l.165-.382a1.118,1.118,0,0,1,.466-.577A1.135,1.135,0,0,1,36.354,23.6a1.5,1.5,0,0,1-.685.959l-.329-.521a.906.906,0,0,0,.41-.6.466.466,0,0,0-.327-.629.324.324,0,0,0-.274.027.559.559,0,0,0-.219.274l-.138.384a1.32,1.32,0,0,1-.438.548,1.026,1.026,0,0,1-.822.053,1.116,1.116,0,0,1-.767-1.478" transform="translate(3.597 2.369)" fill="#bc0015"/>
        <path id="패스_148" data-name="패스 148" d="M32.389,23.96,35.76,25.3l-.246.6-3.371-1.315Z" transform="translate(3.534 2.635)" fill="#bc0015"/>
        <path id="패스_149" data-name="패스 149" d="M34.035,27.542l-2.658-1.425.329-.575,2.632,1.425.437-.8.548.3-1.151,2.138-.547-.3Z" transform="translate(3.45 2.809)" fill="#bc0015"/>
        <path id="패스_150" data-name="패스 150" d="M31.3,28.92l-1.178-.906.383-.547,1.207.9,2.329.494-.438.574-1.562-.381.794,1.4-.437.577Z" transform="translate(3.312 3.02)" fill="#bc0015"/>
        <path id="패스_151" data-name="패스 151" d="M16.585,35.564l-.33,1.261-.547-.135.274-1.071-2.576-.685.138-.466,1.26.356.11-.384-1.48-.382.11-.441,3.534.933-.109.411-1.507-.384-.11.384,1.069.274a.255.255,0,0,1,.164.329" transform="translate(1.474 3.697)" fill="#bc0015"/>
        <path id="패스_152" data-name="패스 152" d="M16.537,33.486l-.055.274-2.055-.522.082-.3Zm-2.548.108,2.9.768.383-1.481-.548-.138-.081.3-2.028-.521.081-.3-.547-.137-.3,1.234a.2.2,0,0,0,.138.273" transform="translate(1.521 3.528)" fill="#bc0015"/>
        <path id="패스_153" data-name="패스 153" d="M17.859,36.15h1.289v-.465h-1.1V33.518h1.014v-.494H17.5v2.77a.327.327,0,0,0,.356.355" transform="translate(1.924 3.631)" fill="#bc0015"/>
        <path id="패스_154" data-name="패스 154" d="M20.275,34.124h-.521V33h-.548v3.262h.548V34.618h.521v1.645h.548V33h-.548Z" transform="translate(2.112 3.629)" fill="#bc0015"/>
        <path id="패스_155" data-name="패스 155" d="M28.138,33.1l-.685-1.233-.493.274.713,1.234-.548.327-.713-1.234-.466.275.686,1.234L26,34.332l.246.411,3.315-1.891-.246-.412Z" transform="translate(2.853 3.504)" fill="#bc0015"/>
        <path id="패스_156" data-name="패스 156" d="M28,30.7l.85,1.48-.494.274-.768-1.342L25.2,32.45l-.246-.411,2.6-1.482A.308.308,0,0,1,28,30.7" transform="translate(2.744 3.355)" fill="#bc0015"/>
        <path id="패스_157" data-name="패스 157" d="M22.544,33.686a.458.458,0,0,1,.6.3.464.464,0,0,1-.356.548.456.456,0,0,1-.6-.3.464.464,0,0,1,.356-.548m-.383-.359a.969.969,0,0,0-.494,1.043A.992.992,0,0,0,22.9,35a.973.973,0,0,0,.767-1.151,1,1,0,0,0-.986-.657l-.028-.112.822-.219-.111-.466-.821.22-.082-.274-.521.139.081.273-.767.193.111.466.795-.22.027.135Zm2.521-.382-.246-.932-.522.135.6,2.359.548-.137-.246-.959.465-.138-.109-.441ZM24.9,34.7l-2.823.74.138.438,2.494-.632.273,1.016L25.5,36.1l-.3-1.26a.231.231,0,0,0-.3-.139" transform="translate(2.337 3.52)" fill="#bc0015"/>
        <path id="패스_158" data-name="패스 158" d="M11.119,34.619c-.412-.192-.658-.6-.521-.878s.6-.355,1.013-.165c.356.165.685.551.521.879s-.657.327-1.013.164m1.506.081h0a1.24,1.24,0,0,0-.821-1.533,1.259,1.259,0,0,0-1.7.326c-.246.5.137,1.18.822,1.508.713.331,1.48.193,1.7-.3" transform="translate(1.103 3.628)" fill="#bc0015"/>
        <path id="패스_159" data-name="패스 159" d="M13.492,31.78l-.192.384-.767-.356-.22.412.8.383-.138.3-.822-.384-.191.44.795.356-.22.521.521.22.959-2.029Zm-1.069-.438-1.534-.713-.192.384,1.15.547a2.747,2.747,0,0,1-.219.275,1.654,1.654,0,0,1-1.562.384l-.192.383a2.01,2.01,0,0,0,2.6-1.07.124.124,0,0,0-.055-.191" transform="translate(1.086 3.368)" fill="#bc0015"/>
      </g>
    </g>
  </g>
</svg>
