<svg xmlns="http://www.w3.org/2000/svg" xmlns:xlink="http://www.w3.org/1999/xlink" width="191.279" height="32.503" viewBox="0 0 191.279 32.503">
  <defs>
    <clipPath id="clip-path">
      <rect id="사각형_158" data-name="사각형 158" width="191.279" height="32.503" fill="none"/>
    </clipPath>
  </defs>
  <g id="그룹_163" data-name="그룹 163" transform="translate(0 0)">
    <g id="그룹_162" data-name="그룹 162" transform="translate(0 0)" clip-path="url(#clip-path)">
      <path id="패스_508" data-name="패스 508" d="M49.691,27.613a11.142,11.142,0,0,1-2.138-.194,6.717,6.717,0,0,1-1.771-.584,3.443,3.443,0,0,1-1.2-.973,2.22,2.22,0,0,1-.443-1.377v-.558a2.222,2.222,0,0,1,.342-1.223,3.006,3.006,0,0,1,.935-.913,5.231,5.231,0,0,1,1.39-.614,9.49,9.49,0,0,1,1.722-.322V19.611H41.8V17.7H57.58v1.909H50.858v1.243a9.573,9.573,0,0,1,1.722.322,5.217,5.217,0,0,1,1.388.614,3.024,3.024,0,0,1,.937.913,2.23,2.23,0,0,1,.342,1.223v.558a2.214,2.214,0,0,1-.444,1.377,3.433,3.433,0,0,1-1.205.973,6.657,6.657,0,0,1-1.768.584,11.167,11.167,0,0,1-2.139.194M43.838,10.442H55.545v1.909H50.858v.037a1.378,1.378,0,0,0,.268.88,2.285,2.285,0,0,0,.975.621q1.054.427,2.073.779c.678.235,1.383.468,2.109.7l-.723,1.853c-.776-.259-1.486-.509-2.128-.741s-1.271-.468-1.887-.7c-1.075-.408-1.68-.756-1.816-1.036h-.018c-.15.3-.767.651-1.854,1.07q-.926.353-1.889.7t-2.13.741l-.74-1.887c.725-.235,1.433-.468,2.11-.7s1.371-.494,2.075-.779a2.289,2.289,0,0,0,.973-.621,1.385,1.385,0,0,0,.269-.88v-.037H43.838Zm5.853,12.246a7.016,7.016,0,0,0-1.2.1,5.576,5.576,0,0,0-1.037.277,2.282,2.282,0,0,0-.731.434.784.784,0,0,0-.277.577v.258a.77.77,0,0,0,.277.573,2.414,2.414,0,0,0,.731.449,4.838,4.838,0,0,0,1.037.274,7.7,7.7,0,0,0,2.389,0,4.8,4.8,0,0,0,1.039-.274,2.4,2.4,0,0,0,.73-.449.771.771,0,0,0,.278-.573v-.258a.785.785,0,0,0-.278-.577,2.265,2.265,0,0,0-.73-.434,5.515,5.515,0,0,0-1.039-.277,6.975,6.975,0,0,0-1.193-.1" transform="translate(0.084 0.021)" fill="#474746"/>
      <path id="패스_509" data-name="패스 509" d="M65.344,22.945V19.517h2.335v3.428H74.4v1.984H58.62V22.945Zm1.221-6.519a1.987,1.987,0,0,1-.618.677q-.472.359-1.177.843c-.505.333-1.094.7-1.759,1.1s-1.445.857-2.334,1.362l-1.15-1.853c.68-.382,1.365-.782,2.057-1.193s1.308-.809,1.852-1.179a5.666,5.666,0,0,0,.919-.736,3.288,3.288,0,0,0,.574-.791,3.438,3.438,0,0,0,.3-.9,5.8,5.8,0,0,0,.092-1.093V10.924H67.7v1.741a5.71,5.71,0,0,0,.093,1.093,3.332,3.332,0,0,0,.306.9,3.183,3.183,0,0,0,.574.791,5.72,5.72,0,0,0,.916.736q.815.556,1.853,1.179c.69.412,1.376.812,2.054,1.193l-1.128,1.816q-1.332-.759-2.334-1.359t-1.76-1.1c-.47-.322-.843-.6-1.121-.827a1.986,1.986,0,0,1-.564-.655Z" transform="translate(0.118 0.022)" fill="#474746"/>
      <path id="패스_510" data-name="패스 510" d="M76.2,21.709q1.39-.837,2.372-1.486a17.688,17.688,0,0,0,1.638-1.193,6.8,6.8,0,0,0,1.036-1.037A3.921,3.921,0,0,0,81.821,17a4.039,4.039,0,0,0,.251-1.055c.036-.371.053-.783.053-1.238V13.426H76.513V11.409H84.48v3.406a14.191,14.191,0,0,1-.093,1.687,5.554,5.554,0,0,1-.362,1.415,5.059,5.059,0,0,1-.76,1.269A9.389,9.389,0,0,1,82,20.455a21.91,21.91,0,0,1-1.9,1.411q-1.12.746-2.657,1.691Zm13.743,5.386H87.589V9.871h2.353Z" transform="translate(0.154 0.02)" fill="#474746"/>
      <path id="패스_511" data-name="패스 511" d="M97.021,18.5a5.359,5.359,0,0,1-1.916-.315,4.107,4.107,0,0,1-1.382-.842,3.413,3.413,0,0,1-.831-1.205,3.667,3.667,0,0,1-.281-1.415V14.2a3.685,3.685,0,0,1,.281-1.418,3.426,3.426,0,0,1,.831-1.2,4.179,4.179,0,0,1,1.382-.846,5.426,5.426,0,0,1,1.916-.315,5.52,5.52,0,0,1,1.7.243,4.222,4.222,0,0,1,1.3.658,3.49,3.49,0,0,1,.88.969,3.775,3.775,0,0,1,.462,1.168h2.871V9.871h2.334v8.87h-2.334V15.41h-2.852a3.6,3.6,0,0,1-.445,1.193,3.343,3.343,0,0,1-.881.981,4.386,4.386,0,0,1-1.306.666,5.442,5.442,0,0,1-1.722.251m0-6.093a2.775,2.775,0,0,0-.973.157,1.933,1.933,0,0,0-.684.427,1.739,1.739,0,0,0-.4.6,1.838,1.838,0,0,0-.131.666v.408a1.846,1.846,0,0,0,.131.666,1.739,1.739,0,0,0,.4.6,1.961,1.961,0,0,0,.684.427,3.09,3.09,0,0,0,1.947,0,1.943,1.943,0,0,0,.684-.427,1.714,1.714,0,0,0,.4-.6,1.864,1.864,0,0,0,.129-.666v-.408a1.856,1.856,0,0,0-.129-.666,1.714,1.714,0,0,0-.4-.6,1.915,1.915,0,0,0-.684-.427,2.781,2.781,0,0,0-.974-.157m9.539,7.111v7.593H95.6V19.519H97.91v1.946h6.336V19.519Zm-2.315,3.874H97.91v1.793h6.336Z" transform="translate(0.187 0.02)" fill="#474746"/>
      <path id="패스_512" data-name="패스 512" d="M116.973,27.614a11.133,11.133,0,0,1-2.138-.2,6.868,6.868,0,0,1-1.771-.572,3.4,3.4,0,0,1-1.2-.966,2.19,2.19,0,0,1-.443-1.362v-.554a2.161,2.161,0,0,1,.4-1.295,3.292,3.292,0,0,1,1.1-.947V19.538h-3.834V17.647h15.779v1.891h-3.834v2.185a3.283,3.283,0,0,1,1.1.947,2.162,2.162,0,0,1,.4,1.295v.554a2.185,2.185,0,0,1-.444,1.362,3.385,3.385,0,0,1-1.205.966,6.807,6.807,0,0,1-1.768.572,11.166,11.166,0,0,1-2.139.2m0-10.761a11.376,11.376,0,0,1-2.277-.212,6.8,6.8,0,0,1-1.789-.61,3.292,3.292,0,0,1-1.165-.992,2.313,2.313,0,0,1-.418-1.374v-.441a2.313,2.313,0,0,1,.418-1.374,3.243,3.243,0,0,1,1.165-.988,6.658,6.658,0,0,1,1.789-.614,12.248,12.248,0,0,1,4.553,0,6.626,6.626,0,0,1,1.788.614,3.234,3.234,0,0,1,1.167.988,2.32,2.32,0,0,1,.418,1.374v.441a2.32,2.32,0,0,1-.418,1.374,3.282,3.282,0,0,1-1.167.992,6.769,6.769,0,0,1-1.788.61,11.361,11.361,0,0,1-2.277.212m0-4.928a8.614,8.614,0,0,0-1.317.1,4.984,4.984,0,0,0-1.053.289,2.343,2.343,0,0,0-.7.434.753.753,0,0,0-.261.546v.3a.756.756,0,0,0,.261.547,2.266,2.266,0,0,0,.7.434,4.984,4.984,0,0,0,1.053.289,8.7,8.7,0,0,0,2.633,0,5.063,5.063,0,0,0,1.054-.289,2.237,2.237,0,0,0,.7-.434.759.759,0,0,0,.26-.547v-.3a.755.755,0,0,0-.26-.546,2.312,2.312,0,0,0-.7-.434,5.063,5.063,0,0,0-1.054-.289,8.614,8.614,0,0,0-1.317-.1m0,10.834a7.813,7.813,0,0,0-1.2.094,5.026,5.026,0,0,0-1.037.27,2.388,2.388,0,0,0-.731.427.74.74,0,0,0-.277.564v.259a.748.748,0,0,0,.277.565,2.493,2.493,0,0,0,.731.427,5.1,5.1,0,0,0,1.037.266,7.707,7.707,0,0,0,2.39,0,5.057,5.057,0,0,0,1.038-.266,2.474,2.474,0,0,0,.73-.427.749.749,0,0,0,.278-.565v-.259a.741.741,0,0,0-.278-.564,2.37,2.37,0,0,0-.73-.427,4.986,4.986,0,0,0-1.038-.27,7.79,7.79,0,0,0-1.194-.094m0-1.886c.309,0,.608.011.9.037s.577.053.861.09V19.538h-3.518V21c.282-.037.571-.067.861-.09s.59-.037.9-.037" transform="translate(0.22 0.021)" fill="#474746"/>
      <path id="패스_513" data-name="패스 513" d="M132.219,11.481h3.721v1.928h-9.852V11.481h3.8V9.628h2.335Zm-1.166,8.372a6.9,6.9,0,0,1-1.75-.2,4.028,4.028,0,0,1-1.288-.565,2.465,2.465,0,0,1-.788-.854,2.173,2.173,0,0,1-.271-1.063v-.557a2.181,2.181,0,0,1,.271-1.063,2.465,2.465,0,0,1,.788-.854,4.005,4.005,0,0,1,1.288-.564,7.662,7.662,0,0,1,3.5,0,4.065,4.065,0,0,1,1.288.564,2.494,2.494,0,0,1,.788.854,2.188,2.188,0,0,1,.266,1.063v.557a2.179,2.179,0,0,1-.266,1.063,2.494,2.494,0,0,1-.788.854,4.088,4.088,0,0,1-1.288.565,6.9,6.9,0,0,1-1.75.2m8.519.651v6.628H128.867V20.5h2.3v1.464h6.114V20.5Zm-8.519-4.779a2.665,2.665,0,0,0-1.419.3.857.857,0,0,0-.472.7v.333a.857.857,0,0,0,.472.7,3.429,3.429,0,0,0,2.835,0,.856.856,0,0,0,.471-.7v-.333a.856.856,0,0,0-.471-.7,2.646,2.646,0,0,0-1.416-.3m6.224,8.128h-6.112v1.392h6.112Zm2.3-10.056h2.262v2.036h-2.262v3.892h-2.334V9.871h2.334Z" transform="translate(0.254 0.02)" fill="#474746"/>
      <path id="패스_514" data-name="패스 514" d="M150.614,27.613a11.124,11.124,0,0,1-2.137-.194,6.712,6.712,0,0,1-1.772-.584,3.443,3.443,0,0,1-1.2-.973,2.22,2.22,0,0,1-.443-1.377v-.558A2.222,2.222,0,0,1,145.4,22.7a3.006,3.006,0,0,1,.935-.913,5.231,5.231,0,0,1,1.39-.614,9.507,9.507,0,0,1,1.722-.322V19.611h-6.724V17.7H158.5v1.909h-6.723v1.243a9.573,9.573,0,0,1,1.722.322,5.217,5.217,0,0,1,1.388.614,3.024,3.024,0,0,1,.937.913,2.23,2.23,0,0,1,.342,1.223v.558a2.214,2.214,0,0,1-.444,1.377,3.438,3.438,0,0,1-1.2.973,6.677,6.677,0,0,1-1.769.584,11.167,11.167,0,0,1-2.139.194M144.76,10.442h11.709v1.909h-4.687v.037a1.373,1.373,0,0,0,.269.88,2.274,2.274,0,0,0,.974.621q1.054.427,2.073.779c.678.235,1.383.468,2.109.7l-.723,1.853c-.776-.259-1.486-.509-2.128-.741s-1.271-.468-1.887-.7c-1.075-.408-1.68-.756-1.815-1.036h-.019c-.15.3-.767.651-1.854,1.07q-.926.353-1.889.7t-2.131.741l-.739-1.887c.726-.235,1.434-.468,2.11-.7s1.371-.494,2.075-.779a2.283,2.283,0,0,0,.973-.621,1.385,1.385,0,0,0,.269-.88v-.037H144.76Zm5.854,12.246a7.016,7.016,0,0,0-1.2.1,5.577,5.577,0,0,0-1.037.277,2.282,2.282,0,0,0-.731.434.784.784,0,0,0-.277.577v.258a.77.77,0,0,0,.277.573,2.414,2.414,0,0,0,.731.449,4.838,4.838,0,0,0,1.037.274,7.708,7.708,0,0,0,2.39,0,4.8,4.8,0,0,0,1.038-.274,2.4,2.4,0,0,0,.73-.449.772.772,0,0,0,.279-.573v-.258a.787.787,0,0,0-.279-.577,2.265,2.265,0,0,0-.73-.434,5.525,5.525,0,0,0-1.038-.277,7,7,0,0,0-1.194-.1" transform="translate(0.288 0.021)" fill="#474746"/>
      <path id="패스_515" data-name="패스 515" d="M164.322,19.111a4.807,4.807,0,0,1-1.851-.333,4.2,4.2,0,0,1-1.37-.869,3.71,3.71,0,0,1-.855-1.238,3.791,3.791,0,0,1-.3-1.467v-.817a3.788,3.788,0,0,1,.3-1.452,3.714,3.714,0,0,1,.855-1.25,4.253,4.253,0,0,1,1.37-.872,5.3,5.3,0,0,1,3.7,0,4.265,4.265,0,0,1,1.37.872,3.7,3.7,0,0,1,.854,1.25,3.752,3.752,0,0,1,.3,1.452V15.2a3.755,3.755,0,0,1-.3,1.467,3.693,3.693,0,0,1-.854,1.238,4.208,4.208,0,0,1-1.37.869,4.821,4.821,0,0,1-1.853.333m0-6.628a2.2,2.2,0,0,0-.916.176,2.136,2.136,0,0,0-.676.453,1.849,1.849,0,0,0-.416.628,1.932,1.932,0,0,0-.139.7v.707a1.9,1.9,0,0,0,.139.7,1.864,1.864,0,0,0,.416.632,2.136,2.136,0,0,0,.676.453,2.472,2.472,0,0,0,1.834,0,2.121,2.121,0,0,0,.675-.453,1.9,1.9,0,0,0,.554-1.333v-.707a1.928,1.928,0,0,0-.137-.7,1.867,1.867,0,0,0-.417-.628,2.121,2.121,0,0,0-.675-.453,2.207,2.207,0,0,0-.918-.176m3.668,15.131a9.131,9.131,0,0,1-2.157-.239,5.476,5.476,0,0,1-1.667-.688,3.33,3.33,0,0,1-1.074-1.063,2.542,2.542,0,0,1-.379-1.362v-.779a2.532,2.532,0,0,1,.379-1.359,3.253,3.253,0,0,1,1.074-1.063,5.451,5.451,0,0,1,1.667-.688,9.837,9.837,0,0,1,4.315,0,5.5,5.5,0,0,1,1.668.688,3.269,3.269,0,0,1,1.073,1.063,2.542,2.542,0,0,1,.38,1.359v.779a2.552,2.552,0,0,1-.38,1.362,3.348,3.348,0,0,1-1.073,1.063,5.526,5.526,0,0,1-1.668.688,9.144,9.144,0,0,1-2.157.239m0-5.576a4.969,4.969,0,0,0-1.26.149,3.676,3.676,0,0,0-.935.378,2.113,2.113,0,0,0-.585.509.954.954,0,0,0-.2.558v.483a.934.934,0,0,0,.2.554,2.02,2.02,0,0,0,.585.509,3.639,3.639,0,0,0,.935.381,5.5,5.5,0,0,0,2.52,0,3.7,3.7,0,0,0,.935-.381,1.978,1.978,0,0,0,.582-.509.929.929,0,0,0,.2-.554v-.483a.949.949,0,0,0-.2-.558,2.068,2.068,0,0,0-.582-.509,3.737,3.737,0,0,0-.935-.378,4.983,4.983,0,0,0-1.261-.149m5.223-8.279h2.262V15.8h-2.262v4.259h-2.334V9.87h2.334Z" transform="translate(0.323 0.02)" fill="#474746"/>
      <path id="패스_516" data-name="패스 516" d="M176.716,22.113H179c.709,0,1.38,0,2.01-.018V20.818a4.68,4.68,0,0,1-1.381-.427,3.7,3.7,0,0,1-.972-.684,2.543,2.543,0,0,1-.573-.854,2.505,2.505,0,0,1-.186-.943v-.666a2.49,2.49,0,0,1,.26-1.093,2.854,2.854,0,0,1,.788-.965,4.168,4.168,0,0,1,1.324-.685,7.026,7.026,0,0,1,3.77,0,4.162,4.162,0,0,1,1.334.685,2.812,2.812,0,0,1,.786.965,2.464,2.464,0,0,1,.261,1.093v.666a2.543,2.543,0,0,1-.184.943,2.592,2.592,0,0,1-.574.854,3.753,3.753,0,0,1-.973.684,4.674,4.674,0,0,1-1.362.427v1.238q1.389-.033,2.455-.1t1.935-.157l.167,1.964q-.8.09-1.844.157t-2.409.1c-.906.026-1.933.045-3.073.056s-2.424.019-3.844.019Zm4.3-10.389V9.834h2.315v1.89h3.721v1.961h-9.983V11.724Zm1.147,4.353a3.305,3.305,0,0,0-.934.119,1.9,1.9,0,0,0-.649.326,1.329,1.329,0,0,0-.371.453,1.115,1.115,0,0,0-.119.49v.221a1.091,1.091,0,0,0,.119.5,1.42,1.42,0,0,0,.371.446,1.892,1.892,0,0,0,.649.322,3.158,3.158,0,0,0,.934.123,2.339,2.339,0,0,0,1.576-.445,1.277,1.277,0,0,0,.5-.947v-.221a1.27,1.27,0,0,0-.5-.943,2.323,2.323,0,0,0-1.576-.445m8.762,11.018h-2.315V9.871h2.315Z" transform="translate(0.356 0.02)" fill="#474746"/>
      <path id="패스_517" data-name="패스 517" d="M25.992,8.22c0,4.539-3.091,8.22-6.9,8.22s-6.9-3.68-6.9-8.22S15.276,0,19.088,0s6.9,3.68,6.9,8.22" transform="translate(0.025 0)" fill="#7da631"/>
      <path id="패스_518" data-name="패스 518" d="M9.848,11.5A4.924,4.924,0,1,1,4.924,6.578,4.925,4.925,0,0,1,9.848,11.5" transform="translate(0 0.014)" fill="#7da631"/>
      <path id="패스_519" data-name="패스 519" d="M38.169,11.5a4.924,4.924,0,1,1-4.923-4.922A4.925,4.925,0,0,1,38.169,11.5" transform="translate(0.057 0.014)" fill="#7da631"/>
      <path id="패스_520" data-name="패스 520" d="M33.292,29.366c0,1.7-6.353,3.084-14.19,3.084S4.915,31.071,4.915,29.366,11.267,26.28,19.1,26.28s14.19,1.384,14.19,3.086" transform="translate(0.01 0.053)" fill="#004385"/>
      <path id="패스_521" data-name="패스 521" d="M19.105,24.488c-10.2,0-14.758-5.422-14.945-5.654a.752.752,0,0,1,1.163-.953c.042.053,4.331,5.1,13.782,5.1s13.74-5.05,13.781-5.1a.752.752,0,0,1,1.163.953c-.188.232-4.74,5.654-14.944,5.654" transform="translate(0.008 0.036)" fill="#7da631"/>
    </g>
  </g>
</svg>
